{"glyphs":{"0":{"ha":836,"x_min":31,"x_max":806,"o":"m 454 951 q 632 899 551 951 q 759 747 713 846 q 806 517 806 649 q 778 303 806 404 q 696 129 751 203 q 564 19 643 58 q 382 -21 485 -21 q 204 32 285 -21 q 77 183 124 85 q 31 414 31 282 q 58 627 31 526 q 140 801 85 728 q 272 912 193 872 q 454 951 351 951 m 207 582 q 314 259 207 363 q 607 146 421 156 q 629 349 629 272 q 522 672 629 568 q 229 785 415 775 q 207 582 207 658 z "},"1":{"ha":463,"x_min":24,"x_max":435,"o":"m 46 49 l 125 53 l 118 815 l 38 797 l 24 846 l 343 931 l 363 897 l 356 53 l 435 49 l 435 0 l 46 0 l 46 49 z "},"2":{"ha":701,"x_min":31,"x_max":678,"o":"m 596 290 l 640 290 l 640 -1 l 35 0 l 47 199 q 371 372 258 272 q 483 576 483 472 q 440 670 483 636 q 328 704 397 704 q 215 689 272 704 q 108 646 157 674 l 113 588 l 68 581 l 31 853 q 194 924 93 896 q 385 951 294 951 q 597 888 517 951 q 678 710 678 825 q 601 488 678 596 q 408 300 525 381 q 168 181 290 219 l 592 236 l 596 290 z "},"3":{"ha":700,"x_min":38,"x_max":660,"o":"m 397 543 q 533 513 474 543 q 626 430 593 483 q 660 310 660 376 q 608 149 660 225 q 463 26 557 72 q 249 -21 369 -21 q 136 -9 192 -21 q 38 24 81 3 l 100 196 q 453 78 279 107 q 467 171 467 122 q 380 339 467 283 q 101 390 293 394 l 101 433 l 424 743 l 101 686 l 97 632 l 53 632 l 53 931 l 621 931 l 621 782 l 276 526 q 397 543 335 543 z "},"4":{"ha":863,"x_min":-7,"x_max":858,"o":"m 651 210 l 650 53 l 729 49 l 729 0 l 385 0 l 385 49 l 464 53 l 464 210 l -7 208 l 456 897 l 657 949 l 653 421 l 858 421 l 789 210 l 651 210 m 464 421 l 464 738 l 207 421 l 464 421 z "},"5":{"ha":694,"x_min":29,"x_max":656,"o":"m 361 571 q 514 539 447 571 q 618 449 581 507 q 656 317 656 390 q 602 149 656 226 q 458 25 549 71 q 260 -21 367 -21 q 29 39 143 -21 l 92 221 q 447 78 282 114 q 461 172 461 124 q 356 363 461 300 q 36 425 251 425 l 71 931 l 618 931 l 618 632 l 574 632 l 569 686 l 160 763 l 135 536 q 249 561 188 551 q 361 571 311 571 z "},"6":{"ha":771,"x_min":36,"x_max":743,"o":"m 467 579 q 609 547 546 579 q 708 456 672 514 q 743 324 743 399 q 697 156 743 235 q 569 28 651 76 q 386 -21 488 -21 q 208 26 288 -21 q 82 160 128 74 q 36 361 36 247 q 111 643 36 513 q 316 856 186 774 q 601 951 446 939 l 611 901 q 363 760 453 854 q 256 526 272 665 q 359 565 304 550 q 467 579 414 579 m 251 451 q 288 269 253 351 q 383 137 322 188 q 521 78 444 86 q 543 200 543 139 q 466 376 543 310 q 251 451 389 442 z "},"7":{"ha":660,"x_min":17,"x_max":640,"o":"m 640 931 l 640 781 l 376 0 l 101 0 l 549 751 l 65 686 l 61 632 l 17 632 l 17 931 l 640 931 z "},"8":{"ha":775,"x_min":40,"x_max":739,"o":"m 542 504 q 688 401 636 454 q 739 269 739 349 q 690 122 739 188 q 558 17 642 56 q 372 -21 475 -21 q 200 8 275 -21 q 83 91 125 38 q 40 214 40 144 q 81 350 40 286 q 192 458 122 414 q 106 549 136 500 q 75 664 75 599 q 124 814 75 749 q 251 915 172 879 q 419 951 331 951 q 561 920 500 951 q 655 838 622 889 q 688 731 688 788 q 647 606 688 667 q 542 504 606 544 m 486 639 q 418 785 486 728 q 253 850 350 843 q 240 781 240 817 q 271 682 240 725 q 348 608 301 639 q 468 542 394 578 q 486 639 486 590 m 250 313 q 287 201 250 251 q 382 123 324 151 q 500 94 440 94 q 560 99 529 94 q 564 136 564 118 q 534 232 564 190 q 459 303 504 274 q 338 372 414 332 q 264 413 303 389 q 250 313 250 363 z "},"9":{"ha":768,"x_min":28,"x_max":735,"o":"m 397 972 q 570 925 493 972 q 691 792 647 878 q 735 590 735 706 q 660 308 735 439 q 455 95 585 178 q 169 0 325 13 l 160 50 q 405 188 315 96 q 514 414 494 279 q 301 353 413 353 q 161 388 224 353 q 63 485 99 424 q 28 626 28 547 q 76 795 28 715 q 208 924 124 875 q 397 972 293 972 m 228 753 q 306 574 228 640 q 519 497 383 507 q 483 681 518 599 q 388 815 449 764 q 250 874 328 865 q 228 753 228 813 z "}," ":{"ha":236,"x_min":0,"x_max":0,"o":""},"A":{"ha":931,"x_min":3,"x_max":942,"o":"m 942 49 l 942 0 l 524 0 l 524 49 l 592 50 l 528 278 l 292 278 l 246 50 l 317 49 l 317 0 l 3 0 l 3 49 l 71 50 l 382 919 l 554 943 l 874 50 l 942 49 m 513 329 l 390 764 l 303 329 l 513 329 z "},"Á":{"ha":931,"x_min":3,"x_max":942,"o":"m 942 49 l 942 0 l 524 0 l 524 49 l 592 50 l 528 278 l 292 278 l 246 50 l 317 49 l 317 0 l 3 0 l 3 49 l 71 50 l 382 919 l 554 943 l 874 50 l 942 49 m 513 329 l 390 764 l 303 329 l 513 329 m 390 1092 l 624 1278 l 678 1181 l 415 1038 l 390 1092 z "},"Ă":{"ha":931,"x_min":3,"x_max":942,"o":"m 942 49 l 942 0 l 524 0 l 524 49 l 592 50 l 528 278 l 292 278 l 246 50 l 317 49 l 317 0 l 3 0 l 3 49 l 71 50 l 382 919 l 554 943 l 874 50 l 942 49 m 513 329 l 390 764 l 303 329 l 513 329 m 474 1051 q 363 1088 415 1051 q 272 1186 310 1124 l 307 1225 q 383 1176 340 1194 q 474 1158 426 1158 q 564 1176 521 1158 q 640 1225 607 1194 l 675 1186 q 585 1088 638 1124 q 474 1051 532 1051 z "},"Â":{"ha":931,"x_min":3,"x_max":942,"o":"m 942 49 l 942 0 l 524 0 l 524 49 l 592 50 l 528 278 l 292 278 l 246 50 l 317 49 l 317 0 l 3 0 l 3 49 l 71 50 l 382 919 l 554 943 l 874 50 l 942 49 m 513 329 l 390 764 l 303 329 l 513 329 m 288 1085 l 474 1233 l 660 1085 l 631 1042 l 474 1115 l 317 1042 l 288 1085 z "},"Ä":{"ha":931,"x_min":3,"x_max":942,"o":"m 942 49 l 942 0 l 524 0 l 524 49 l 592 50 l 528 278 l 292 278 l 246 50 l 317 49 l 317 0 l 3 0 l 3 49 l 71 50 l 382 919 l 554 943 l 874 50 l 942 49 m 513 329 l 390 764 l 303 329 l 513 329 m 292 1171 l 431 1200 l 431 1072 l 292 1053 l 292 1171 m 517 1171 l 656 1200 l 656 1072 l 517 1053 l 517 1171 z "},"À":{"ha":931,"x_min":3,"x_max":942,"o":"m 942 49 l 942 0 l 524 0 l 524 49 l 592 50 l 528 278 l 292 278 l 246 50 l 317 49 l 317 0 l 3 0 l 3 49 l 71 50 l 382 919 l 554 943 l 874 50 l 942 49 m 513 329 l 390 764 l 303 329 l 513 329 m 290 1178 l 344 1275 l 578 1089 l 553 1035 l 290 1178 z "},"Ā":{"ha":931,"x_min":3,"x_max":942,"o":"m 942 49 l 942 0 l 524 0 l 524 49 l 592 50 l 528 278 l 292 278 l 246 50 l 317 49 l 317 0 l 3 0 l 3 49 l 71 50 l 382 919 l 554 943 l 874 50 l 942 49 m 513 329 l 390 764 l 303 329 l 513 329 m 294 1138 l 660 1149 l 646 1069 l 288 1069 l 294 1138 z "},"Ą":{"ha":931,"x_min":3,"x_max":942,"o":"m 942 49 l 942 0 l 524 0 l 524 49 l 592 50 l 528 278 l 292 278 l 246 50 l 317 49 l 317 0 l 3 0 l 3 49 l 71 50 l 382 919 l 554 943 l 874 50 l 942 49 m 513 329 l 390 764 l 303 329 l 513 329 m 689 -321 q 589 -288 628 -321 q 550 -194 550 -256 q 577 -119 550 -160 q 647 -45 604 -78 q 729 0 689 -12 l 792 0 q 724 -70 749 -29 q 699 -156 699 -111 q 719 -218 699 -194 q 774 -242 740 -242 q 803 -239 792 -242 l 814 -275 q 689 -321 760 -321 z "},"Å":{"ha":947,"x_min":3,"x_max":942,"o":"m 942 49 l 942 0 l 524 0 l 524 49 l 592 50 l 528 278 l 292 278 l 246 50 l 317 49 l 317 0 l 3 0 l 3 49 l 71 50 l 379 913 q 339 959 353 931 q 325 1022 325 988 q 363 1122 325 1082 q 465 1161 400 1161 q 567 1122 529 1161 q 604 1022 604 1082 q 563 921 604 960 l 874 50 l 942 49 m 465 1110 q 402 1085 426 1110 q 378 1022 378 1061 q 402 958 378 982 q 465 933 426 933 q 528 958 504 933 q 553 1022 553 982 q 528 1085 553 1061 q 465 1110 504 1110 m 513 329 l 390 764 l 303 329 l 513 329 z "},"Ã":{"ha":931,"x_min":3,"x_max":942,"o":"m 942 49 l 942 0 l 524 0 l 524 49 l 592 50 l 528 278 l 292 278 l 246 50 l 317 49 l 317 0 l 3 0 l 3 49 l 71 50 l 382 919 l 554 943 l 874 50 l 942 49 m 513 329 l 390 764 l 303 329 l 513 329 m 526 1050 q 492 1058 507 1050 q 454 1086 478 1067 q 424 1110 436 1103 q 397 1118 413 1118 q 354 1103 375 1118 q 317 1064 333 1089 l 286 1096 q 344 1178 310 1147 q 421 1210 379 1210 q 455 1201 440 1210 q 493 1174 469 1193 q 523 1149 511 1157 q 550 1142 535 1142 q 593 1156 572 1142 q 631 1196 614 1171 l 661 1164 q 603 1081 638 1113 q 526 1050 568 1050 z "},"Æ":{"ha":1213,"x_min":-11,"x_max":1178,"o":"m 1178 249 l 1178 0 l 494 0 l 494 49 l 563 50 l 563 428 l 382 428 l 246 50 l 317 49 l 317 0 l -11 0 l -11 49 l 43 50 l 496 931 l 1150 935 l 1150 682 l 1096 683 l 1093 753 q 930 828 999 799 q 793 881 861 858 l 796 479 l 1035 479 l 1035 428 l 796 428 l 799 38 q 1121 178 922 81 l 1124 247 l 1178 249 m 563 479 l 563 876 l 544 876 l 401 479 l 563 479 z "},"B":{"ha":882,"x_min":50,"x_max":865,"o":"m 635 482 q 760 452 708 482 q 839 375 813 422 q 865 275 865 328 q 755 73 865 146 q 432 0 644 0 l 50 0 l 50 49 l 118 50 l 118 881 l 50 882 l 50 931 l 318 928 l 521 944 q 725 887 654 944 q 796 735 796 829 q 736 581 796 646 q 561 478 676 517 l 635 482 m 549 682 q 498 831 549 781 q 349 882 447 882 l 349 482 q 499 538 450 489 q 549 682 549 588 m 349 49 q 554 93 490 49 q 618 235 618 138 q 560 382 618 332 q 390 432 503 432 l 349 432 l 349 49 z "},"C":{"ha":847,"x_min":33,"x_max":844,"o":"m 582 139 q 700 164 643 139 q 806 236 757 189 l 842 196 q 450 -21 671 -21 q 230 36 324 -21 q 85 197 136 93 q 33 442 33 301 q 80 676 33 563 q 199 857 126 789 q 351 927 269 903 q 511 951 432 951 q 705 906 617 951 q 844 781 793 861 l 674 638 q 500 914 601 765 q 389 828 439 889 q 310 682 339 767 q 282 506 282 597 q 360 235 282 331 q 582 139 439 139 z "},"Ć":{"ha":847,"x_min":33,"x_max":844,"o":"m 582 139 q 700 164 643 139 q 806 236 757 189 l 842 196 q 450 -21 671 -21 q 230 36 324 -21 q 85 197 136 93 q 33 442 33 301 q 80 676 33 563 q 199 857 126 789 q 351 927 269 903 q 511 951 432 951 q 705 906 617 951 q 844 781 793 861 l 674 638 q 500 914 601 765 q 389 828 439 889 q 310 682 339 767 q 282 506 282 597 q 360 235 282 331 q 582 139 439 139 m 383 1092 l 617 1278 l 671 1181 l 408 1038 l 383 1092 z "},"Č":{"ha":847,"x_min":33,"x_max":844,"o":"m 582 139 q 700 164 643 139 q 806 236 757 189 l 842 196 q 450 -21 671 -21 q 230 36 324 -21 q 85 197 136 93 q 33 442 33 301 q 80 676 33 563 q 199 857 126 789 q 351 927 269 903 q 511 951 432 951 q 705 906 617 951 q 844 781 793 861 l 674 638 q 500 914 601 765 q 389 828 439 889 q 310 682 339 767 q 282 506 282 597 q 360 235 282 331 q 582 139 439 139 m 281 1181 l 310 1224 l 467 1150 l 624 1224 l 653 1181 l 467 1032 l 281 1181 z "},"Ç":{"ha":847,"x_min":33,"x_max":844,"o":"m 582 139 q 700 164 643 139 q 806 236 757 189 l 842 196 q 489 -19 688 -1 l 454 -72 q 565 -113 521 -78 q 608 -211 608 -149 q 599 -260 608 -233 q 571 -308 589 -286 q 527 -336 551 -325 q 482 -349 503 -347 q 405 -335 447 -349 q 332 -304 363 -322 l 381 -236 l 493 -312 q 494 -292 494 -306 q 462 -199 494 -235 q 367 -156 429 -162 l 367 -118 l 440 -21 q 225 38 317 -19 q 83 200 133 96 q 33 442 33 304 q 80 676 33 563 q 199 857 126 789 q 351 927 269 903 q 511 951 432 951 q 705 906 617 951 q 844 781 793 861 l 674 638 q 500 914 601 765 q 389 828 439 889 q 310 682 339 767 q 282 506 282 597 q 360 235 282 331 q 582 139 439 139 z "},"D":{"ha":982,"x_min":50,"x_max":949,"o":"m 50 49 l 118 50 l 118 881 l 50 882 l 50 931 l 318 928 l 515 944 q 835 829 722 944 q 949 496 949 714 q 892 237 949 349 q 721 63 835 125 q 443 0 607 0 l 50 0 l 50 49 m 388 49 q 619 151 536 49 q 701 461 701 254 q 655 692 701 599 q 528 833 608 786 q 349 879 449 879 l 349 49 l 388 49 z "},"Ð":{"ha":982,"x_min":-7,"x_max":949,"o":"m 515 944 q 835 829 722 944 q 949 496 949 714 q 892 237 949 349 q 721 63 835 125 q 443 0 607 0 l 50 0 l 50 49 l 118 50 l 118 438 l -7 438 l 0 490 l 118 493 l 118 881 l 50 882 l 50 931 l 318 928 l 515 944 m 388 49 q 619 151 536 49 q 701 461 701 254 q 655 692 701 599 q 528 833 608 786 q 349 879 449 879 l 349 499 l 504 501 l 490 438 l 349 438 l 349 49 l 388 49 z "},"Ď":{"ha":982,"x_min":50,"x_max":949,"o":"m 50 49 l 118 50 l 118 881 l 50 882 l 50 931 l 318 928 l 515 944 q 835 829 722 944 q 949 496 949 714 q 892 237 949 349 q 721 63 835 125 q 443 0 607 0 l 50 0 l 50 49 m 388 49 q 619 151 536 49 q 701 461 701 254 q 655 692 701 599 q 528 833 608 786 q 349 879 449 879 l 349 49 l 388 49 m 286 1181 l 315 1224 l 472 1150 l 629 1224 l 658 1181 l 472 1032 l 286 1181 z "},"E":{"ha":789,"x_min":50,"x_max":754,"o":"m 754 276 l 754 0 l 50 0 l 50 49 l 118 50 l 118 881 l 50 882 l 50 931 l 726 931 l 726 661 l 672 663 l 669 732 q 349 893 515 828 l 351 507 l 611 507 l 611 456 l 351 456 l 354 39 q 697 206 532 107 l 700 275 l 754 276 z "},"É":{"ha":789,"x_min":50,"x_max":754,"o":"m 754 276 l 754 0 l 50 0 l 50 49 l 118 50 l 118 881 l 50 882 l 50 931 l 726 931 l 726 661 l 672 663 l 669 732 q 349 893 515 828 l 351 507 l 611 507 l 611 456 l 351 456 l 354 39 q 697 206 532 107 l 700 275 l 754 276 m 347 1092 l 581 1278 l 635 1181 l 372 1038 l 347 1092 z "},"Ě":{"ha":789,"x_min":50,"x_max":754,"o":"m 754 276 l 754 0 l 50 0 l 50 49 l 118 50 l 118 881 l 50 882 l 50 931 l 726 931 l 726 661 l 672 663 l 669 732 q 349 893 515 828 l 351 507 l 611 507 l 611 456 l 351 456 l 354 39 q 697 206 532 107 l 700 275 l 754 276 m 244 1181 l 274 1224 l 431 1150 l 588 1224 l 617 1181 l 431 1032 l 244 1181 z "},"Ê":{"ha":789,"x_min":50,"x_max":754,"o":"m 754 276 l 754 0 l 50 0 l 50 49 l 118 50 l 118 881 l 50 882 l 50 931 l 726 931 l 726 661 l 672 663 l 669 732 q 349 893 515 828 l 351 507 l 611 507 l 611 456 l 351 456 l 354 39 q 697 206 532 107 l 700 275 l 754 276 m 244 1085 l 431 1233 l 617 1085 l 588 1042 l 431 1115 l 274 1042 l 244 1085 z "},"Ë":{"ha":789,"x_min":50,"x_max":754,"o":"m 754 276 l 754 0 l 50 0 l 50 49 l 118 50 l 118 881 l 50 882 l 50 931 l 726 931 l 726 661 l 672 663 l 669 732 q 349 893 515 828 l 351 507 l 611 507 l 611 456 l 351 456 l 354 39 q 697 206 532 107 l 700 275 l 754 276 m 249 1171 l 388 1200 l 388 1072 l 249 1053 l 249 1171 m 474 1171 l 613 1200 l 613 1072 l 474 1053 l 474 1171 z "},"Ė":{"ha":789,"x_min":50,"x_max":754,"o":"m 754 276 l 754 0 l 50 0 l 50 49 l 118 50 l 118 881 l 50 882 l 50 931 l 726 931 l 726 661 l 672 663 l 669 732 q 349 893 515 828 l 351 507 l 611 507 l 611 456 l 351 456 l 354 39 q 697 206 532 107 l 700 275 l 754 276 m 357 1156 l 504 1189 l 504 1058 l 357 1038 l 357 1156 z "},"È":{"ha":789,"x_min":50,"x_max":754,"o":"m 754 276 l 754 0 l 50 0 l 50 49 l 118 50 l 118 881 l 50 882 l 50 931 l 726 931 l 726 661 l 672 663 l 669 732 q 349 893 515 828 l 351 507 l 611 507 l 611 456 l 351 456 l 354 39 q 697 206 532 107 l 700 275 l 754 276 m 247 1178 l 301 1275 l 535 1089 l 510 1035 l 247 1178 z "},"Ē":{"ha":789,"x_min":50,"x_max":754,"o":"m 754 276 l 754 0 l 50 0 l 50 49 l 118 50 l 118 881 l 50 882 l 50 931 l 726 931 l 726 661 l 672 663 l 669 732 q 349 893 515 828 l 351 507 l 611 507 l 611 456 l 351 456 l 354 39 q 697 206 532 107 l 700 275 l 754 276 m 251 1138 l 617 1149 l 603 1069 l 244 1069 l 251 1138 z "},"Ę":{"ha":789,"x_min":50,"x_max":776,"o":"m 754 276 l 754 0 l 50 0 l 50 49 l 118 50 l 118 881 l 50 882 l 50 931 l 726 931 l 726 661 l 672 663 l 669 732 q 349 893 515 828 l 351 507 l 611 507 l 611 456 l 351 456 l 354 39 q 697 206 532 107 l 700 275 l 754 276 m 651 -321 q 551 -288 590 -321 q 513 -194 513 -256 q 540 -119 513 -160 q 609 -45 567 -78 q 692 0 651 -12 l 754 0 q 686 -70 711 -29 q 661 -156 661 -111 q 682 -218 661 -194 q 736 -242 703 -242 q 765 -239 754 -242 l 776 -275 q 651 -321 722 -321 z "},"F":{"ha":733,"x_min":50,"x_max":726,"o":"m 726 931 l 726 654 l 672 656 l 669 725 q 351 892 504 829 l 351 472 l 611 472 l 611 421 l 351 421 l 351 50 l 500 49 l 500 0 l 50 0 l 50 49 l 118 50 l 118 881 l 50 882 l 50 931 l 726 931 z "},"G":{"ha":918,"x_min":33,"x_max":899,"o":"m 899 482 l 899 433 l 836 432 l 836 0 l 792 0 l 690 69 q 573 3 636 26 q 444 -21 510 -21 q 229 35 322 -21 q 85 194 136 92 q 33 431 33 296 q 80 672 33 558 q 199 854 126 786 q 351 924 269 900 q 511 949 432 949 q 705 903 617 949 q 844 778 793 858 l 674 635 q 500 910 597 764 q 343 756 404 868 q 282 500 282 643 q 362 223 282 324 q 581 122 442 122 q 614 124 603 122 l 614 432 l 546 433 l 546 482 l 899 482 z "},"Ğ":{"ha":918,"x_min":33,"x_max":899,"o":"m 899 482 l 899 433 l 836 432 l 836 0 l 792 0 l 690 69 q 573 3 636 26 q 444 -21 510 -21 q 229 35 322 -21 q 85 194 136 92 q 33 431 33 296 q 80 672 33 558 q 199 854 126 786 q 351 924 269 900 q 511 949 432 949 q 705 903 617 949 q 844 778 793 858 l 674 635 q 500 910 597 764 q 343 756 404 868 q 282 500 282 643 q 362 223 282 324 q 581 122 442 122 q 614 124 603 122 l 614 432 l 546 433 l 546 482 l 899 482 m 472 1051 q 361 1088 414 1051 q 271 1186 308 1124 l 306 1225 q 382 1176 339 1194 q 472 1158 425 1158 q 563 1176 519 1158 q 639 1225 606 1194 l 674 1186 q 583 1088 636 1124 q 472 1051 531 1051 z "},"Ģ":{"ha":918,"x_min":33,"x_max":899,"o":"m 899 482 l 899 433 l 836 432 l 836 0 l 792 0 l 690 69 q 573 3 636 26 q 444 -21 510 -21 q 229 35 322 -21 q 85 194 136 92 q 33 431 33 296 q 80 672 33 558 q 199 854 126 786 q 351 924 269 900 q 511 949 432 949 q 705 903 617 949 q 844 778 793 858 l 674 635 q 500 910 597 764 q 343 756 404 868 q 282 500 282 643 q 362 223 282 324 q 581 122 442 122 q 614 124 603 122 l 614 432 l 546 433 l 546 482 l 899 482 m 376 -99 l 511 -74 l 511 -150 l 415 -310 l 375 -314 l 376 -99 z "},"H":{"ha":1008,"x_min":72,"x_max":981,"o":"m 913 881 l 913 50 l 981 49 l 981 0 l 614 0 l 614 49 l 682 50 l 682 436 l 371 436 l 371 50 l 439 49 l 439 0 l 72 0 l 72 49 l 140 50 l 140 881 l 72 882 l 72 931 l 439 931 l 439 882 l 371 881 l 371 488 l 682 488 l 682 881 l 614 882 l 614 931 l 981 931 l 981 882 l 913 881 z "},"Ħ":{"ha":1008,"x_min":33,"x_max":1031,"o":"m 913 688 l 913 50 l 981 49 l 981 0 l 614 0 l 614 49 l 682 50 l 682 436 l 371 436 l 371 50 l 439 49 l 439 0 l 72 0 l 72 49 l 140 50 l 140 688 l 33 688 l 40 740 l 140 742 l 140 881 l 72 882 l 72 931 l 439 931 l 439 882 l 371 881 l 371 744 l 682 747 l 682 881 l 614 882 l 614 931 l 981 931 l 981 882 l 913 881 l 913 750 l 1031 751 l 1017 688 l 913 688 m 682 688 l 371 688 l 371 488 l 682 488 l 682 688 z "},"I":{"ha":467,"x_min":50,"x_max":417,"o":"m 50 49 l 118 50 l 118 881 l 50 882 l 50 931 l 417 931 l 417 882 l 349 881 l 349 50 l 417 49 l 417 0 l 50 0 l 50 49 z "},"Í":{"ha":467,"x_min":50,"x_max":417,"o":"m 132 1081 l 329 1304 l 400 1218 l 167 1031 l 132 1081 m 50 49 l 118 50 l 118 881 l 50 882 l 50 931 l 417 931 l 417 882 l 349 881 l 349 50 l 417 49 l 417 0 l 50 0 l 50 49 z "},"Î":{"ha":467,"x_min":50,"x_max":422,"o":"m 50 49 l 118 50 l 118 881 l 50 882 l 50 931 l 417 931 l 417 882 l 349 881 l 349 50 l 417 49 l 417 0 l 50 0 l 50 49 m 50 1085 l 236 1233 l 422 1085 l 393 1042 l 236 1115 l 79 1042 l 50 1085 z "},"Ï":{"ha":467,"x_min":50,"x_max":418,"o":"m 50 49 l 118 50 l 118 881 l 50 882 l 50 931 l 417 931 l 417 882 l 349 881 l 349 50 l 417 49 l 417 0 l 50 0 l 50 49 m 54 1171 l 193 1200 l 193 1072 l 54 1053 l 54 1171 m 279 1171 l 418 1200 l 418 1072 l 279 1053 l 279 1171 z "},"Ì":{"ha":467,"x_min":50,"x_max":417,"o":"m 81 1219 l 153 1303 l 343 1072 l 307 1025 l 81 1219 m 50 49 l 118 50 l 118 881 l 50 882 l 50 931 l 417 931 l 417 882 l 349 881 l 349 50 l 417 49 l 417 0 l 50 0 l 50 49 z "},"Ī":{"ha":467,"x_min":50,"x_max":422,"o":"m 50 49 l 118 50 l 118 881 l 50 882 l 50 931 l 417 931 l 417 882 l 349 881 l 349 50 l 417 49 l 417 0 l 50 0 l 50 49 m 57 1138 l 422 1149 l 408 1069 l 50 1069 l 57 1138 z "},"Į":{"ha":467,"x_min":50,"x_max":417,"o":"m 50 49 l 118 50 l 118 881 l 50 882 l 50 931 l 417 931 l 417 882 l 349 881 l 349 50 l 417 49 l 417 0 l 50 0 l 50 49 m 242 -321 q 142 -288 181 -321 q 103 -194 103 -256 q 130 -119 103 -160 q 199 -45 157 -78 q 282 0 242 -12 l 344 0 q 276 -70 301 -29 q 251 -156 251 -111 q 272 -218 251 -194 q 326 -242 293 -242 q 356 -239 344 -242 l 367 -275 q 242 -321 313 -321 z "},"J":{"ha":454,"x_min":-181,"x_max":415,"o":"m 415 931 l 415 882 l 347 881 l 347 299 q 269 -147 347 -11 q 47 -282 190 -282 q -81 -260 -12 -282 q -181 -212 -149 -237 l -65 -42 l 117 -228 l 117 881 l 49 882 l 49 931 l 415 931 z "},"K":{"ha":972,"x_min":50,"x_max":969,"o":"m 349 50 l 417 49 l 417 0 l 50 0 l 50 49 l 118 50 l 118 881 l 50 882 l 50 931 l 417 931 l 417 882 l 349 881 l 349 50 m 969 49 l 969 0 l 538 0 l 538 49 l 606 50 l 369 457 l 671 881 l 603 882 l 603 931 l 933 931 l 933 882 l 858 881 l 550 582 l 901 50 l 969 49 z "},"Ķ":{"ha":972,"x_min":50,"x_max":969,"o":"m 349 50 l 417 49 l 417 0 l 50 0 l 50 49 l 118 50 l 118 881 l 50 882 l 50 931 l 417 931 l 417 882 l 349 881 l 349 50 m 969 49 l 969 0 l 538 0 l 538 49 l 606 50 l 369 457 l 671 881 l 603 882 l 603 931 l 933 931 l 933 882 l 858 881 l 550 582 l 901 50 l 969 49 m 382 -99 l 517 -74 l 517 -150 l 421 -310 l 381 -314 l 382 -99 z "},"L":{"ha":763,"x_min":50,"x_max":754,"o":"m 754 276 l 754 0 l 50 0 l 50 49 l 118 50 l 118 881 l 50 882 l 50 931 l 500 931 l 500 882 l 349 881 l 349 53 q 697 206 522 114 l 700 275 l 754 276 z "},"Ĺ":{"ha":763,"x_min":50,"x_max":754,"o":"m 754 276 l 754 0 l 50 0 l 50 49 l 118 50 l 118 881 l 50 882 l 50 931 l 500 931 l 500 882 l 349 881 l 349 53 q 697 206 522 114 l 700 275 l 754 276 m 218 1092 l 451 1278 l 506 1181 l 243 1038 l 218 1092 z "},"Ľ":{"ha":763,"x_min":50,"x_max":754,"o":"m 754 276 l 754 0 l 50 0 l 50 49 l 118 50 l 118 881 l 50 882 l 50 931 l 500 931 l 500 882 l 349 881 l 349 53 q 697 206 522 114 l 700 275 l 754 276 m 592 906 l 726 931 l 726 854 l 631 694 l 590 690 l 592 906 z "},"Ļ":{"ha":763,"x_min":50,"x_max":754,"o":"m 754 276 l 754 0 l 50 0 l 50 49 l 118 50 l 118 881 l 50 882 l 50 931 l 500 931 l 500 882 l 349 881 l 349 53 q 697 206 522 114 l 700 275 l 754 276 m 318 -99 l 453 -74 l 453 -150 l 357 -310 l 317 -314 l 318 -99 z "},"Ł":{"ha":763,"x_min":-4,"x_max":754,"o":"m 754 276 l 754 0 l 50 0 l 50 49 l 118 50 l 118 367 l 26 283 l -4 319 l 118 429 l 118 881 l 50 882 l 50 931 l 500 931 l 500 882 l 349 881 l 349 636 l 444 722 l 475 689 l 349 575 l 349 53 q 697 206 522 114 l 700 275 l 754 276 z "},"M":{"ha":1235,"x_min":3,"x_max":1232,"o":"m 1232 49 l 1232 0 l 847 0 l 847 49 l 922 50 l 857 763 l 589 156 l 546 156 l 258 767 l 232 50 l 307 49 l 307 0 l 3 0 l 3 49 l 57 50 l 190 881 l 114 882 l 114 931 l 433 931 l 657 476 l 850 931 l 1138 931 l 1138 882 l 1064 881 l 1178 50 l 1232 49 z "},"N":{"ha":1022,"x_min":50,"x_max":972,"o":"m 972 931 l 972 882 l 904 881 l 868 1 l 700 0 l 199 789 l 251 50 l 333 49 l 333 0 l 50 0 l 50 49 l 118 50 l 142 881 l 74 882 l 74 931 l 417 931 l 821 304 l 785 881 l 703 882 l 703 931 l 972 931 z "},"Ń":{"ha":1022,"x_min":50,"x_max":972,"o":"m 972 931 l 972 882 l 904 881 l 868 1 l 700 0 l 199 789 l 251 50 l 333 49 l 333 0 l 50 0 l 50 49 l 118 50 l 142 881 l 74 882 l 74 931 l 417 931 l 821 304 l 785 881 l 703 882 l 703 931 l 972 931 m 451 1092 l 685 1278 l 739 1181 l 476 1038 l 451 1092 z "},"Ň":{"ha":1022,"x_min":50,"x_max":972,"o":"m 972 931 l 972 882 l 904 881 l 868 1 l 700 0 l 199 789 l 251 50 l 333 49 l 333 0 l 50 0 l 50 49 l 118 50 l 142 881 l 74 882 l 74 931 l 417 931 l 821 304 l 785 881 l 703 882 l 703 931 l 972 931 m 349 1181 l 378 1224 l 535 1150 l 692 1224 l 721 1181 l 535 1032 l 349 1181 z "},"Ņ":{"ha":1022,"x_min":50,"x_max":972,"o":"m 972 931 l 972 882 l 904 881 l 868 1 l 700 0 l 199 789 l 251 50 l 333 49 l 333 0 l 50 0 l 50 49 l 118 50 l 142 881 l 74 882 l 74 931 l 417 931 l 821 304 l 785 881 l 703 882 l 703 931 l 972 931 m 417 -99 l 551 -74 l 551 -150 l 456 -310 l 415 -314 l 417 -99 z "},"Ñ":{"ha":1022,"x_min":50,"x_max":972,"o":"m 972 931 l 972 882 l 904 881 l 868 1 l 700 0 l 199 789 l 251 50 l 333 49 l 333 0 l 50 0 l 50 49 l 118 50 l 142 881 l 74 882 l 74 931 l 417 931 l 821 304 l 785 881 l 703 882 l 703 931 l 972 931 m 588 1050 q 553 1058 568 1050 q 515 1086 539 1067 q 485 1110 497 1103 q 458 1118 474 1118 q 415 1103 436 1118 q 378 1064 394 1089 l 347 1096 q 406 1178 371 1147 q 482 1210 440 1210 q 516 1201 501 1210 q 554 1174 531 1193 q 584 1149 572 1157 q 611 1142 596 1142 q 654 1156 633 1142 q 692 1196 675 1171 l 722 1164 q 664 1081 699 1113 q 588 1050 629 1050 z "},"O":{"ha":985,"x_min":33,"x_max":951,"o":"m 499 951 q 737 899 635 951 q 895 743 839 846 q 951 492 951 640 q 918 297 951 397 q 821 118 885 196 q 668 17 754 56 q 485 -21 582 -21 q 248 32 350 -21 q 90 188 146 85 q 33 439 33 290 q 68 633 33 532 q 167 813 103 735 q 317 913 232 875 q 499 951 403 951 m 281 536 q 322 276 281 375 q 449 131 364 178 q 668 78 533 85 q 695 241 685 147 q 706 394 706 335 q 663 656 706 557 q 535 803 621 756 q 315 856 449 850 q 290 688 300 783 q 281 536 281 592 z "},"Ó":{"ha":985,"x_min":33,"x_max":951,"o":"m 499 951 q 737 899 635 951 q 895 743 839 846 q 951 492 951 640 q 918 297 951 397 q 821 118 885 196 q 668 17 754 56 q 485 -21 582 -21 q 248 32 350 -21 q 90 188 146 85 q 33 439 33 290 q 68 633 33 532 q 167 813 103 735 q 317 913 232 875 q 499 951 403 951 m 281 536 q 322 276 281 375 q 449 131 364 178 q 668 78 533 85 q 695 241 685 147 q 706 394 706 335 q 663 656 706 557 q 535 803 621 756 q 315 856 449 850 q 290 688 300 783 q 281 536 281 592 m 424 1092 l 657 1278 l 711 1181 l 449 1038 l 424 1092 z "},"Ô":{"ha":985,"x_min":33,"x_max":951,"o":"m 499 951 q 737 899 635 951 q 895 743 839 846 q 951 492 951 640 q 918 297 951 397 q 821 118 885 196 q 668 17 754 56 q 485 -21 582 -21 q 248 32 350 -21 q 90 188 146 85 q 33 439 33 290 q 68 633 33 532 q 167 813 103 735 q 317 913 232 875 q 499 951 403 951 m 281 536 q 322 276 281 375 q 449 131 364 178 q 668 78 533 85 q 695 241 685 147 q 706 394 706 335 q 663 656 706 557 q 535 803 621 756 q 315 856 449 850 q 290 688 300 783 q 281 536 281 592 m 321 1085 l 507 1233 l 693 1085 l 664 1042 l 507 1115 l 350 1042 l 321 1085 z "},"Ö":{"ha":985,"x_min":33,"x_max":951,"o":"m 499 951 q 737 899 635 951 q 895 743 839 846 q 951 492 951 640 q 918 297 951 397 q 821 118 885 196 q 668 17 754 56 q 485 -21 582 -21 q 248 32 350 -21 q 90 188 146 85 q 33 439 33 290 q 68 633 33 532 q 167 813 103 735 q 317 913 232 875 q 499 951 403 951 m 281 536 q 322 276 281 375 q 449 131 364 178 q 668 78 533 85 q 695 241 685 147 q 706 394 706 335 q 663 656 706 557 q 535 803 621 756 q 315 856 449 850 q 290 688 300 783 q 281 536 281 592 m 325 1171 l 464 1200 l 464 1072 l 325 1053 l 325 1171 m 550 1171 l 689 1200 l 689 1072 l 550 1053 l 550 1171 z "},"Ò":{"ha":985,"x_min":33,"x_max":951,"o":"m 499 951 q 737 899 635 951 q 895 743 839 846 q 951 492 951 640 q 918 297 951 397 q 821 118 885 196 q 668 17 754 56 q 485 -21 582 -21 q 248 32 350 -21 q 90 188 146 85 q 33 439 33 290 q 68 633 33 532 q 167 813 103 735 q 317 913 232 875 q 499 951 403 951 m 281 536 q 322 276 281 375 q 449 131 364 178 q 668 78 533 85 q 695 241 685 147 q 706 394 706 335 q 663 656 706 557 q 535 803 621 756 q 315 856 449 850 q 290 688 300 783 q 281 536 281 592 m 324 1178 l 378 1275 l 611 1089 l 586 1035 l 324 1178 z "},"Ő":{"ha":985,"x_min":33,"x_max":951,"o":"m 499 951 q 737 899 635 951 q 895 743 839 846 q 951 492 951 640 q 918 297 951 397 q 821 118 885 196 q 668 17 754 56 q 485 -21 582 -21 q 248 32 350 -21 q 90 188 146 85 q 33 439 33 290 q 68 633 33 532 q 167 813 103 735 q 317 913 232 875 q 499 951 403 951 m 281 536 q 322 276 281 375 q 449 131 364 178 q 668 78 533 85 q 695 241 685 147 q 706 394 706 335 q 663 656 706 557 q 535 803 621 756 q 315 856 449 850 q 290 688 300 783 q 281 536 281 592 m 388 1032 l 499 1228 l 604 1236 l 454 1022 l 388 1032 m 533 1032 l 644 1228 l 750 1236 l 600 1022 l 533 1032 z "},"Ō":{"ha":985,"x_min":33,"x_max":951,"o":"m 499 951 q 737 899 635 951 q 895 743 839 846 q 951 492 951 640 q 918 297 951 397 q 821 118 885 196 q 668 17 754 56 q 485 -21 582 -21 q 248 32 350 -21 q 90 188 146 85 q 33 439 33 290 q 68 633 33 532 q 167 813 103 735 q 317 913 232 875 q 499 951 403 951 m 281 536 q 322 276 281 375 q 449 131 364 178 q 668 78 533 85 q 695 241 685 147 q 706 394 706 335 q 663 656 706 557 q 535 803 621 756 q 315 856 449 850 q 290 688 300 783 q 281 536 281 592 m 328 1138 l 693 1149 l 679 1069 l 321 1069 l 328 1138 z "},"Ø":{"ha":985,"x_min":33,"x_max":951,"o":"m 499 951 q 737 899 635 951 q 895 743 839 846 q 951 492 951 640 q 918 297 951 397 q 821 118 885 196 q 668 17 754 56 q 485 -21 582 -21 q 248 32 350 -21 q 90 188 146 85 q 33 439 33 290 q 68 633 33 532 q 167 813 103 735 q 317 913 232 875 q 499 951 403 951 m 608 743 q 315 856 518 847 q 290 688 300 783 q 281 536 281 592 q 349 226 281 332 l 608 743 m 383 182 q 668 78 475 86 q 695 241 685 147 q 706 394 706 335 q 642 697 706 592 l 383 182 z "},"Õ":{"ha":985,"x_min":33,"x_max":951,"o":"m 499 951 q 737 899 635 951 q 895 743 839 846 q 951 492 951 640 q 918 297 951 397 q 821 118 885 196 q 668 17 754 56 q 485 -21 582 -21 q 248 32 350 -21 q 90 188 146 85 q 33 439 33 290 q 68 633 33 532 q 167 813 103 735 q 317 913 232 875 q 499 951 403 951 m 281 536 q 322 276 281 375 q 449 131 364 178 q 668 78 533 85 q 695 241 685 147 q 706 394 706 335 q 663 656 706 557 q 535 803 621 756 q 315 856 449 850 q 290 688 300 783 q 281 536 281 592 m 560 1050 q 526 1058 540 1050 q 488 1086 511 1067 q 458 1110 469 1103 q 431 1118 446 1118 q 388 1103 408 1118 q 350 1064 367 1089 l 319 1096 q 378 1178 343 1147 q 454 1210 413 1210 q 488 1201 474 1210 q 526 1174 503 1193 q 556 1149 544 1157 q 583 1142 568 1142 q 626 1156 606 1142 q 664 1196 647 1171 l 694 1164 q 636 1081 671 1113 q 560 1050 601 1050 z "},"Œ":{"ha":1340,"x_min":33,"x_max":1306,"o":"m 1306 276 l 1306 0 l 688 0 q 468 -21 550 -21 q 247 29 344 -21 q 91 183 149 79 q 33 439 33 286 q 69 632 33 531 q 171 813 106 733 q 316 913 238 875 q 482 951 394 951 q 733 926 617 951 l 1278 931 l 1278 661 l 1224 663 l 1221 732 q 900 893 1067 828 l 903 507 l 1163 507 l 1163 456 l 903 456 l 906 38 q 1059 103 988 68 q 1250 206 1131 139 l 1251 275 l 1306 276 m 281 536 q 376 197 281 304 q 658 78 471 90 q 696 408 696 201 q 606 738 696 632 q 324 854 515 844 q 293 688 306 782 q 281 536 281 594 z "},"P":{"ha":858,"x_min":50,"x_max":842,"o":"m 842 658 q 716 426 842 511 q 349 335 590 340 l 349 50 l 500 49 l 500 0 l 50 0 l 50 49 l 118 50 l 118 881 l 50 882 l 50 931 l 318 928 l 525 938 q 697 900 625 938 q 805 799 768 863 q 842 658 842 735 m 594 618 q 563 752 594 692 q 474 847 531 813 q 349 882 418 882 l 349 389 q 529 456 464 396 q 594 618 594 517 z "},"Þ":{"ha":849,"x_min":50,"x_max":840,"o":"m 840 532 q 717 281 840 367 q 349 189 593 194 l 349 50 l 444 49 l 444 0 l 50 0 l 50 49 l 118 50 l 118 881 l 50 882 l 50 931 l 444 931 l 444 882 l 349 881 l 349 778 l 524 792 q 694 753 622 792 q 803 656 767 715 q 840 532 840 596 m 593 475 q 562 603 593 546 q 474 695 531 661 q 349 729 418 729 l 349 243 q 533 306 474 249 q 593 475 593 364 z "},"Q":{"ha":985,"x_min":33,"x_max":1028,"o":"m 369 -90 q 782 -114 539 -114 q 1028 -106 919 -114 l 956 -336 q 627 -269 835 -328 q 290 -147 419 -210 l 290 -61 l 414 -17 q 136 120 239 3 q 33 439 33 238 q 68 633 33 532 q 167 813 103 735 q 317 913 232 875 q 499 951 403 951 q 737 899 635 951 q 895 743 839 846 q 951 492 951 640 q 918 297 951 397 q 821 118 885 196 q 626 1 735 38 l 369 -90 m 281 536 q 322 276 281 375 q 449 131 364 178 q 668 78 533 85 q 695 241 685 147 q 706 394 706 335 q 663 656 706 557 q 535 803 621 756 q 315 856 449 850 q 290 688 300 783 q 281 536 281 592 z "},"R":{"ha":961,"x_min":50,"x_max":958,"o":"m 958 49 l 958 0 l 624 0 l 435 372 l 439 375 q 349 369 407 372 l 349 50 l 417 49 l 417 0 l 50 0 l 50 49 l 118 50 l 118 881 l 50 882 l 50 931 l 318 928 l 525 944 q 697 908 625 944 q 805 809 768 871 q 842 672 842 747 q 792 522 842 586 q 642 419 742 458 l 890 50 l 958 49 m 349 424 q 529 487 464 431 q 594 639 594 543 q 563 763 594 707 q 475 850 531 818 q 349 882 419 882 l 349 424 z "},"Ŕ":{"ha":961,"x_min":50,"x_max":958,"o":"m 958 49 l 958 0 l 624 0 l 435 372 l 439 375 q 349 369 407 372 l 349 50 l 417 49 l 417 0 l 50 0 l 50 49 l 118 50 l 118 881 l 50 882 l 50 931 l 318 928 l 525 944 q 697 908 625 944 q 805 809 768 871 q 842 672 842 747 q 792 522 842 586 q 642 419 742 458 l 890 50 l 958 49 m 349 424 q 529 487 464 431 q 594 639 594 543 q 563 763 594 707 q 475 850 531 818 q 349 882 419 882 l 349 424 m 389 1092 l 622 1278 l 676 1181 l 414 1038 l 389 1092 z "},"Ř":{"ha":961,"x_min":50,"x_max":958,"o":"m 958 49 l 958 0 l 624 0 l 435 372 l 439 375 q 349 369 407 372 l 349 50 l 417 49 l 417 0 l 50 0 l 50 49 l 118 50 l 118 881 l 50 882 l 50 931 l 318 928 l 525 944 q 697 908 625 944 q 805 809 768 871 q 842 672 842 747 q 792 522 842 586 q 642 419 742 458 l 890 50 l 958 49 m 349 424 q 529 487 464 431 q 594 639 594 543 q 563 763 594 707 q 475 850 531 818 q 349 882 419 882 l 349 424 m 286 1181 l 315 1224 l 472 1150 l 629 1224 l 658 1181 l 472 1032 l 286 1181 z "},"Ŗ":{"ha":961,"x_min":50,"x_max":958,"o":"m 958 49 l 958 0 l 624 0 l 435 372 l 439 375 q 349 369 407 372 l 349 50 l 417 49 l 417 0 l 50 0 l 50 49 l 118 50 l 118 881 l 50 882 l 50 931 l 318 928 l 525 944 q 697 908 625 944 q 805 809 768 871 q 842 672 842 747 q 792 522 842 586 q 642 419 742 458 l 890 50 l 958 49 m 349 424 q 529 487 464 431 q 594 639 594 543 q 563 763 594 707 q 475 850 531 818 q 349 882 419 882 l 349 424 m 400 -99 l 535 -74 l 535 -150 l 439 -310 l 399 -314 l 400 -99 z "},"S":{"ha":765,"x_min":22,"x_max":726,"o":"m 301 783 q 326 701 301 739 q 389 635 351 664 q 492 563 426 606 q 614 474 568 513 q 692 383 660 436 q 725 263 725 329 q 685 124 725 189 q 564 19 644 60 q 369 -21 483 -21 q 22 174 125 -21 l 179 294 q 329 28 246 157 l 331 28 q 406 49 371 28 q 461 106 440 71 q 482 179 482 140 q 458 256 482 221 q 397 319 433 292 q 299 385 361 346 q 178 468 224 432 q 99 556 132 504 q 67 676 67 608 q 110 816 67 753 q 235 915 154 879 q 426 951 317 951 q 602 917 533 951 q 726 821 671 883 l 581 674 q 432 903 507 796 q 335 869 369 903 q 301 783 301 835 z "},"Ś":{"ha":765,"x_min":22,"x_max":726,"o":"m 301 783 q 326 701 301 739 q 389 635 351 664 q 492 563 426 606 q 614 474 568 513 q 692 383 660 436 q 725 263 725 329 q 685 124 725 189 q 564 19 644 60 q 369 -21 483 -21 q 22 174 125 -21 l 179 294 q 329 28 246 157 l 331 28 q 406 49 371 28 q 461 106 440 71 q 482 179 482 140 q 458 256 482 221 q 397 319 433 292 q 299 385 361 346 q 178 468 224 432 q 99 556 132 504 q 67 676 67 608 q 110 816 67 753 q 235 915 154 879 q 426 951 317 951 q 602 917 533 951 q 726 821 671 883 l 581 674 q 432 903 507 796 q 335 869 369 903 q 301 783 301 835 m 319 1092 l 553 1278 l 607 1181 l 344 1038 l 319 1092 z "},"Š":{"ha":765,"x_min":22,"x_max":726,"o":"m 301 783 q 326 701 301 739 q 389 635 351 664 q 492 563 426 606 q 614 474 568 513 q 692 383 660 436 q 725 263 725 329 q 685 124 725 189 q 564 19 644 60 q 369 -21 483 -21 q 22 174 125 -21 l 179 294 q 329 28 246 157 l 331 28 q 406 49 371 28 q 461 106 440 71 q 482 179 482 140 q 458 256 482 221 q 397 319 433 292 q 299 385 361 346 q 178 468 224 432 q 99 556 132 504 q 67 676 67 608 q 110 816 67 753 q 235 915 154 879 q 426 951 317 951 q 602 917 533 951 q 726 821 671 883 l 581 674 q 432 903 507 796 q 335 869 369 903 q 301 783 301 835 m 217 1181 l 246 1224 l 403 1150 l 560 1224 l 589 1181 l 403 1032 l 217 1181 z "},"Ş":{"ha":765,"x_min":22,"x_max":726,"o":"m 301 783 q 326 701 301 739 q 389 635 351 664 q 492 563 426 606 q 614 474 568 513 q 692 383 660 436 q 725 263 725 329 q 690 133 725 194 q 585 31 654 72 q 417 -19 515 -11 l 382 -72 q 492 -113 449 -78 q 536 -211 536 -149 q 526 -260 536 -233 q 499 -308 517 -286 q 455 -336 479 -325 q 410 -349 431 -347 q 333 -335 375 -349 q 260 -304 290 -322 l 308 -236 l 421 -312 q 422 -292 422 -306 q 390 -199 422 -235 q 294 -156 357 -162 l 294 -118 l 368 -21 q 22 174 125 -21 l 179 294 q 329 28 246 157 l 331 28 q 406 49 371 28 q 461 106 440 71 q 482 179 482 140 q 458 256 482 221 q 397 319 433 292 q 299 385 361 346 q 178 468 224 432 q 99 556 132 504 q 67 676 67 608 q 110 816 67 753 q 235 915 154 879 q 426 951 317 951 q 602 917 533 951 q 726 821 671 883 l 581 674 q 432 903 507 796 q 335 869 369 903 q 301 783 301 835 z "},"Ș":{"ha":765,"x_min":22,"x_max":726,"o":"m 301 783 q 326 701 301 739 q 389 635 351 664 q 492 563 426 606 q 614 474 568 513 q 692 383 660 436 q 725 263 725 329 q 685 124 725 189 q 564 19 644 60 q 369 -21 483 -21 q 22 174 125 -21 l 179 294 q 329 28 246 157 l 331 28 q 406 49 371 28 q 461 106 440 71 q 482 179 482 140 q 458 256 482 221 q 397 319 433 292 q 299 385 361 346 q 178 468 224 432 q 99 556 132 504 q 67 676 67 608 q 110 816 67 753 q 235 915 154 879 q 426 951 317 951 q 602 917 533 951 q 726 821 671 883 l 581 674 q 432 903 507 796 q 335 869 369 903 q 301 783 301 835 m 289 -99 l 424 -74 l 424 -150 l 328 -310 l 288 -314 l 289 -99 z "},"T":{"ha":825,"x_min":3,"x_max":822,"o":"m 822 931 l 822 661 l 768 663 l 765 732 q 528 883 622 835 l 528 50 l 638 49 l 638 0 l 188 0 l 188 49 l 297 50 l 297 883 q 60 732 203 835 l 57 663 l 3 661 l 3 931 l 822 931 z "},"Ť":{"ha":825,"x_min":3,"x_max":822,"o":"m 822 931 l 822 661 l 768 663 l 765 732 q 528 883 622 835 l 528 50 l 638 49 l 638 0 l 188 0 l 188 49 l 297 50 l 297 883 q 60 732 203 835 l 57 663 l 3 661 l 3 931 l 822 931 m 225 1181 l 254 1224 l 411 1150 l 568 1224 l 597 1181 l 411 1032 l 225 1181 z "},"Ţ":{"ha":825,"x_min":3,"x_max":822,"o":"m 822 931 l 822 661 l 768 663 l 765 732 q 528 883 622 835 l 528 50 l 638 49 l 638 0 l 449 0 l 401 -72 q 512 -113 468 -78 q 556 -211 556 -149 q 546 -260 556 -233 q 518 -308 536 -286 q 474 -336 499 -325 q 429 -349 450 -347 q 352 -335 394 -349 q 279 -304 310 -322 l 328 -236 l 440 -312 q 442 -292 442 -306 q 409 -199 442 -235 q 314 -156 376 -162 l 314 -118 l 403 0 l 188 0 l 188 49 l 297 50 l 297 883 q 60 732 203 835 l 57 663 l 3 661 l 3 931 l 822 931 z "},"Ț":{"ha":825,"x_min":3,"x_max":822,"o":"m 822 931 l 822 661 l 768 663 l 765 732 q 528 883 622 835 l 528 50 l 638 49 l 638 0 l 188 0 l 188 49 l 297 50 l 297 883 q 60 732 203 835 l 57 663 l 3 661 l 3 931 l 822 931 m 346 -99 l 481 -74 l 481 -150 l 385 -310 l 344 -314 l 346 -99 z "},"U":{"ha":1008,"x_min":36,"x_max":972,"o":"m 972 931 l 972 882 l 904 881 l 904 0 l 860 0 l 682 117 q 558 17 631 54 q 407 -21 486 -21 q 183 71 263 -21 q 104 356 104 163 l 104 881 l 36 882 l 36 931 l 407 931 l 407 882 l 339 881 l 339 390 q 392 199 339 263 q 536 136 444 136 q 674 168 614 136 l 674 881 l 606 882 l 606 931 l 972 931 z "},"Ú":{"ha":1008,"x_min":36,"x_max":972,"o":"m 972 931 l 972 882 l 904 881 l 904 0 l 860 0 l 682 117 q 558 17 631 54 q 407 -21 486 -21 q 183 71 263 -21 q 104 356 104 163 l 104 881 l 36 882 l 36 931 l 407 931 l 407 882 l 339 881 l 339 390 q 392 199 339 263 q 536 136 444 136 q 674 168 614 136 l 674 881 l 606 882 l 606 931 l 972 931 m 428 1092 l 661 1278 l 715 1181 l 453 1038 l 428 1092 z "},"Û":{"ha":1008,"x_min":36,"x_max":972,"o":"m 972 931 l 972 882 l 904 881 l 904 0 l 860 0 l 682 117 q 558 17 631 54 q 407 -21 486 -21 q 183 71 263 -21 q 104 356 104 163 l 104 881 l 36 882 l 36 931 l 407 931 l 407 882 l 339 881 l 339 390 q 392 199 339 263 q 536 136 444 136 q 674 168 614 136 l 674 881 l 606 882 l 606 931 l 972 931 m 325 1085 l 511 1233 l 697 1085 l 668 1042 l 511 1115 l 354 1042 l 325 1085 z "},"Ü":{"ha":1008,"x_min":36,"x_max":972,"o":"m 972 931 l 972 882 l 904 881 l 904 0 l 860 0 l 682 117 q 558 17 631 54 q 407 -21 486 -21 q 183 71 263 -21 q 104 356 104 163 l 104 881 l 36 882 l 36 931 l 407 931 l 407 882 l 339 881 l 339 390 q 392 199 339 263 q 536 136 444 136 q 674 168 614 136 l 674 881 l 606 882 l 606 931 l 972 931 m 329 1171 l 468 1200 l 468 1072 l 329 1053 l 329 1171 m 554 1171 l 693 1200 l 693 1072 l 554 1053 l 554 1171 z "},"Ù":{"ha":1008,"x_min":36,"x_max":972,"o":"m 972 931 l 972 882 l 904 881 l 904 0 l 860 0 l 682 117 q 558 17 631 54 q 407 -21 486 -21 q 183 71 263 -21 q 104 356 104 163 l 104 881 l 36 882 l 36 931 l 407 931 l 407 882 l 339 881 l 339 390 q 392 199 339 263 q 536 136 444 136 q 674 168 614 136 l 674 881 l 606 882 l 606 931 l 972 931 m 328 1178 l 382 1275 l 615 1089 l 590 1035 l 328 1178 z "},"Ű":{"ha":1008,"x_min":36,"x_max":972,"o":"m 972 931 l 972 882 l 904 881 l 904 0 l 860 0 l 682 117 q 558 17 631 54 q 407 -21 486 -21 q 183 71 263 -21 q 104 356 104 163 l 104 881 l 36 882 l 36 931 l 407 931 l 407 882 l 339 881 l 339 390 q 392 199 339 263 q 536 136 444 136 q 674 168 614 136 l 674 881 l 606 882 l 606 931 l 972 931 m 392 1032 l 503 1228 l 608 1236 l 458 1022 l 392 1032 m 538 1032 l 649 1228 l 754 1236 l 604 1022 l 538 1032 z "},"Ū":{"ha":1008,"x_min":36,"x_max":972,"o":"m 972 931 l 972 882 l 904 881 l 904 0 l 860 0 l 682 117 q 558 17 631 54 q 407 -21 486 -21 q 183 71 263 -21 q 104 356 104 163 l 104 881 l 36 882 l 36 931 l 407 931 l 407 882 l 339 881 l 339 390 q 392 199 339 263 q 536 136 444 136 q 674 168 614 136 l 674 881 l 606 882 l 606 931 l 972 931 m 332 1138 l 697 1149 l 683 1069 l 325 1069 l 332 1138 z "},"Ų":{"ha":1008,"x_min":36,"x_max":972,"o":"m 904 0 q 836 -70 861 -29 q 811 -156 811 -111 q 832 -218 811 -194 q 886 -242 853 -242 q 915 -239 904 -242 l 926 -275 q 801 -321 872 -321 q 701 -288 740 -321 q 663 -194 663 -256 q 690 -119 663 -160 q 759 -45 717 -78 q 842 0 801 -12 l 843 0 l 682 117 q 557 16 629 53 q 407 -21 485 -21 q 183 71 263 -21 q 104 356 104 163 l 104 881 l 36 882 l 36 931 l 407 931 l 407 882 l 339 881 l 339 390 q 392 199 339 263 q 536 136 444 136 q 674 168 614 136 l 674 881 l 606 882 l 606 931 l 972 931 l 972 882 l 904 881 l 904 0 z "},"Ů":{"ha":1008,"x_min":36,"x_max":972,"o":"m 972 931 l 972 882 l 904 881 l 904 0 l 860 0 l 682 117 q 558 17 631 54 q 407 -21 486 -21 q 183 71 263 -21 q 104 356 104 163 l 104 881 l 36 882 l 36 931 l 407 931 l 407 882 l 339 881 l 339 390 q 392 199 339 263 q 536 136 444 136 q 674 168 614 136 l 674 881 l 606 882 l 606 931 l 972 931 m 513 1024 q 410 1064 447 1024 q 372 1164 372 1104 q 410 1263 372 1224 q 513 1303 447 1303 q 614 1263 576 1303 q 651 1164 651 1224 q 614 1064 651 1104 q 513 1024 576 1024 m 513 1075 q 576 1099 551 1075 q 600 1164 600 1124 q 576 1227 600 1203 q 513 1251 551 1251 q 449 1227 474 1251 q 425 1164 425 1203 q 449 1099 425 1124 q 513 1075 474 1075 z "},"V":{"ha":929,"x_min":3,"x_max":926,"o":"m 926 931 l 926 882 l 868 881 l 543 11 l 363 -12 l 61 881 l 3 882 l 3 931 l 425 931 l 425 882 l 343 881 l 528 165 l 693 881 l 611 882 l 611 931 l 926 931 z "},"W":{"ha":1442,"x_min":3,"x_max":1439,"o":"m 1439 931 l 1439 882 l 1381 881 l 1092 11 l 911 -12 l 724 642 l 519 11 l 339 -12 l 61 881 l 3 882 l 3 931 l 411 931 l 411 882 l 343 881 l 504 175 l 640 881 l 572 882 l 572 931 l 976 931 l 976 882 l 908 881 l 1075 175 l 1206 881 l 1135 882 l 1135 931 l 1439 931 z "},"Ẃ":{"ha":1442,"x_min":3,"x_max":1439,"o":"m 1439 931 l 1439 882 l 1381 881 l 1092 11 l 911 -12 l 724 642 l 519 11 l 339 -12 l 61 881 l 3 882 l 3 931 l 411 931 l 411 882 l 343 881 l 504 175 l 640 881 l 572 882 l 572 931 l 976 931 l 976 882 l 908 881 l 1075 175 l 1206 881 l 1135 882 l 1135 931 l 1439 931 m 710 1092 l 943 1278 l 997 1181 l 735 1038 l 710 1092 z "},"Ŵ":{"ha":1442,"x_min":3,"x_max":1439,"o":"m 1439 931 l 1439 882 l 1381 881 l 1092 11 l 911 -12 l 724 642 l 519 11 l 339 -12 l 61 881 l 3 882 l 3 931 l 411 931 l 411 882 l 343 881 l 504 175 l 640 881 l 572 882 l 572 931 l 976 931 l 976 882 l 908 881 l 1075 175 l 1206 881 l 1135 882 l 1135 931 l 1439 931 m 607 1085 l 793 1233 l 979 1085 l 950 1042 l 793 1115 l 636 1042 l 607 1085 z "},"Ẅ":{"ha":1442,"x_min":3,"x_max":1439,"o":"m 1439 931 l 1439 882 l 1381 881 l 1092 11 l 911 -12 l 724 642 l 519 11 l 339 -12 l 61 881 l 3 882 l 3 931 l 411 931 l 411 882 l 343 881 l 504 175 l 640 881 l 572 882 l 572 931 l 976 931 l 976 882 l 908 881 l 1075 175 l 1206 881 l 1135 882 l 1135 931 l 1439 931 m 611 1171 l 750 1200 l 750 1072 l 611 1053 l 611 1171 m 836 1171 l 975 1200 l 975 1072 l 836 1053 l 836 1171 z "},"Ẁ":{"ha":1442,"x_min":3,"x_max":1439,"o":"m 1439 931 l 1439 882 l 1381 881 l 1092 11 l 911 -12 l 724 642 l 519 11 l 339 -12 l 61 881 l 3 882 l 3 931 l 411 931 l 411 882 l 343 881 l 504 175 l 640 881 l 572 882 l 572 931 l 976 931 l 976 882 l 908 881 l 1075 175 l 1206 881 l 1135 882 l 1135 931 l 1439 931 m 610 1178 l 664 1275 l 897 1089 l 872 1035 l 610 1178 z "},"X":{"ha":893,"x_min":3,"x_max":890,"o":"m 890 49 l 890 0 l 486 0 l 486 49 l 554 50 l 364 385 l 256 50 l 344 49 l 344 0 l 3 0 l 3 49 l 75 50 l 326 450 l 82 881 l 14 882 l 14 931 l 432 931 l 432 882 l 364 881 l 522 603 l 640 881 l 551 882 l 551 931 l 872 931 l 872 882 l 814 881 l 556 544 l 836 50 l 890 49 z "},"Y":{"ha":883,"x_min":3,"x_max":881,"o":"m 881 931 l 881 882 l 822 881 l 557 397 l 557 50 l 625 49 l 625 0 l 258 0 l 258 49 l 326 50 l 326 376 l 61 881 l 3 882 l 3 931 l 411 931 l 411 882 l 343 881 l 519 478 l 647 881 l 576 882 l 576 931 l 881 931 z "},"Ý":{"ha":883,"x_min":3,"x_max":881,"o":"m 881 931 l 881 882 l 822 881 l 557 397 l 557 50 l 625 49 l 625 0 l 258 0 l 258 49 l 326 50 l 326 376 l 61 881 l 3 882 l 3 931 l 411 931 l 411 882 l 343 881 l 519 478 l 647 881 l 576 882 l 576 931 l 881 931 m 414 1092 l 647 1278 l 701 1181 l 439 1038 l 414 1092 z "},"Ŷ":{"ha":883,"x_min":3,"x_max":881,"o":"m 881 931 l 881 882 l 822 881 l 557 397 l 557 50 l 625 49 l 625 0 l 258 0 l 258 49 l 326 50 l 326 376 l 61 881 l 3 882 l 3 931 l 411 931 l 411 882 l 343 881 l 519 478 l 647 881 l 576 882 l 576 931 l 881 931 m 311 1085 l 497 1233 l 683 1085 l 654 1042 l 497 1115 l 340 1042 l 311 1085 z "},"Ÿ":{"ha":883,"x_min":3,"x_max":881,"o":"m 881 931 l 881 882 l 822 881 l 557 397 l 557 50 l 625 49 l 625 0 l 258 0 l 258 49 l 326 50 l 326 376 l 61 881 l 3 882 l 3 931 l 411 931 l 411 882 l 343 881 l 519 478 l 647 881 l 576 882 l 576 931 l 881 931 m 315 1171 l 454 1200 l 454 1072 l 315 1053 l 315 1171 m 540 1171 l 679 1200 l 679 1072 l 540 1053 l 540 1171 z "},"Ỳ":{"ha":883,"x_min":3,"x_max":881,"o":"m 881 931 l 881 882 l 822 881 l 557 397 l 557 50 l 625 49 l 625 0 l 258 0 l 258 49 l 326 50 l 326 376 l 61 881 l 3 882 l 3 931 l 411 931 l 411 882 l 343 881 l 519 478 l 647 881 l 576 882 l 576 931 l 881 931 m 314 1178 l 368 1275 l 601 1089 l 576 1035 l 314 1178 z "},"Z":{"ha":772,"x_min":28,"x_max":751,"o":"m 751 274 l 751 0 l 28 0 l 28 47 l 478 893 q 110 735 304 832 l 107 665 l 53 664 l 53 931 l 733 931 l 733 869 l 292 36 q 694 203 488 101 l 697 272 l 751 274 z "},"Ź":{"ha":772,"x_min":28,"x_max":751,"o":"m 751 274 l 751 0 l 28 0 l 28 47 l 478 893 q 110 735 304 832 l 107 665 l 53 664 l 53 931 l 733 931 l 733 869 l 292 36 q 694 203 488 101 l 697 272 l 751 274 m 328 1092 l 561 1278 l 615 1181 l 353 1038 l 328 1092 z "},"Ž":{"ha":772,"x_min":28,"x_max":751,"o":"m 751 274 l 751 0 l 28 0 l 28 47 l 478 893 q 110 735 304 832 l 107 665 l 53 664 l 53 931 l 733 931 l 733 869 l 292 36 q 694 203 488 101 l 697 272 l 751 274 m 225 1181 l 254 1224 l 411 1150 l 568 1224 l 597 1181 l 411 1032 l 225 1181 z "},"Ż":{"ha":772,"x_min":28,"x_max":751,"o":"m 751 274 l 751 0 l 28 0 l 28 47 l 478 893 q 110 735 304 832 l 107 665 l 53 664 l 53 931 l 733 931 l 733 869 l 292 36 q 694 203 488 101 l 697 272 l 751 274 m 338 1156 l 485 1189 l 485 1058 l 338 1038 l 338 1156 z "},"a":{"ha":594,"x_min":21,"x_max":594,"o":"m 594 72 l 390 -24 q 339 49 353 3 q 238 -1 289 18 q 150 -21 188 -21 q 57 19 93 -21 q 21 122 21 60 q 27 183 21 150 q 43 235 33 215 l 338 282 l 340 322 q 314 420 343 385 q 219 456 285 456 q 158 449 190 456 q 104 433 126 443 l 82 386 l 44 400 l 108 600 q 311 646 215 646 q 472 594 410 646 q 535 431 535 542 l 533 403 l 519 215 l 517 165 q 521 126 517 140 q 535 96 525 111 l 578 113 l 594 72 m 279 79 q 331 96 301 79 l 329 125 l 331 156 l 335 235 l 228 210 q 222 161 222 192 q 239 99 222 119 q 279 79 256 79 z "},"á":{"ha":594,"x_min":21,"x_max":594,"o":"m 594 72 l 390 -24 q 339 49 353 3 q 238 -1 289 18 q 150 -21 188 -21 q 57 19 93 -21 q 21 122 21 60 q 27 183 21 150 q 43 235 33 215 l 338 282 l 340 322 q 314 420 343 385 q 219 456 285 456 q 158 449 190 456 q 104 433 126 443 l 82 386 l 44 400 l 108 600 q 311 646 215 646 q 472 594 410 646 q 535 431 535 542 l 533 403 l 519 215 l 517 165 q 521 126 517 140 q 535 96 525 111 l 578 113 l 594 72 m 279 79 q 331 96 301 79 l 329 125 l 331 156 l 335 235 l 228 210 q 222 161 222 192 q 239 99 222 119 q 279 79 256 79 m 160 786 l 393 972 l 447 875 l 185 732 l 160 786 z "},"ă":{"ha":594,"x_min":21,"x_max":594,"o":"m 594 72 l 390 -24 q 339 49 353 3 q 238 -1 289 18 q 150 -21 188 -21 q 57 19 93 -21 q 21 122 21 60 q 27 183 21 150 q 43 235 33 215 l 338 282 l 340 322 q 314 420 343 385 q 219 456 285 456 q 158 449 190 456 q 104 433 126 443 l 82 386 l 44 400 l 108 600 q 311 646 215 646 q 472 594 410 646 q 535 431 535 542 l 533 403 l 519 215 l 517 165 q 521 126 517 140 q 535 96 525 111 l 578 113 l 594 72 m 279 79 q 331 96 301 79 l 329 125 l 331 156 l 335 235 l 228 210 q 222 161 222 192 q 239 99 222 119 q 279 79 256 79 m 304 779 q 193 815 246 779 q 103 914 140 851 l 138 953 q 214 904 171 922 q 304 886 257 886 q 394 904 351 886 q 471 953 438 922 l 506 914 q 415 815 468 851 q 304 779 363 779 z "},"â":{"ha":594,"x_min":21,"x_max":594,"o":"m 594 72 l 390 -24 q 339 49 353 3 q 238 -1 289 18 q 150 -21 188 -21 q 57 19 93 -21 q 21 122 21 60 q 27 183 21 150 q 43 235 33 215 l 338 282 l 340 322 q 314 420 343 385 q 219 456 285 456 q 158 449 190 456 q 104 433 126 443 l 82 386 l 44 400 l 108 600 q 311 646 215 646 q 472 594 410 646 q 535 431 535 542 l 533 403 l 519 215 l 517 165 q 521 126 517 140 q 535 96 525 111 l 578 113 l 594 72 m 279 79 q 331 96 301 79 l 329 125 l 331 156 l 335 235 l 228 210 q 222 161 222 192 q 239 99 222 119 q 279 79 256 79 m 118 813 l 304 961 l 490 813 l 461 769 l 304 843 l 147 769 l 118 813 z "},"ä":{"ha":594,"x_min":21,"x_max":594,"o":"m 594 72 l 390 -24 q 339 49 353 3 q 238 -1 289 18 q 150 -21 188 -21 q 57 19 93 -21 q 21 122 21 60 q 27 183 21 150 q 43 235 33 215 l 338 282 l 340 322 q 314 420 343 385 q 219 456 285 456 q 158 449 190 456 q 104 433 126 443 l 82 386 l 44 400 l 108 600 q 311 646 215 646 q 472 594 410 646 q 535 431 535 542 l 533 403 l 519 215 l 517 165 q 521 126 517 140 q 535 96 525 111 l 578 113 l 594 72 m 279 79 q 331 96 301 79 l 329 125 l 331 156 l 335 235 l 228 210 q 222 161 222 192 q 239 99 222 119 q 279 79 256 79 m 122 899 l 261 928 l 261 800 l 122 781 l 122 899 m 347 899 l 486 928 l 486 800 l 347 781 l 347 899 z "},"à":{"ha":594,"x_min":21,"x_max":594,"o":"m 594 72 l 390 -24 q 339 49 353 3 q 238 -1 289 18 q 150 -21 188 -21 q 57 19 93 -21 q 21 122 21 60 q 27 183 21 150 q 43 235 33 215 l 338 282 l 340 322 q 314 420 343 385 q 219 456 285 456 q 158 449 190 456 q 104 433 126 443 l 82 386 l 44 400 l 108 600 q 311 646 215 646 q 472 594 410 646 q 535 431 535 542 l 533 403 l 519 215 l 517 165 q 521 126 517 140 q 535 96 525 111 l 578 113 l 594 72 m 279 79 q 331 96 301 79 l 329 125 l 331 156 l 335 235 l 228 210 q 222 161 222 192 q 239 99 222 119 q 279 79 256 79 m 161 875 l 215 972 l 449 786 l 424 732 l 161 875 z "},"ā":{"ha":594,"x_min":21,"x_max":594,"o":"m 594 72 l 390 -24 q 339 49 353 3 q 238 -1 289 18 q 150 -21 188 -21 q 57 19 93 -21 q 21 122 21 60 q 27 183 21 150 q 43 235 33 215 l 338 282 l 340 322 q 314 420 343 385 q 219 456 285 456 q 158 449 190 456 q 104 433 126 443 l 82 386 l 44 400 l 108 600 q 311 646 215 646 q 472 594 410 646 q 535 431 535 542 l 533 403 l 519 215 l 517 165 q 521 126 517 140 q 535 96 525 111 l 578 113 l 594 72 m 279 79 q 331 96 301 79 l 329 125 l 331 156 l 335 235 l 228 210 q 222 161 222 192 q 239 99 222 119 q 279 79 256 79 m 125 865 l 490 876 l 476 797 l 118 797 l 125 865 z "},"ą":{"ha":594,"x_min":21,"x_max":594,"o":"m 504 -203 q 533 -200 522 -203 l 544 -236 q 419 -282 490 -282 q 319 -249 358 -282 q 281 -156 281 -217 q 307 -81 281 -121 q 374 -10 333 -42 q 339 49 349 15 q 238 -1 289 18 q 150 -21 188 -21 q 57 19 93 -21 q 21 122 21 60 q 27 183 21 150 q 43 235 33 215 l 338 282 l 340 322 q 314 420 343 385 q 219 456 285 456 q 158 449 190 456 q 104 433 126 443 l 82 386 l 44 400 l 108 600 q 311 646 215 646 q 472 594 410 646 q 535 431 535 542 l 533 403 l 519 215 l 517 165 q 521 126 517 140 q 535 96 525 111 l 578 113 l 594 72 l 519 38 q 453 -33 478 8 q 429 -117 429 -74 q 450 -179 429 -156 q 504 -203 471 -203 m 279 79 q 331 96 301 79 l 329 125 l 331 156 l 335 235 l 228 210 q 222 161 222 192 q 239 99 222 119 q 279 79 256 79 z "},"å":{"ha":594,"x_min":21,"x_max":594,"o":"m 594 72 l 390 -24 q 339 49 353 3 q 238 -1 289 18 q 150 -21 188 -21 q 57 19 93 -21 q 21 122 21 60 q 27 183 21 150 q 43 235 33 215 l 338 282 l 340 322 q 314 420 343 385 q 219 456 285 456 q 158 449 190 456 q 104 433 126 443 l 82 386 l 44 400 l 108 600 q 311 646 215 646 q 472 594 410 646 q 535 431 535 542 l 533 403 l 519 215 l 517 165 q 521 126 517 140 q 535 96 525 111 l 578 113 l 594 72 m 279 79 q 331 96 301 79 l 329 125 l 331 156 l 335 235 l 228 210 q 222 161 222 192 q 239 99 222 119 q 279 79 256 79 m 306 751 q 203 792 240 751 q 165 892 165 832 q 203 991 165 951 q 306 1031 240 1031 q 407 991 369 1031 q 444 892 444 951 q 407 792 444 832 q 306 751 369 751 m 306 803 q 369 827 344 803 q 393 892 393 851 q 369 955 393 931 q 306 979 344 979 q 242 955 267 979 q 218 892 218 931 q 242 827 218 851 q 306 803 267 803 z "},"ã":{"ha":594,"x_min":21,"x_max":594,"o":"m 594 72 l 390 -24 q 339 49 353 3 q 238 -1 289 18 q 150 -21 188 -21 q 57 19 93 -21 q 21 122 21 60 q 27 183 21 150 q 43 235 33 215 l 338 282 l 340 322 q 314 420 343 385 q 219 456 285 456 q 158 449 190 456 q 104 433 126 443 l 82 386 l 44 400 l 108 600 q 311 646 215 646 q 472 594 410 646 q 535 431 535 542 l 533 403 l 519 215 l 517 165 q 521 126 517 140 q 535 96 525 111 l 578 113 l 594 72 m 279 79 q 331 96 301 79 l 329 125 l 331 156 l 335 235 l 228 210 q 222 161 222 192 q 239 99 222 119 q 279 79 256 79 m 357 778 q 323 786 338 778 q 285 814 308 794 q 255 838 267 831 q 228 846 243 846 q 185 831 206 846 q 147 792 164 817 l 117 824 q 175 906 140 875 q 251 938 210 938 q 285 929 271 938 q 324 901 300 921 q 353 877 342 885 q 381 869 365 869 q 424 884 403 869 q 461 924 444 899 l 492 892 q 433 809 468 840 q 357 778 399 778 z "},"æ":{"ha":910,"x_min":22,"x_max":897,"o":"m 646 646 q 829 558 761 646 q 896 319 897 469 l 518 306 q 724 143 540 143 q 868 185 800 143 l 893 163 q 767 28 843 78 q 604 -21 690 -21 q 390 65 460 -21 q 269 3 338 28 q 151 -21 201 -21 q 58 19 94 -21 q 22 122 22 60 q 28 183 22 150 q 44 235 35 215 l 335 282 l 335 290 l 335 290 q 310 416 336 376 q 217 456 283 456 q 158 449 189 456 q 106 433 128 443 l 83 386 l 46 400 l 110 600 q 308 646 217 646 q 461 594 406 646 q 646 646 531 646 m 678 365 q 654 510 676 450 q 597 586 632 571 q 538 485 561 549 q 515 354 515 421 l 515 351 l 678 365 m 279 79 q 365 106 325 79 q 335 235 339 158 l 229 210 q 224 161 224 192 q 238 101 224 122 q 279 79 253 79 z "},"b":{"ha":700,"x_min":8,"x_max":683,"o":"m 410 646 q 552 609 490 646 q 649 508 614 572 q 683 361 683 443 q 660 211 683 290 q 603 88 636 132 q 507 15 576 50 q 390 -21 438 -21 q 228 2 328 -21 q 79 51 128 25 l 75 876 l 22 865 l 8 906 l 265 983 l 285 950 l 279 493 l 410 646 m 449 85 q 483 278 483 164 q 463 389 483 342 q 408 461 442 436 q 335 486 374 486 l 279 431 l 275 143 q 449 85 369 100 z "},"c":{"ha":603,"x_min":31,"x_max":600,"o":"m 408 139 q 576 201 494 139 l 599 176 q 470 33 547 88 q 304 -21 393 -21 q 105 63 179 -21 q 31 290 31 147 q 65 458 31 375 q 154 597 100 542 q 253 633 201 621 q 351 646 304 646 q 497 601 433 646 q 600 472 561 557 l 440 379 q 381 506 418 442 q 315 593 343 569 q 253 492 279 558 q 228 357 228 426 q 275 194 228 250 q 408 139 322 139 z "},"ć":{"ha":603,"x_min":31,"x_max":600,"o":"m 408 139 q 576 201 494 139 l 599 176 q 470 33 547 88 q 304 -21 393 -21 q 105 63 179 -21 q 31 290 31 147 q 65 458 31 375 q 154 597 100 542 q 253 633 201 621 q 351 646 304 646 q 497 601 433 646 q 600 472 561 557 l 440 379 q 381 506 418 442 q 315 593 343 569 q 253 492 279 558 q 228 357 228 426 q 275 194 228 250 q 408 139 322 139 m 199 786 l 432 972 l 486 875 l 224 732 l 199 786 z "},"č":{"ha":603,"x_min":31,"x_max":600,"o":"m 408 139 q 576 201 494 139 l 599 176 q 470 33 547 88 q 304 -21 393 -21 q 105 63 179 -21 q 31 290 31 147 q 65 458 31 375 q 154 597 100 542 q 253 633 201 621 q 351 646 304 646 q 497 601 433 646 q 600 472 561 557 l 440 379 q 381 506 418 442 q 315 593 343 569 q 253 492 279 558 q 228 357 228 426 q 275 194 228 250 q 408 139 322 139 m 157 908 l 186 951 l 343 878 l 500 951 l 529 908 l 343 760 l 157 908 z "},"ç":{"ha":603,"x_min":31,"x_max":600,"o":"m 408 139 q 576 201 494 139 l 599 176 q 490 48 554 99 q 353 -17 426 -3 l 315 -72 q 426 -113 382 -78 q 469 -211 469 -149 q 460 -260 469 -233 q 432 -308 450 -286 q 388 -336 413 -325 q 343 -349 364 -347 q 266 -335 308 -349 q 193 -304 224 -322 l 242 -236 l 354 -312 q 356 -292 356 -306 q 323 -199 356 -235 q 228 -156 290 -162 l 228 -118 l 301 -21 q 104 65 178 -19 q 31 290 31 149 q 65 458 31 375 q 154 597 100 542 q 253 633 201 621 q 351 646 304 646 q 497 601 433 646 q 600 472 561 557 l 440 379 q 381 506 418 442 q 315 593 343 569 q 253 492 279 558 q 228 357 228 426 q 275 194 228 250 q 408 139 322 139 z "},"d":{"ha":725,"x_min":31,"x_max":719,"o":"m 719 96 l 517 -14 q 462 45 479 8 q 442 140 444 82 l 304 -21 q 162 16 224 -21 q 65 117 100 53 q 31 264 31 182 q 54 414 31 335 q 111 538 78 493 q 207 610 138 575 q 324 646 276 646 q 438 632 365 646 l 435 876 l 382 865 l 368 906 l 625 983 l 644 950 l 636 231 q 642 156 636 181 q 661 114 647 132 l 703 133 l 719 96 m 231 347 q 251 236 231 283 q 306 164 272 189 q 379 139 340 139 l 442 201 l 439 482 q 265 540 349 525 q 231 347 231 461 z "},"ð":{"ha":696,"x_min":31,"x_max":679,"o":"m 433 847 q 613 628 546 757 q 679 372 679 500 q 581 75 679 182 q 474 6 536 32 q 346 -21 413 -21 q 117 58 203 -21 q 31 288 31 138 q 54 406 31 344 q 122 522 78 468 q 251 590 178 563 q 404 619 325 617 q 317 767 367 701 l 201 685 l 176 732 l 281 810 q 131 931 217 882 l 142 979 q 381 885 269 958 l 501 975 l 528 914 l 433 847 m 231 354 q 287 166 231 226 q 454 96 343 106 q 471 308 471 182 q 446 499 471 407 q 254 507 333 508 q 237 424 243 468 q 231 354 231 381 z "},"e":{"ha":626,"x_min":31,"x_max":614,"o":"m 351 646 q 544 558 474 646 q 613 319 614 469 l 229 307 q 286 182 239 225 q 411 139 333 139 q 588 199 519 139 l 613 176 q 481 31 564 83 q 306 -21 399 -21 q 105 63 179 -21 q 31 290 31 147 q 65 458 31 375 q 151 597 99 542 q 244 632 188 618 q 351 646 301 646 m 407 365 q 379 519 406 463 q 304 588 353 576 q 248 487 269 551 q 226 354 226 422 l 226 350 l 407 365 z "},"é":{"ha":626,"x_min":31,"x_max":614,"o":"m 351 646 q 544 558 474 646 q 613 319 614 469 l 229 307 q 286 182 239 225 q 411 139 333 139 q 588 199 519 139 l 613 176 q 481 31 564 83 q 306 -21 399 -21 q 105 63 179 -21 q 31 290 31 147 q 65 458 31 375 q 151 597 99 542 q 244 632 188 618 q 351 646 301 646 m 407 365 q 379 519 406 463 q 304 588 353 576 q 248 487 269 551 q 226 354 226 422 l 226 350 l 407 365 m 190 786 l 424 972 l 478 875 l 215 732 l 190 786 z "},"ě":{"ha":626,"x_min":31,"x_max":614,"o":"m 351 646 q 544 558 474 646 q 613 319 614 469 l 229 307 q 286 182 239 225 q 411 139 333 139 q 588 199 519 139 l 613 176 q 481 31 564 83 q 306 -21 399 -21 q 105 63 179 -21 q 31 290 31 147 q 65 458 31 375 q 151 597 99 542 q 244 632 188 618 q 351 646 301 646 m 407 365 q 379 519 406 463 q 304 588 353 576 q 248 487 269 551 q 226 354 226 422 l 226 350 l 407 365 m 149 908 l 178 951 l 335 878 l 492 951 l 521 908 l 335 760 l 149 908 z "},"ê":{"ha":626,"x_min":31,"x_max":614,"o":"m 351 646 q 544 558 474 646 q 613 319 614 469 l 229 307 q 286 182 239 225 q 411 139 333 139 q 588 199 519 139 l 613 176 q 481 31 564 83 q 306 -21 399 -21 q 105 63 179 -21 q 31 290 31 147 q 65 458 31 375 q 151 597 99 542 q 244 632 188 618 q 351 646 301 646 m 407 365 q 379 519 406 463 q 304 588 353 576 q 248 487 269 551 q 226 354 226 422 l 226 350 l 407 365 m 149 813 l 335 961 l 521 813 l 492 769 l 335 843 l 178 769 l 149 813 z "},"ë":{"ha":626,"x_min":31,"x_max":614,"o":"m 351 646 q 544 558 474 646 q 613 319 614 469 l 229 307 q 286 182 239 225 q 411 139 333 139 q 588 199 519 139 l 613 176 q 481 31 564 83 q 306 -21 399 -21 q 105 63 179 -21 q 31 290 31 147 q 65 458 31 375 q 151 597 99 542 q 244 632 188 618 q 351 646 301 646 m 407 365 q 379 519 406 463 q 304 588 353 576 q 248 487 269 551 q 226 354 226 422 l 226 350 l 407 365 m 153 899 l 292 928 l 292 800 l 153 781 l 153 899 m 378 899 l 517 928 l 517 800 l 378 781 l 378 899 z "},"ė":{"ha":626,"x_min":31,"x_max":614,"o":"m 351 646 q 544 558 474 646 q 613 319 614 469 l 229 307 q 286 182 239 225 q 411 139 333 139 q 588 199 519 139 l 613 176 q 481 31 564 83 q 306 -21 399 -21 q 105 63 179 -21 q 31 290 31 147 q 65 458 31 375 q 151 597 99 542 q 244 632 188 618 q 351 646 301 646 m 407 365 q 379 519 406 463 q 304 588 353 576 q 248 487 269 551 q 226 354 226 422 l 226 350 l 407 365 m 261 883 l 408 917 l 408 786 l 261 765 l 261 883 z "},"è":{"ha":626,"x_min":31,"x_max":614,"o":"m 351 646 q 544 558 474 646 q 613 319 614 469 l 229 307 q 286 182 239 225 q 411 139 333 139 q 588 199 519 139 l 613 176 q 481 31 564 83 q 306 -21 399 -21 q 105 63 179 -21 q 31 290 31 147 q 65 458 31 375 q 151 597 99 542 q 244 632 188 618 q 351 646 301 646 m 407 365 q 379 519 406 463 q 304 588 353 576 q 248 487 269 551 q 226 354 226 422 l 226 350 l 407 365 m 192 875 l 246 972 l 479 786 l 454 732 l 192 875 z "},"ē":{"ha":626,"x_min":31,"x_max":614,"o":"m 351 646 q 544 558 474 646 q 613 319 614 469 l 229 307 q 286 182 239 225 q 411 139 333 139 q 588 199 519 139 l 613 176 q 481 31 564 83 q 306 -21 399 -21 q 105 63 179 -21 q 31 290 31 147 q 65 458 31 375 q 151 597 99 542 q 244 632 188 618 q 351 646 301 646 m 407 365 q 379 519 406 463 q 304 588 353 576 q 248 487 269 551 q 226 354 226 422 l 226 350 l 407 365 m 156 865 l 521 876 l 507 797 l 149 797 l 156 865 z "},"ę":{"ha":626,"x_min":31,"x_max":614,"o":"m 351 646 q 544 558 474 646 q 613 319 614 469 l 229 307 q 290 182 240 225 q 424 139 339 139 q 593 167 514 139 l 607 139 q 486 35 538 69 q 425 -33 447 6 q 403 -114 403 -72 q 424 -176 403 -153 q 478 -200 444 -200 q 507 -197 496 -200 l 518 -233 q 393 -279 464 -279 q 293 -247 332 -279 q 254 -153 254 -214 q 276 -87 254 -122 q 332 -19 297 -51 q 306 -21 324 -21 q 105 63 179 -21 q 31 290 31 147 q 65 458 31 375 q 151 597 99 542 q 244 632 188 618 q 351 646 301 646 m 407 365 q 379 519 406 463 q 304 588 353 576 q 248 487 269 551 q 226 354 226 422 l 226 350 l 407 365 z "},"f":{"ha":431,"x_min":22,"x_max":503,"o":"m 211 894 q 248 747 219 831 q 300 625 276 663 l 422 625 l 422 567 l 301 571 l 299 44 l 406 40 l 406 0 l 51 0 l 51 40 l 103 44 l 100 574 l 22 574 l 22 625 l 96 625 q 76 715 85 663 q 67 806 67 768 q 68 844 67 832 q 115 910 81 881 q 191 958 149 940 q 269 975 233 975 q 392 956 331 975 q 503 907 454 938 l 388 742 q 306 821 356 778 q 211 894 256 864 z "},"g":{"ha":660,"x_min":14,"x_max":711,"o":"m 447 78 q 580 46 525 72 q 665 -24 635 19 q 581 -179 639 -103 q 442 -305 524 -256 q 268 -354 361 -354 q 123 -309 178 -354 q 68 -194 68 -264 q 97 -62 68 -136 q 14 22 47 -39 l 154 179 q 72 258 101 208 q 42 368 42 307 q 65 481 42 425 q 125 575 89 536 q 219 625 160 604 q 343 646 278 646 q 425 636 390 646 l 540 832 q 599 838 568 838 q 711 814 657 838 l 614 633 q 526 651 569 651 q 490 649 513 651 l 469 621 q 568 540 532 593 q 604 418 604 488 q 580 310 604 364 q 521 214 556 257 q 427 163 486 183 q 304 143 368 143 q 192 163 243 143 l 160 124 q 196 101 168 111 q 263 90 224 92 l 447 78 m 421 367 q 376 501 421 453 q 251 561 332 550 q 225 419 225 485 q 269 288 225 336 q 396 228 314 239 q 421 367 421 293 m 344 -208 q 426 -199 386 -208 q 494 -178 467 -190 q 528 -156 522 -165 q 478 -117 519 -136 q 364 -94 438 -99 l 210 -86 q 146 -79 183 -85 q 206 -172 153 -135 q 344 -208 260 -208 z "},"ğ":{"ha":660,"x_min":14,"x_max":711,"o":"m 447 78 q 580 46 525 72 q 665 -24 635 19 q 581 -179 639 -103 q 442 -305 524 -256 q 268 -354 361 -354 q 123 -309 178 -354 q 68 -194 68 -264 q 97 -62 68 -136 q 14 22 47 -39 l 154 179 q 72 258 101 208 q 42 368 42 307 q 65 481 42 425 q 125 575 89 536 q 219 625 160 604 q 343 646 278 646 q 425 636 390 646 l 540 832 q 599 838 568 838 q 711 814 657 838 l 614 633 q 526 651 569 651 q 490 649 513 651 l 469 621 q 568 540 532 593 q 604 418 604 488 q 580 310 604 364 q 521 214 556 257 q 427 163 486 183 q 304 143 368 143 q 192 163 243 143 l 160 124 q 196 101 168 111 q 263 90 224 92 l 447 78 m 421 367 q 376 501 421 453 q 251 561 332 550 q 225 419 225 485 q 269 288 225 336 q 396 228 314 239 q 421 367 421 293 m 344 -208 q 426 -199 386 -208 q 494 -178 467 -190 q 528 -156 522 -165 q 478 -117 519 -136 q 364 -94 438 -99 l 210 -86 q 146 -79 183 -85 q 206 -172 153 -135 q 344 -208 260 -208 m 319 779 q 208 815 261 779 q 118 914 156 851 l 153 953 q 229 904 186 922 q 319 886 272 886 q 410 904 367 886 q 486 953 453 922 l 521 914 q 431 815 483 851 q 319 779 378 779 z "},"ģ":{"ha":660,"x_min":14,"x_max":711,"o":"m 447 78 q 580 46 525 72 q 665 -24 635 19 q 581 -179 639 -103 q 442 -305 524 -256 q 268 -354 361 -354 q 123 -309 178 -354 q 68 -194 68 -264 q 97 -62 68 -136 q 14 22 47 -39 l 154 179 q 72 258 101 208 q 42 368 42 307 q 65 481 42 425 q 125 575 89 536 q 219 625 160 604 q 343 646 278 646 q 425 636 390 646 l 540 832 q 599 838 568 838 q 711 814 657 838 l 614 633 q 526 651 569 651 q 490 649 513 651 l 469 621 q 568 540 532 593 q 604 418 604 488 q 580 310 604 364 q 521 214 556 257 q 427 163 486 183 q 304 143 368 143 q 192 163 243 143 l 160 124 q 196 101 168 111 q 263 90 224 92 l 447 78 m 421 367 q 376 501 421 453 q 251 561 332 550 q 225 419 225 485 q 269 288 225 336 q 396 228 314 239 q 421 367 421 293 m 344 -208 q 426 -199 386 -208 q 494 -178 467 -190 q 528 -156 522 -165 q 478 -117 519 -136 q 364 -94 438 -99 l 210 -86 q 146 -79 183 -85 q 206 -172 153 -135 q 344 -208 260 -208 m 393 808 l 258 783 l 258 860 l 354 1019 l 394 1024 l 393 808 z "},"h":{"ha":711,"x_min":8,"x_max":700,"o":"m 700 40 l 700 0 l 403 0 l 403 40 l 454 44 l 454 338 q 420 432 454 399 q 326 467 386 465 l 281 421 l 278 44 l 329 40 l 329 0 l 31 0 l 31 40 l 82 44 l 75 876 l 22 865 l 8 906 l 265 983 l 285 950 l 281 488 l 393 649 q 588 586 525 649 q 650 393 650 524 l 650 44 l 700 40 z "},"ħ":{"ha":711,"x_min":-89,"x_max":700,"o":"m 700 40 l 700 0 l 403 0 l 403 40 l 454 44 l 454 338 q 420 432 454 399 q 326 467 386 465 l 281 421 l 278 44 l 329 40 l 329 0 l 31 0 l 31 40 l 82 44 l 76 713 l -89 713 l -82 765 l 76 768 l 75 876 l 22 865 l 8 906 l 265 983 l 285 950 l 283 772 l 454 776 l 440 713 l 283 713 l 281 488 l 393 649 q 588 586 525 649 q 650 393 650 524 l 650 44 l 700 40 z "},"i":{"ha":376,"x_min":33,"x_max":351,"o":"m 108 918 l 286 958 l 286 800 l 108 774 l 108 918 m 300 44 l 351 40 l 351 0 l 53 0 l 53 40 l 104 44 l 100 539 l 47 528 l 33 568 l 285 646 l 304 613 l 300 44 z "},"ı":{"ha":376,"x_min":33,"x_max":351,"o":"m 53 40 l 104 44 l 100 539 l 47 528 l 33 568 l 285 646 l 304 613 l 300 44 l 351 40 l 351 0 l 53 0 l 53 40 z "},"í":{"ha":376,"x_min":33,"x_max":364,"o":"m 108 753 l 286 993 l 364 913 l 147 707 l 108 753 m 53 40 l 104 44 l 100 539 l 47 528 l 33 568 l 285 646 l 304 613 l 300 44 l 351 40 l 351 0 l 53 0 l 53 40 z "},"î":{"ha":376,"x_min":14,"x_max":386,"o":"m 53 40 l 104 44 l 100 539 l 47 528 l 33 568 l 285 646 l 304 613 l 300 44 l 351 40 l 351 0 l 53 0 l 53 40 m 14 813 l 200 961 l 386 813 l 357 769 l 200 843 l 43 769 l 14 813 z "},"ï":{"ha":376,"x_min":18,"x_max":382,"o":"m 53 40 l 104 44 l 100 539 l 47 528 l 33 568 l 285 646 l 304 613 l 300 44 l 351 40 l 351 0 l 53 0 l 53 40 m 18 899 l 157 928 l 157 800 l 18 781 l 18 899 m 243 899 l 382 928 l 382 800 l 243 781 l 243 899 z "},"ì":{"ha":376,"x_min":11,"x_max":351,"o":"m 11 911 l 89 992 l 265 751 l 228 706 l 11 911 m 53 40 l 104 44 l 100 539 l 47 528 l 33 568 l 285 646 l 304 613 l 300 44 l 351 40 l 351 0 l 53 0 l 53 40 z "},"ī":{"ha":376,"x_min":14,"x_max":386,"o":"m 53 40 l 104 44 l 100 539 l 47 528 l 33 568 l 285 646 l 304 613 l 300 44 l 351 40 l 351 0 l 53 0 l 53 40 m 21 865 l 386 876 l 372 797 l 14 797 l 21 865 z "},"į":{"ha":376,"x_min":33,"x_max":351,"o":"m 294 0 q 239 -65 258 -28 q 219 -142 219 -103 q 240 -204 219 -181 q 294 -228 261 -228 q 324 -225 313 -228 l 335 -261 q 210 -307 281 -307 q 110 -274 149 -307 q 71 -181 71 -242 q 115 -82 71 -135 q 217 0 160 -29 l 53 0 l 53 40 l 104 44 l 100 539 l 47 528 l 33 568 l 285 646 l 304 613 l 300 44 l 351 40 l 351 0 l 294 0 z "},"j":{"ha":325,"x_min":-183,"x_max":283,"o":"m 265 772 l 88 746 l 88 890 l 265 931 l 265 772 m 283 613 l 283 539 q 271 -12 281 154 q 242 -218 261 -178 q 161 -295 222 -257 q 36 -347 100 -333 q -183 -286 -83 -347 l -83 -128 q 71 -267 -24 -192 q 76 172 76 -44 q 74 539 76 281 l 21 528 l 7 568 l 264 646 l 283 613 z "},"k":{"ha":719,"x_min":8,"x_max":722,"o":"m 722 97 l 528 -17 q 385 203 440 54 l 369 246 l 279 207 l 278 44 l 329 40 l 329 0 l 31 0 l 31 40 l 82 44 l 75 876 l 22 865 l 8 906 l 265 983 l 285 950 l 281 431 l 465 650 q 609 553 563 622 q 656 368 656 483 l 529 314 l 538 297 q 597 194 560 244 q 669 118 635 144 l 707 139 l 722 97 m 279 258 l 467 347 q 444 414 467 378 q 389 458 421 450 l 281 364 l 279 258 z "},"ķ":{"ha":719,"x_min":8,"x_max":722,"o":"m 722 97 l 528 -17 q 385 203 440 54 l 369 246 l 279 207 l 278 44 l 329 40 l 329 0 l 31 0 l 31 40 l 82 44 l 75 876 l 22 865 l 8 906 l 265 983 l 285 950 l 281 431 l 465 650 q 609 553 563 622 q 656 368 656 483 l 529 314 l 538 297 q 597 194 560 244 q 669 118 635 144 l 707 139 l 722 97 m 279 258 l 467 347 q 444 414 467 378 q 389 458 421 450 l 281 364 l 279 258 m 274 -99 l 408 -74 l 408 -150 l 313 -310 l 272 -314 l 274 -99 z "},"l":{"ha":343,"x_min":8,"x_max":329,"o":"m 31 40 l 82 44 l 75 876 l 22 865 l 8 906 l 265 983 l 285 950 l 278 44 l 329 40 l 329 0 l 31 0 l 31 40 z "},"ĺ":{"ha":343,"x_min":8,"x_max":374,"o":"m 31 40 l 82 44 l 75 876 l 22 865 l 8 906 l 265 983 l 285 950 l 278 44 l 329 40 l 329 0 l 31 0 l 31 40 m 86 1092 l 319 1278 l 374 1181 l 111 1038 l 86 1092 z "},"ľ":{"ha":343,"x_min":8,"x_max":504,"o":"m 31 40 l 82 44 l 75 876 l 22 865 l 8 906 l 265 983 l 285 950 l 278 44 l 329 40 l 329 0 l 31 0 l 31 40 m 369 953 l 504 978 l 504 901 l 408 742 l 368 738 l 369 953 z "},"ļ":{"ha":343,"x_min":8,"x_max":329,"o":"m 31 40 l 82 44 l 75 876 l 22 865 l 8 906 l 265 983 l 285 950 l 278 44 l 329 40 l 329 0 l 31 0 l 31 40 m 92 -99 l 226 -74 l 226 -150 l 131 -310 l 90 -314 l 92 -99 z "},"ł":{"ha":343,"x_min":-60,"x_max":419,"o":"m 278 44 l 329 40 l 329 0 l 31 0 l 31 40 l 82 44 l 79 381 l -29 283 l -60 319 l 79 443 l 75 876 l 22 865 l 8 906 l 265 983 l 285 950 l 282 626 l 389 722 l 419 689 l 282 564 l 278 44 z "},"m":{"ha":1081,"x_min":22,"x_max":1069,"o":"m 1069 40 l 1069 0 l 772 0 l 772 40 l 824 44 l 824 338 q 792 433 824 399 q 706 468 761 467 l 654 417 l 654 393 l 654 44 l 704 40 l 704 0 l 407 0 l 407 40 l 458 44 l 458 338 q 427 432 458 399 q 340 467 396 465 l 294 421 l 289 44 l 340 40 l 340 0 l 42 0 l 42 40 l 93 44 l 89 542 l 36 529 l 22 571 l 242 639 l 290 483 l 406 649 q 572 606 513 649 q 647 472 631 563 l 771 650 q 959 588 899 650 q 1019 393 1019 525 l 1019 44 l 1069 40 z "},"n":{"ha":724,"x_min":22,"x_max":713,"o":"m 713 40 l 713 0 l 415 0 l 415 40 l 467 44 l 467 338 q 433 432 467 399 q 339 467 399 465 l 294 421 l 289 44 l 340 40 l 340 0 l 42 0 l 42 40 l 93 44 l 89 542 l 36 529 l 22 571 l 242 639 l 290 483 l 406 649 q 600 586 538 649 q 663 393 663 524 l 663 44 l 713 40 z "},"ń":{"ha":724,"x_min":22,"x_max":713,"o":"m 713 40 l 713 0 l 415 0 l 415 40 l 467 44 l 467 338 q 433 432 467 399 q 339 467 399 465 l 294 421 l 289 44 l 340 40 l 340 0 l 42 0 l 42 40 l 93 44 l 89 542 l 36 529 l 22 571 l 242 639 l 290 483 l 406 649 q 600 586 538 649 q 663 393 663 524 l 663 44 l 713 40 m 231 786 l 464 972 l 518 875 l 256 732 l 231 786 z "},"ň":{"ha":724,"x_min":22,"x_max":713,"o":"m 713 40 l 713 0 l 415 0 l 415 40 l 467 44 l 467 338 q 433 432 467 399 q 339 467 399 465 l 294 421 l 289 44 l 340 40 l 340 0 l 42 0 l 42 40 l 93 44 l 89 542 l 36 529 l 22 571 l 242 639 l 290 483 l 406 649 q 600 586 538 649 q 663 393 663 524 l 663 44 l 713 40 m 189 908 l 218 951 l 375 878 l 532 951 l 561 908 l 375 760 l 189 908 z "},"ņ":{"ha":724,"x_min":22,"x_max":713,"o":"m 713 40 l 713 0 l 415 0 l 415 40 l 467 44 l 467 338 q 433 432 467 399 q 339 467 399 465 l 294 421 l 289 44 l 340 40 l 340 0 l 42 0 l 42 40 l 93 44 l 89 542 l 36 529 l 22 571 l 242 639 l 290 483 l 406 649 q 600 586 538 649 q 663 393 663 524 l 663 44 l 713 40 m 293 -99 l 428 -74 l 428 -150 l 332 -310 l 292 -314 l 293 -99 z "},"ñ":{"ha":724,"x_min":22,"x_max":713,"o":"m 713 40 l 713 0 l 415 0 l 415 40 l 467 44 l 467 338 q 433 432 467 399 q 339 467 399 465 l 294 421 l 289 44 l 340 40 l 340 0 l 42 0 l 42 40 l 93 44 l 89 542 l 36 529 l 22 571 l 242 639 l 290 483 l 406 649 q 600 586 538 649 q 663 393 663 524 l 663 44 l 713 40 m 428 778 q 394 786 408 778 q 356 814 379 794 q 326 838 338 831 q 299 846 314 846 q 256 831 276 846 q 218 792 235 817 l 188 824 q 246 906 211 875 q 322 938 281 938 q 356 929 342 938 q 394 901 371 921 q 424 877 413 885 q 451 869 436 869 q 494 884 474 869 q 532 924 515 899 l 563 892 q 504 809 539 840 q 428 778 469 778 z "},"o":{"ha":674,"x_min":31,"x_max":657,"o":"m 349 646 q 572 564 488 646 q 657 331 657 482 q 634 196 657 265 q 567 74 611 126 q 463 5 522 31 q 339 -21 404 -21 q 115 61 200 -21 q 31 294 31 143 q 54 428 31 358 q 122 550 78 497 q 226 619 167 593 q 349 646 285 646 m 231 361 q 283 164 231 229 q 436 86 335 99 q 451 179 446 128 q 457 264 457 231 q 405 462 457 397 q 253 539 353 526 q 237 444 243 496 q 231 361 231 393 z "},"ó":{"ha":674,"x_min":31,"x_max":657,"o":"m 308 708 l 269 754 l 447 994 l 525 914 l 308 708 m 349 646 q 572 564 488 646 q 657 331 657 482 q 634 196 657 265 q 567 74 611 126 q 463 5 522 31 q 339 -21 404 -21 q 115 61 200 -21 q 31 294 31 143 q 54 428 31 358 q 122 550 78 497 q 226 619 167 593 q 349 646 285 646 m 231 361 q 283 164 231 229 q 436 86 335 99 q 451 179 446 128 q 457 264 457 231 q 405 462 457 397 q 253 539 353 526 q 237 444 243 496 q 231 361 231 393 z "},"ô":{"ha":674,"x_min":31,"x_max":657,"o":"m 349 646 q 572 564 488 646 q 657 331 657 482 q 634 196 657 265 q 567 74 611 126 q 463 5 522 31 q 339 -21 404 -21 q 115 61 200 -21 q 31 294 31 143 q 54 428 31 358 q 122 550 78 497 q 226 619 167 593 q 349 646 285 646 m 231 361 q 283 164 231 229 q 436 86 335 99 q 451 179 446 128 q 457 264 457 231 q 405 462 457 397 q 253 539 353 526 q 237 444 243 496 q 231 361 231 393 m 157 813 l 343 961 l 529 813 l 500 769 l 343 843 l 186 769 l 157 813 z "},"ö":{"ha":674,"x_min":31,"x_max":657,"o":"m 349 646 q 572 564 488 646 q 657 331 657 482 q 634 196 657 265 q 567 74 611 126 q 463 5 522 31 q 339 -21 404 -21 q 115 61 200 -21 q 31 294 31 143 q 54 428 31 358 q 122 550 78 497 q 226 619 167 593 q 349 646 285 646 m 231 361 q 283 164 231 229 q 436 86 335 99 q 451 179 446 128 q 457 264 457 231 q 405 462 457 397 q 253 539 353 526 q 237 444 243 496 q 231 361 231 393 m 161 899 l 300 928 l 300 800 l 161 781 l 161 899 m 386 899 l 525 928 l 525 800 l 386 781 l 386 899 z "},"ò":{"ha":674,"x_min":31,"x_max":657,"o":"m 400 708 l 183 914 l 261 994 l 438 754 l 400 708 m 349 646 q 572 564 488 646 q 657 331 657 482 q 634 196 657 265 q 567 74 611 126 q 463 5 522 31 q 339 -21 404 -21 q 115 61 200 -21 q 31 294 31 143 q 54 428 31 358 q 122 550 78 497 q 226 619 167 593 q 349 646 285 646 m 231 361 q 283 164 231 229 q 436 86 335 99 q 451 179 446 128 q 457 264 457 231 q 405 462 457 397 q 253 539 353 526 q 237 444 243 496 q 231 361 231 393 z "},"ő":{"ha":674,"x_min":31,"x_max":657,"o":"m 349 646 q 572 564 488 646 q 657 331 657 482 q 634 196 657 265 q 567 74 611 126 q 463 5 522 31 q 339 -21 404 -21 q 115 61 200 -21 q 31 294 31 143 q 54 428 31 358 q 122 550 78 497 q 226 619 167 593 q 349 646 285 646 m 231 361 q 283 164 231 229 q 436 86 335 99 q 451 179 446 128 q 457 264 457 231 q 405 462 457 397 q 253 539 353 526 q 237 444 243 496 q 231 361 231 393 m 224 760 l 335 956 l 440 964 l 290 750 l 224 760 m 369 760 l 481 956 l 586 964 l 436 750 l 369 760 z "},"ō":{"ha":674,"x_min":31,"x_max":657,"o":"m 349 646 q 572 564 488 646 q 657 331 657 482 q 634 196 657 265 q 567 74 611 126 q 463 5 522 31 q 339 -21 404 -21 q 115 61 200 -21 q 31 294 31 143 q 54 428 31 358 q 122 550 78 497 q 226 619 167 593 q 349 646 285 646 m 231 361 q 283 164 231 229 q 436 86 335 99 q 451 179 446 128 q 457 264 457 231 q 405 462 457 397 q 253 539 353 526 q 237 444 243 496 q 231 361 231 393 m 164 865 l 529 876 l 515 797 l 157 797 l 164 865 z "},"ø":{"ha":674,"x_min":31,"x_max":657,"o":"m 349 646 q 572 564 488 646 q 657 331 657 482 q 634 196 657 265 q 567 74 611 126 q 463 5 522 31 q 339 -21 404 -21 q 115 61 200 -21 q 31 294 31 143 q 54 428 31 358 q 122 550 78 497 q 226 619 167 593 q 349 646 285 646 m 400 467 q 253 539 353 525 q 237 444 243 496 q 231 361 231 393 q 264 194 231 257 l 400 467 m 297 149 q 436 86 347 99 q 451 179 446 128 q 457 264 457 231 q 431 417 457 356 l 297 149 z "},"õ":{"ha":674,"x_min":31,"x_max":657,"o":"m 349 646 q 572 564 488 646 q 657 331 657 482 q 634 196 657 265 q 567 74 611 126 q 463 5 522 31 q 339 -21 404 -21 q 115 61 200 -21 q 31 294 31 143 q 54 428 31 358 q 122 550 78 497 q 226 619 167 593 q 349 646 285 646 m 231 361 q 283 164 231 229 q 436 86 335 99 q 451 179 446 128 q 457 264 457 231 q 405 462 457 397 q 253 539 353 526 q 237 444 243 496 q 231 361 231 393 m 396 778 q 362 786 376 778 q 324 814 347 794 q 294 838 306 831 q 267 846 282 846 q 224 831 244 846 q 186 792 203 817 l 156 824 q 214 906 179 875 q 290 938 249 938 q 324 929 310 938 q 363 901 339 921 q 392 877 381 885 q 419 869 404 869 q 463 884 442 869 q 500 924 483 899 l 531 892 q 472 809 507 840 q 396 778 438 778 z "},"œ":{"ha":1044,"x_min":31,"x_max":1032,"o":"m 769 646 q 961 558 890 646 q 1031 319 1032 469 l 660 307 q 719 185 671 226 q 850 143 767 143 q 1006 199 946 143 l 1031 176 q 904 30 982 81 q 731 -21 826 -21 q 626 -1 674 -21 q 542 54 578 18 q 444 -1 499 19 q 332 -21 390 -21 q 113 61 196 -21 q 31 294 31 143 q 54 428 31 358 q 122 550 78 497 q 224 619 168 593 q 342 646 281 646 q 560 571 479 646 q 769 646 642 646 m 821 365 q 792 511 819 450 q 722 586 764 572 q 675 486 693 550 q 657 354 657 422 l 657 351 l 821 365 m 231 361 q 302 159 231 222 q 511 90 374 96 q 456 285 456 169 l 456 294 l 456 294 q 253 529 457 507 q 237 439 243 488 q 231 361 231 390 z "},"p":{"ha":710,"x_min":22,"x_max":693,"o":"m 421 646 q 563 609 501 646 q 659 508 625 572 q 693 361 693 443 q 670 210 693 290 q 614 88 647 131 q 518 15 588 50 q 401 -21 449 -21 q 289 -8 367 -21 l 292 -303 l 399 -307 l 399 -347 l 31 -347 l 31 -307 l 82 -303 l 89 544 l 36 532 l 22 574 l 238 642 l 282 483 l 421 646 m 460 85 q 494 278 494 164 q 474 389 494 342 q 419 461 453 436 q 346 486 385 486 l 285 425 l 288 143 q 460 85 379 100 z "},"þ":{"ha":713,"x_min":22,"x_max":696,"o":"m 424 646 q 566 609 504 646 q 662 508 628 572 q 696 361 696 443 q 673 210 696 290 q 617 88 650 131 q 521 15 590 50 q 404 -21 451 -21 q 292 -8 369 -21 l 292 -303 l 343 -307 l 343 -347 l 39 -347 l 39 -307 l 90 -303 l 89 876 l 36 865 l 22 906 l 274 983 l 293 950 l 293 492 l 424 646 m 463 85 q 497 278 497 164 q 476 389 497 342 q 422 461 456 436 q 349 486 388 486 l 293 431 l 292 142 q 463 85 379 100 z "},"q":{"ha":704,"x_min":31,"x_max":693,"o":"m 693 -307 l 693 -347 l 325 -347 l 325 -307 l 432 -303 l 436 133 l 304 -21 q 162 16 224 -21 q 65 117 100 53 q 31 264 31 182 q 54 414 31 335 q 111 538 78 493 q 207 610 138 575 q 324 646 276 646 q 486 623 386 646 q 635 574 586 600 l 642 -303 l 693 -307 m 436 196 l 439 482 q 265 540 349 525 q 231 347 231 461 q 251 236 231 283 q 306 164 272 189 q 379 139 340 139 l 436 196 z "},"r":{"ha":544,"x_min":22,"x_max":572,"o":"m 294 435 l 289 44 l 413 40 l 413 0 l 42 0 l 42 40 l 93 44 l 89 542 l 36 529 l 22 571 l 242 639 l 289 490 q 389 635 335 583 q 463 646 419 646 q 572 625 521 646 l 528 444 q 425 460 488 453 q 322 469 363 467 l 294 435 z "},"ŕ":{"ha":544,"x_min":22,"x_max":572,"o":"m 294 435 l 289 44 l 413 40 l 413 0 l 42 0 l 42 40 l 93 44 l 89 542 l 36 529 l 22 571 l 242 639 l 289 490 q 389 635 335 583 q 463 646 419 646 q 572 625 521 646 l 528 444 q 425 460 488 453 q 322 469 363 467 l 294 435 m 232 786 l 465 972 l 519 875 l 257 732 l 232 786 z "},"ř":{"ha":544,"x_min":22,"x_max":572,"o":"m 294 435 l 289 44 l 413 40 l 413 0 l 42 0 l 42 40 l 93 44 l 89 542 l 36 529 l 22 571 l 242 639 l 289 490 q 389 635 335 583 q 463 646 419 646 q 572 625 521 646 l 528 444 q 425 460 488 453 q 322 469 363 467 l 294 435 m 135 908 l 164 951 l 321 878 l 478 951 l 507 908 l 321 760 l 135 908 z "},"ŗ":{"ha":544,"x_min":22,"x_max":572,"o":"m 294 435 l 289 44 l 413 40 l 413 0 l 42 0 l 42 40 l 93 44 l 89 542 l 36 529 l 22 571 l 242 639 l 289 490 q 389 635 335 583 q 463 646 419 646 q 572 625 521 646 l 528 444 q 425 460 488 453 q 322 469 363 467 l 294 435 m 108 -99 l 243 -74 l 243 -150 l 147 -310 l 107 -314 l 108 -99 z "},"s":{"ha":535,"x_min":22,"x_max":515,"o":"m 236 521 q 266 453 236 483 q 357 381 296 422 q 471 288 432 329 q 510 185 510 246 q 478 83 510 131 q 388 8 446 36 q 254 -21 329 -21 q 117 14 182 -21 q 22 103 53 49 l 142 199 q 256 28 197 94 q 295 70 279 46 q 311 118 311 94 q 283 185 311 157 q 194 254 254 214 q 117 310 146 286 q 67 367 88 333 q 47 442 47 400 q 81 540 47 493 q 176 617 115 588 q 315 646 238 646 q 428 620 375 646 q 515 556 482 594 l 407 449 q 260 600 340 533 q 236 521 236 569 m 190 0 l 192 0 l 190 0 z "},"ś":{"ha":535,"x_min":22,"x_max":515,"o":"m 236 521 q 266 453 236 483 q 357 381 296 422 q 471 288 432 329 q 510 185 510 246 q 478 83 510 131 q 388 8 446 36 q 254 -21 329 -21 q 117 14 182 -21 q 22 103 53 49 l 142 199 q 256 28 197 94 q 295 70 279 46 q 311 118 311 94 q 283 185 311 157 q 194 254 254 214 q 117 310 146 286 q 67 367 88 333 q 47 442 47 400 q 81 540 47 493 q 176 617 115 588 q 315 646 238 646 q 428 620 375 646 q 515 556 482 594 l 407 449 q 260 600 340 533 q 236 521 236 569 m 190 0 l 192 0 l 190 0 m 144 786 l 378 972 l 432 875 l 169 732 l 144 786 z "},"š":{"ha":535,"x_min":22,"x_max":515,"o":"m 236 521 q 266 453 236 483 q 357 381 296 422 q 471 288 432 329 q 510 185 510 246 q 478 83 510 131 q 388 8 446 36 q 254 -21 329 -21 q 117 14 182 -21 q 22 103 53 49 l 142 199 q 256 28 197 94 q 295 70 279 46 q 311 118 311 94 q 283 185 311 157 q 194 254 254 214 q 117 310 146 286 q 67 367 88 333 q 47 442 47 400 q 81 540 47 493 q 176 617 115 588 q 315 646 238 646 q 428 620 375 646 q 515 556 482 594 l 407 449 q 260 600 340 533 q 236 521 236 569 m 190 0 l 192 0 l 190 0 m 103 908 l 132 951 l 289 878 l 446 951 l 475 908 l 289 760 l 103 908 z "},"ş":{"ha":535,"x_min":22,"x_max":515,"o":"m 236 521 q 266 453 236 483 q 357 381 296 422 q 471 288 432 329 q 510 185 510 246 q 451 52 510 110 q 299 -18 393 -6 l 263 -72 q 373 -113 329 -78 q 417 -211 417 -149 q 407 -260 417 -233 q 379 -308 397 -286 q 335 -336 360 -325 q 290 -349 311 -347 q 213 -335 256 -349 q 140 -304 171 -322 l 189 -236 l 301 -312 q 303 -292 303 -306 q 270 -199 303 -235 q 175 -156 238 -162 l 175 -118 l 249 -21 q 114 15 176 -19 q 22 103 51 50 l 142 199 q 256 28 197 94 q 295 70 279 46 q 311 118 311 94 q 283 185 311 157 q 194 254 254 214 q 117 310 146 286 q 67 367 88 333 q 47 442 47 400 q 81 540 47 493 q 176 617 115 588 q 315 646 238 646 q 428 620 375 646 q 515 556 482 594 l 407 449 q 260 600 340 533 q 236 521 236 569 m 190 0 l 192 0 l 190 0 z "},"ș":{"ha":535,"x_min":22,"x_max":515,"o":"m 236 521 q 266 453 236 483 q 357 381 296 422 q 471 288 432 329 q 510 185 510 246 q 478 83 510 131 q 388 8 446 36 q 254 -21 329 -21 q 117 14 182 -21 q 22 103 53 49 l 142 199 q 256 28 197 94 q 295 70 279 46 q 311 118 311 94 q 283 185 311 157 q 194 254 254 214 q 117 310 146 286 q 67 367 88 333 q 47 442 47 400 q 81 540 47 493 q 176 617 115 588 q 315 646 238 646 q 428 620 375 646 q 515 556 482 594 l 407 449 q 260 600 340 533 q 236 521 236 569 m 190 0 l 192 0 l 190 0 m 169 -99 l 304 -74 l 304 -150 l 208 -310 l 168 -314 l 169 -99 z "},"ß":{"ha":757,"x_min":8,"x_max":735,"o":"m 532 515 q 553 463 532 483 q 619 413 575 442 q 706 345 676 378 q 735 258 735 313 q 695 133 735 199 q 593 24 656 68 q 468 -19 531 -19 q 310 26 372 -19 l 403 146 q 593 75 507 79 q 599 114 599 100 q 572 188 599 160 q 492 249 544 215 q 409 313 436 283 q 382 389 382 342 q 457 528 382 432 l 510 594 l 510 611 q 463 734 510 688 q 347 781 415 781 q 271 772 311 781 l 271 0 l 8 0 l 8 49 l 76 50 l 76 668 l 167 871 q 265 948 199 915 q 399 981 332 981 q 602 898 535 981 q 669 694 669 815 l 581 593 q 542 545 553 563 q 532 515 532 528 z "},"t":{"ha":469,"x_min":11,"x_max":469,"o":"m 469 110 l 300 -12 q 151 38 197 -12 q 104 201 104 89 l 104 571 l 11 571 l 11 615 q 138 706 69 647 q 264 831 207 765 l 310 817 l 303 625 l 465 625 l 465 567 l 300 569 l 300 250 q 326 153 300 183 q 394 122 351 122 l 446 151 l 469 110 z "},"ť":{"ha":528,"x_min":11,"x_max":528,"o":"m 469 110 l 300 -12 q 151 38 197 -12 q 104 201 104 89 l 104 571 l 11 571 l 11 615 q 138 706 69 647 q 264 831 207 765 l 310 817 l 303 625 l 465 625 l 465 567 l 300 569 l 300 250 q 326 153 300 183 q 394 122 351 122 l 446 151 l 469 110 m 393 913 l 528 938 l 528 861 l 432 701 l 392 697 l 393 913 z "},"ţ":{"ha":469,"x_min":11,"x_max":469,"o":"m 235 -72 q 345 -113 301 -78 q 389 -211 389 -149 q 379 -260 389 -233 q 351 -308 369 -286 q 308 -336 332 -325 q 263 -349 283 -347 q 185 -335 228 -349 q 113 -304 143 -322 l 161 -236 l 274 -312 q 275 -292 275 -306 q 242 -199 275 -235 q 147 -156 210 -162 l 147 -118 l 232 -6 q 135 59 165 8 q 104 201 104 110 l 104 571 l 11 571 l 11 615 q 138 706 69 647 q 264 831 207 765 l 310 817 l 303 625 l 465 625 l 465 567 l 300 569 l 300 250 q 326 153 300 183 q 394 122 351 122 l 446 151 l 469 110 l 300 -12 q 275 -11 283 -12 l 235 -72 z "},"ț":{"ha":469,"x_min":11,"x_max":469,"o":"m 469 110 l 300 -12 q 151 38 197 -12 q 104 201 104 89 l 104 571 l 11 571 l 11 615 q 138 706 69 647 q 264 831 207 765 l 310 817 l 303 625 l 465 625 l 465 567 l 300 569 l 300 250 q 326 153 300 183 q 394 122 351 122 l 446 151 l 469 110 m 189 -99 l 324 -74 l 324 -150 l 228 -310 l 188 -314 l 189 -99 z "},"u":{"ha":725,"x_min":28,"x_max":733,"o":"m 733 93 l 540 -17 q 475 48 496 7 q 454 153 454 89 l 335 -21 q 142 42 204 -21 q 79 238 79 106 l 79 581 l 28 585 l 28 625 l 275 625 l 275 293 q 308 197 275 231 q 394 161 340 163 l 454 217 l 454 581 l 404 585 l 404 625 l 650 625 l 650 233 q 656 157 650 182 q 676 114 663 132 l 718 135 l 733 93 z "},"ú":{"ha":725,"x_min":28,"x_max":733,"o":"m 733 93 l 540 -17 q 475 48 496 7 q 454 153 454 89 l 335 -21 q 142 42 204 -21 q 79 238 79 106 l 79 581 l 28 585 l 28 625 l 275 625 l 275 293 q 308 197 275 231 q 394 161 340 163 l 454 217 l 454 581 l 404 585 l 404 625 l 650 625 l 650 233 q 656 157 650 182 q 676 114 663 132 l 718 135 l 733 93 m 221 786 l 454 972 l 508 875 l 246 732 l 221 786 z "},"û":{"ha":725,"x_min":28,"x_max":733,"o":"m 733 93 l 540 -17 q 475 48 496 7 q 454 153 454 89 l 335 -21 q 142 42 204 -21 q 79 238 79 106 l 79 581 l 28 585 l 28 625 l 275 625 l 275 293 q 308 197 275 231 q 394 161 340 163 l 454 217 l 454 581 l 404 585 l 404 625 l 650 625 l 650 233 q 656 157 650 182 q 676 114 663 132 l 718 135 l 733 93 m 179 813 l 365 961 l 551 813 l 522 769 l 365 843 l 208 769 l 179 813 z "},"ü":{"ha":725,"x_min":28,"x_max":733,"o":"m 733 93 l 540 -17 q 475 48 496 7 q 454 153 454 89 l 335 -21 q 142 42 204 -21 q 79 238 79 106 l 79 581 l 28 585 l 28 625 l 275 625 l 275 293 q 308 197 275 231 q 394 161 340 163 l 454 217 l 454 581 l 404 585 l 404 625 l 650 625 l 650 233 q 656 157 650 182 q 676 114 663 132 l 718 135 l 733 93 m 183 899 l 322 928 l 322 800 l 183 781 l 183 899 m 408 899 l 547 928 l 547 800 l 408 781 l 408 899 z "},"ù":{"ha":725,"x_min":28,"x_max":733,"o":"m 733 93 l 540 -17 q 475 48 496 7 q 454 153 454 89 l 335 -21 q 142 42 204 -21 q 79 238 79 106 l 79 581 l 28 585 l 28 625 l 275 625 l 275 293 q 308 197 275 231 q 394 161 340 163 l 454 217 l 454 581 l 404 585 l 404 625 l 650 625 l 650 233 q 656 157 650 182 q 676 114 663 132 l 718 135 l 733 93 m 222 875 l 276 972 l 510 786 l 485 732 l 222 875 z "},"ű":{"ha":725,"x_min":28,"x_max":733,"o":"m 733 93 l 540 -17 q 475 48 496 7 q 454 153 454 89 l 335 -21 q 142 42 204 -21 q 79 238 79 106 l 79 581 l 28 585 l 28 625 l 275 625 l 275 293 q 308 197 275 231 q 394 161 340 163 l 454 217 l 454 581 l 404 585 l 404 625 l 650 625 l 650 233 q 656 157 650 182 q 676 114 663 132 l 718 135 l 733 93 m 246 760 l 357 956 l 463 964 l 313 750 l 246 760 m 392 760 l 503 956 l 608 964 l 458 750 l 392 760 z "},"ū":{"ha":725,"x_min":28,"x_max":733,"o":"m 733 93 l 540 -17 q 475 48 496 7 q 454 153 454 89 l 335 -21 q 142 42 204 -21 q 79 238 79 106 l 79 581 l 28 585 l 28 625 l 275 625 l 275 293 q 308 197 275 231 q 394 161 340 163 l 454 217 l 454 581 l 404 585 l 404 625 l 650 625 l 650 233 q 656 157 650 182 q 676 114 663 132 l 718 135 l 733 93 m 186 865 l 551 876 l 538 797 l 179 797 l 186 865 z "},"ų":{"ha":725,"x_min":28,"x_max":733,"o":"m 625 -200 q 654 -197 643 -200 l 665 -233 q 540 -279 611 -279 q 440 -247 479 -279 q 401 -153 401 -214 q 433 -72 401 -115 q 510 4 464 -29 q 454 153 454 54 l 335 -21 q 142 42 204 -21 q 79 238 79 106 l 79 581 l 28 585 l 28 625 l 275 625 l 275 293 q 308 197 275 231 q 394 161 340 163 l 454 217 l 454 581 l 404 585 l 404 625 l 650 625 l 650 233 q 656 157 650 182 q 676 114 663 132 l 718 135 l 733 93 l 643 42 q 575 -28 600 13 q 550 -114 550 -69 q 571 -176 550 -153 q 625 -200 592 -200 z "},"ů":{"ha":725,"x_min":28,"x_max":733,"o":"m 733 93 l 540 -17 q 475 48 496 7 q 454 153 454 89 l 335 -21 q 142 42 204 -21 q 79 238 79 106 l 79 581 l 28 585 l 28 625 l 275 625 l 275 293 q 308 197 275 231 q 394 161 340 163 l 454 217 l 454 581 l 404 585 l 404 625 l 650 625 l 650 233 q 656 157 650 182 q 676 114 663 132 l 718 135 l 733 93 m 367 751 q 264 792 301 751 q 226 892 226 832 q 264 991 226 951 q 367 1031 301 1031 q 468 991 431 1031 q 506 892 506 951 q 468 792 506 832 q 367 751 431 751 m 367 803 q 430 827 406 803 q 454 892 454 851 q 430 955 454 931 q 367 979 406 979 q 303 955 328 979 q 279 892 279 931 q 303 827 279 851 q 367 803 328 803 z "},"v":{"ha":658,"x_min":-14,"x_max":672,"o":"m 672 625 l 672 581 l 632 579 l 386 8 l 246 0 l 26 579 l -14 581 l -14 625 l 315 625 l 315 581 l 257 579 l 378 151 l 492 579 l 433 581 l 433 625 l 672 625 z "},"w":{"ha":1029,"x_min":-14,"x_max":1043,"o":"m 1043 625 l 1043 581 l 1003 579 l 790 8 l 653 0 l 515 382 l 385 8 l 244 0 l 26 579 l -14 581 l -14 625 l 318 625 l 318 581 l 264 579 l 376 168 l 451 579 l 404 581 l 404 625 l 722 625 l 722 581 l 675 579 l 785 172 l 863 579 l 808 581 l 808 625 l 1043 625 z "},"ẃ":{"ha":1029,"x_min":-14,"x_max":1043,"o":"m 1043 625 l 1043 581 l 1003 579 l 790 8 l 653 0 l 515 382 l 385 8 l 244 0 l 26 579 l -14 581 l -14 625 l 318 625 l 318 581 l 264 579 l 376 168 l 451 579 l 404 581 l 404 625 l 722 625 l 722 581 l 675 579 l 785 172 l 863 579 l 808 581 l 808 625 l 1043 625 m 421 786 l 654 972 l 708 875 l 446 732 l 421 786 z "},"ŵ":{"ha":1029,"x_min":-14,"x_max":1043,"o":"m 1043 625 l 1043 581 l 1003 579 l 790 8 l 653 0 l 515 382 l 385 8 l 244 0 l 26 579 l -14 581 l -14 625 l 318 625 l 318 581 l 264 579 l 376 168 l 451 579 l 404 581 l 404 625 l 722 625 l 722 581 l 675 579 l 785 172 l 863 579 l 808 581 l 808 625 l 1043 625 m 379 813 l 565 961 l 751 813 l 722 769 l 565 843 l 408 769 l 379 813 z "},"ẅ":{"ha":1029,"x_min":-14,"x_max":1043,"o":"m 1043 625 l 1043 581 l 1003 579 l 790 8 l 653 0 l 515 382 l 385 8 l 244 0 l 26 579 l -14 581 l -14 625 l 318 625 l 318 581 l 264 579 l 376 168 l 451 579 l 404 581 l 404 625 l 722 625 l 722 581 l 675 579 l 785 172 l 863 579 l 808 581 l 808 625 l 1043 625 m 383 899 l 522 928 l 522 800 l 383 781 l 383 899 m 608 899 l 747 928 l 747 800 l 608 781 l 608 899 z "},"ẁ":{"ha":1029,"x_min":-14,"x_max":1043,"o":"m 1043 625 l 1043 581 l 1003 579 l 790 8 l 653 0 l 515 382 l 385 8 l 244 0 l 26 579 l -14 581 l -14 625 l 318 625 l 318 581 l 264 579 l 376 168 l 451 579 l 404 581 l 404 625 l 722 625 l 722 581 l 675 579 l 785 172 l 863 579 l 808 581 l 808 625 l 1043 625 m 422 875 l 476 972 l 710 786 l 685 732 l 422 875 z "},"x":{"ha":644,"x_min":0,"x_max":675,"o":"m 675 44 l 675 0 l 336 0 l 336 44 l 390 46 l 272 233 l 203 46 l 257 44 l 257 0 l 10 0 l 10 44 l 63 46 l 244 276 l 54 579 l 0 581 l 0 625 l 338 625 l 338 581 l 283 579 l 388 415 l 453 579 l 399 581 l 399 625 l 642 625 l 642 581 l 589 579 l 414 372 l 621 46 l 675 44 z "},"y":{"ha":660,"x_min":-11,"x_max":681,"o":"m 681 625 l 681 581 l 640 579 l 464 169 q 315 -143 392 -1 q 175 -368 238 -285 l 11 -212 q 319 4 183 -114 l 243 0 l 29 579 l -11 581 l -11 625 l 318 625 l 318 581 l 260 579 l 386 154 l 500 579 l 442 581 l 442 625 l 681 625 z "},"ý":{"ha":660,"x_min":-11,"x_max":681,"o":"m 681 625 l 681 581 l 640 579 l 464 169 q 315 -143 392 -1 q 175 -368 238 -285 l 11 -212 q 319 4 183 -114 l 243 0 l 29 579 l -11 581 l -11 625 l 318 625 l 318 581 l 260 579 l 386 154 l 500 579 l 442 581 l 442 625 l 681 625 m 232 786 l 465 972 l 519 875 l 257 732 l 232 786 z "},"ŷ":{"ha":660,"x_min":-11,"x_max":681,"o":"m 681 625 l 681 581 l 640 579 l 464 169 q 315 -143 392 -1 q 175 -368 238 -285 l 11 -212 q 319 4 183 -114 l 243 0 l 29 579 l -11 581 l -11 625 l 318 625 l 318 581 l 260 579 l 386 154 l 500 579 l 442 581 l 442 625 l 681 625 m 190 813 l 376 961 l 563 813 l 533 769 l 376 843 l 219 769 l 190 813 z "},"ÿ":{"ha":660,"x_min":-11,"x_max":681,"o":"m 681 625 l 681 581 l 640 579 l 464 169 q 315 -143 392 -1 q 175 -368 238 -285 l 11 -212 q 319 4 183 -114 l 243 0 l 29 579 l -11 581 l -11 625 l 318 625 l 318 581 l 260 579 l 386 154 l 500 579 l 442 581 l 442 625 l 681 625 m 194 899 l 333 928 l 333 800 l 194 781 l 194 899 m 419 899 l 558 928 l 558 800 l 419 781 l 419 899 z "},"ỳ":{"ha":660,"x_min":-11,"x_max":681,"o":"m 681 625 l 681 581 l 640 579 l 464 169 q 315 -143 392 -1 q 175 -368 238 -285 l 11 -212 q 319 4 183 -114 l 243 0 l 29 579 l -11 581 l -11 625 l 318 625 l 318 581 l 260 579 l 386 154 l 500 579 l 442 581 l 442 625 l 681 625 m 233 875 l 288 972 l 521 786 l 496 732 l 233 875 z "},"z":{"ha":560,"x_min":47,"x_max":532,"o":"m 47 144 l 407 457 l 96 419 l 90 371 l 50 371 l 50 625 l 519 625 l 519 456 l 146 161 l 488 215 l 492 254 l 532 254 l 532 0 l 47 -1 l 47 144 z "},"ź":{"ha":560,"x_min":47,"x_max":532,"o":"m 47 144 l 407 457 l 96 419 l 90 371 l 50 371 l 50 625 l 519 625 l 519 456 l 146 161 l 488 215 l 492 254 l 532 254 l 532 0 l 47 -1 l 47 144 m 151 786 l 385 972 l 439 875 l 176 732 l 151 786 z "},"ž":{"ha":560,"x_min":47,"x_max":532,"o":"m 47 144 l 407 457 l 96 419 l 90 371 l 50 371 l 50 625 l 519 625 l 519 456 l 146 161 l 488 215 l 492 254 l 532 254 l 532 0 l 47 -1 l 47 144 m 110 908 l 139 951 l 296 878 l 453 951 l 482 908 l 296 760 l 110 908 z "},"ż":{"ha":560,"x_min":47,"x_max":532,"o":"m 47 144 l 407 457 l 96 419 l 90 371 l 50 371 l 50 625 l 519 625 l 519 456 l 146 161 l 488 215 l 492 254 l 532 254 l 532 0 l 47 -1 l 47 144 m 222 883 l 369 917 l 369 786 l 222 765 l 222 883 z "},"ﬁ":{"ha":799,"x_min":22,"x_max":776,"o":"m 211 893 q 250 742 221 826 q 304 625 279 658 l 425 625 l 425 578 l 301 578 l 299 44 l 406 40 l 406 0 l 51 0 l 51 40 l 103 44 l 100 578 l 22 578 l 22 625 l 100 625 q 76 712 85 661 q 67 806 67 763 q 68 844 67 832 q 115 910 81 881 q 191 958 149 940 q 269 975 233 975 q 380 960 324 975 q 479 922 436 946 l 364 757 q 293 828 336 789 q 211 893 250 867 m 711 800 l 533 774 l 533 918 l 711 958 l 711 800 m 776 40 l 776 0 l 478 0 l 478 40 l 529 44 l 525 539 l 472 528 l 458 568 l 710 646 l 729 613 l 725 44 l 776 40 z "},"ﬂ":{"ha":803,"x_min":22,"x_max":775,"o":"m 775 40 l 775 0 l 476 0 l 476 40 l 528 44 l 521 824 q 208 914 313 890 q 246 756 214 849 q 304 625 278 663 l 425 625 l 425 578 l 301 578 l 299 44 l 406 40 l 406 0 l 51 0 l 51 40 l 103 44 l 100 578 l 22 578 l 22 625 l 100 625 q 76 712 85 661 q 67 806 67 763 q 68 844 67 832 q 153 942 86 900 q 283 985 219 985 q 493 974 360 985 q 731 950 626 963 l 724 44 l 775 40 z "},"ª":{"ha":382,"x_min":26,"x_max":361,"o":"m 361 661 l 236 613 q 211 653 217 629 q 107 614 149 614 q 50 636 74 614 q 26 692 26 658 q 31 724 26 706 q 40 753 35 743 l 210 778 l 211 794 q 198 835 213 821 q 146 850 183 850 q 85 838 113 850 l 72 808 l 46 817 l 78 940 q 196 964 133 964 q 299 932 260 964 q 333 836 338 900 l 325 738 q 324 713 324 726 q 332 682 324 697 l 353 689 l 361 661 m 175 671 q 206 681 186 671 l 206 707 l 208 749 l 158 735 q 153 703 153 721 q 159 678 153 686 q 175 671 165 671 z "},"º":{"ha":396,"x_min":19,"x_max":374,"o":"m 199 964 q 326 921 278 964 q 374 799 374 878 q 362 728 374 764 q 326 664 350 692 q 267 628 303 642 q 194 614 232 614 q 67 657 115 614 q 19 779 19 700 q 32 849 19 813 q 67 913 44 886 q 126 949 90 935 q 199 964 161 964 m 144 814 q 168 713 144 747 q 238 668 192 678 q 249 764 249 717 q 157 908 249 890 q 148 860 151 888 q 144 814 144 832 z "},"Δ":{"ha":931,"x_min":1,"x_max":901,"o":"m 849 0 l 901 106 l 554 943 l 382 919 l 1 0 l 849 0 m 218 113 l 390 776 l 619 113 l 218 113 z "},"Ω":{"ha":956,"x_min":35,"x_max":921,"o":"m 850 254 l 890 254 l 890 0 l 526 -1 l 526 144 q 637 315 597 210 q 676 526 676 421 q 588 779 676 694 q 338 874 499 864 q 292 723 310 804 q 275 574 275 642 q 318 317 275 432 q 429 144 361 203 l 429 -1 l 65 0 l 65 254 l 106 254 l 110 215 l 301 167 q 172 260 233 201 q 73 392 111 318 q 35 542 35 465 q 66 696 35 619 q 156 835 97 772 q 311 920 229 889 q 493 951 393 951 q 714 906 617 951 q 866 778 811 861 q 921 583 921 694 q 880 410 921 493 q 774 263 839 326 q 638 163 708 199 l 846 215 l 850 254 z "},"μ":{"ha":718,"x_min":28,"x_max":726,"o":"m 726 93 l 533 -17 q 451 106 464 21 l 351 -21 q 218 43 253 -21 l 258 -347 l 79 -347 l 79 581 l 28 585 l 28 625 l 268 625 l 268 292 q 401 128 268 128 l 447 171 l 447 581 l 397 585 l 397 625 l 643 625 l 643 233 q 649 157 643 182 q 669 114 656 132 l 711 135 l 726 93 z "},"π":{"ha":853,"x_min":-12,"x_max":829,"o":"m 778 138 l 801 96 l 660 -12 q 557 37 588 -12 q 519 201 526 86 l 507 436 q 338 444 421 443 l 335 0 l 182 0 l 260 446 q 186 415 215 444 q 138 329 157 386 l -12 407 q 92 582 26 524 q 265 639 157 640 l 829 632 l 789 414 l 622 426 l 632 278 q 661 149 638 189 q 726 108 685 108 l 778 138 z "},"ء":{"ha":447,"x_min":4,"x_max":442,"o":"m 442 179 l 326 51 l 29 -28 l 4 1 l 124 99 q 56 222 56 150 q 82 322 56 275 q 157 396 108 368 q 267 424 206 424 q 343 415 303 424 q 408 393 383 407 l 326 228 q 262 252 303 242 q 186 263 221 263 q 138 253 157 263 q 119 228 119 244 q 165 190 119 208 q 264 172 210 172 q 417 208 342 172 l 442 179 z "},"ا":{"ha":294,"x_min":56,"x_max":239,"o":"m 85 11 q 78 334 86 144 q 56 671 69 524 q 143 761 94 718 q 231 825 192 804 q 239 704 239 794 q 226 410 239 581 q 206 210 214 240 l 115 0 l 85 11 z "},"ﺎ":{"ha":317,"x_min":56,"x_max":317,"o":"m 317 197 l 257 35 l 228 10 l 94 -4 q 81 328 93 132 q 56 678 69 525 q 143 768 94 725 q 231 832 192 811 q 238 744 238 804 q 224 458 239 638 q 196 208 208 278 l 308 221 l 317 197 z "},"أ":{"ha":294,"x_min":11,"x_max":301,"o":"m 85 11 q 78 334 86 144 q 56 671 69 524 q 143 761 94 718 q 231 825 192 804 q 239 704 239 794 q 226 410 239 581 q 206 210 214 240 l 115 0 l 85 11 m 301 968 l 225 885 l 28 832 l 11 847 l 90 913 q 46 994 46 947 q 85 1081 46 1044 q 186 1118 125 1118 q 235 1113 208 1118 q 278 1099 261 1107 l 225 999 q 183 1014 210 1007 q 133 1021 157 1021 q 100 1015 113 1021 q 88 999 88 1008 q 117 973 88 985 q 183 961 147 961 q 285 982 243 961 l 301 968 z "},"ﺄ":{"ha":317,"x_min":11,"x_max":317,"o":"m 317 197 l 257 35 l 228 10 l 94 -4 q 81 328 93 132 q 56 678 69 525 q 143 768 94 725 q 231 832 192 811 q 238 744 238 804 q 224 458 239 638 q 196 208 208 278 l 308 221 l 317 197 m 301 975 l 225 892 l 28 839 l 11 854 l 90 919 q 46 1001 46 954 q 85 1088 46 1051 q 186 1125 125 1125 q 235 1119 208 1125 q 278 1106 261 1114 l 225 1006 q 183 1021 210 1014 q 133 1028 157 1028 q 100 1022 113 1028 q 88 1006 88 1015 q 117 980 88 992 q 183 968 147 968 q 285 989 243 968 l 301 975 z "},"إ":{"ha":294,"x_min":8,"x_max":299,"o":"m 85 11 q 78 334 86 144 q 56 671 69 524 q 143 761 94 718 q 231 825 192 804 q 239 704 239 794 q 226 410 239 581 q 206 210 214 240 l 115 0 l 85 11 m 299 -203 l 222 -286 l 25 -339 l 8 -324 l 88 -258 q 43 -176 43 -224 q 83 -90 43 -126 q 183 -53 122 -53 q 232 -58 206 -53 q 275 -72 258 -64 l 222 -172 q 181 -157 207 -164 q 131 -150 154 -150 q 97 -156 110 -150 q 85 -172 85 -162 q 115 -198 85 -186 q 181 -210 144 -210 q 282 -189 240 -210 l 299 -203 z "},"ﺈ":{"ha":317,"x_min":3,"x_max":317,"o":"m 317 197 l 257 35 l 228 10 l 94 -4 q 81 328 93 132 q 56 678 69 525 q 143 768 94 725 q 231 832 192 811 q 238 744 238 804 q 224 458 239 638 q 196 208 208 278 l 308 221 l 317 197 m 293 -206 l 217 -289 l 19 -342 l 3 -326 l 82 -261 q 38 -179 38 -226 q 77 -92 38 -129 q 178 -56 117 -56 q 226 -61 200 -56 q 269 -75 253 -67 l 217 -175 q 175 -160 201 -167 q 125 -153 149 -153 q 92 -159 104 -153 q 79 -175 79 -165 q 109 -201 79 -189 q 175 -212 139 -212 q 276 -192 235 -212 l 293 -206 z "},"آ":{"ha":294,"x_min":-14,"x_max":288,"o":"m 85 11 q 78 334 86 144 q 56 671 69 524 q 143 761 94 718 q 231 825 192 804 q 239 704 239 794 q 226 410 239 581 q 206 210 214 240 l 115 0 l 85 11 m -14 842 q 26 965 7 922 q 57 984 39 978 q 93 990 75 990 q 142 985 103 990 q 217 978 201 978 q 247 982 235 978 l 267 1035 l 288 1031 q 256 914 275 965 q 227 890 244 899 q 190 882 210 882 q 142 888 178 882 q 74 894 89 894 q 29 889 51 894 l 8 836 l -14 842 z "},"ﺂ":{"ha":317,"x_min":-14,"x_max":317,"o":"m 317 197 l 257 35 l 228 10 l 94 -4 q 81 328 93 132 q 56 678 69 525 q 143 768 94 725 q 231 832 192 811 q 238 744 238 804 q 224 458 239 638 q 196 208 208 278 l 308 221 l 317 197 m -14 849 q 26 972 7 929 q 57 991 39 985 q 93 997 75 997 q 142 992 103 997 q 217 985 201 985 q 247 989 235 985 l 267 1042 l 288 1038 q 256 921 275 972 q 227 897 244 906 q 190 889 210 889 q 142 894 178 889 q 74 901 89 901 q 29 896 51 901 l 8 843 l -14 849 z "},"ٱ":{"ha":294,"x_min":-25,"x_max":283,"o":"m 85 11 q 78 334 86 144 q 56 671 69 524 q 143 761 94 718 q 231 825 192 804 q 239 704 239 794 q 226 410 239 581 q 206 210 214 240 l 115 0 l 85 11 m 169 1100 q 236 1081 206 1100 q 283 1035 267 1063 q 214 907 272 961 q 69 853 156 853 q -25 850 11 853 q 7 913 -15 889 q 58 944 29 938 q 56 968 56 958 q 88 1061 56 1022 q 169 1100 121 1100 m 136 993 q 98 988 113 993 q 83 971 83 982 q 89 946 83 957 q 222 963 182 950 q 136 993 181 993 z "},"ﭑ":{"ha":317,"x_min":-25,"x_max":317,"o":"m 317 197 l 257 35 l 228 10 l 94 -4 q 81 328 93 132 q 56 678 69 525 q 143 768 94 725 q 231 832 192 811 q 238 744 238 804 q 224 458 239 638 q 196 208 208 278 l 308 221 l 317 197 m 169 1107 q 236 1088 206 1107 q 283 1042 267 1069 q 214 914 272 968 q 69 860 156 860 q -25 857 11 860 q 7 920 -15 896 q 58 951 29 944 q 56 975 56 965 q 88 1068 56 1029 q 169 1107 121 1107 m 136 1000 q 98 994 113 1000 q 83 978 83 989 q 89 953 83 964 q 222 969 182 957 q 136 1000 181 1000 z "},"ٮ":{"ha":1032,"x_min":25,"x_max":990,"o":"m 882 585 q 958 494 925 551 q 990 393 990 436 q 963 260 990 342 q 904 133 936 179 q 779 58 865 94 q 586 1 693 22 q 382 -21 479 -21 q 120 40 215 -21 q 25 207 25 100 q 113 381 58 300 q 260 553 168 463 l 286 433 q 149 314 217 383 q 261 219 185 249 q 469 190 338 190 q 692 210 581 190 q 881 263 804 231 q 731 422 839 332 l 882 585 z "},"ب":{"ha":1032,"x_min":25,"x_max":990,"o":"m 882 585 q 958 494 925 551 q 990 393 990 436 q 963 260 990 342 q 904 133 936 179 q 779 58 865 94 q 586 1 693 22 q 382 -21 479 -21 q 120 40 215 -21 q 25 207 25 100 q 113 381 58 300 q 260 553 168 463 l 286 433 q 149 314 217 383 q 261 219 185 249 q 469 190 338 190 q 692 210 581 190 q 881 263 804 231 q 731 422 839 332 l 882 585 m 490 -260 q 415 -165 451 -226 l 517 -97 q 540 -137 522 -107 q 582 -199 558 -168 l 490 -260 z "},"ﺐ":{"ha":1057,"x_min":35,"x_max":1053,"o":"m 1053 250 l 993 88 l 964 63 l 829 49 l 858 129 l 860 133 q 560 23 725 67 q 276 -21 394 -21 q 35 43 135 -21 q 51 167 35 106 q 100 282 68 229 q 196 399 135 340 q 321 497 257 458 l 346 379 q 154 244 244 326 q 319 211 219 211 q 615 251 431 211 q 939 344 800 290 l 968 326 l 949 264 l 1044 274 l 1053 250 m 479 -253 q 404 -158 440 -219 l 506 -90 q 529 -131 511 -100 q 571 -192 547 -161 l 479 -253 z "},"ﺒ":{"ha":400,"x_min":-7,"x_max":400,"o":"m 400 200 l 340 38 l 311 13 l 158 -3 l 175 54 q -7 -21 128 -7 l 74 190 q 229 231 171 200 l 260 332 l 304 328 l 279 213 l 392 224 l 400 200 m 142 -250 q 67 -156 103 -217 l 168 -87 q 192 -128 174 -97 q 233 -189 210 -158 l 142 -250 z "},"ﺑ":{"ha":321,"x_min":0,"x_max":268,"o":"m 268 340 q 178 11 249 156 q 0 -21 114 -8 l 81 190 q 193 211 150 199 q 224 342 213 288 l 268 340 m 99 -253 q 24 -158 60 -219 l 125 -90 q 149 -131 131 -100 q 190 -192 167 -161 l 99 -253 z "},"ت":{"ha":1032,"x_min":25,"x_max":990,"o":"m 882 585 q 958 494 925 551 q 990 393 990 436 q 963 260 990 342 q 904 133 936 179 q 779 58 865 94 q 586 1 693 22 q 382 -21 479 -21 q 120 40 215 -21 q 25 207 25 100 q 113 381 58 300 q 260 553 168 463 l 286 433 q 149 314 217 383 q 261 219 185 249 q 469 190 338 190 q 692 210 581 190 q 881 263 804 231 q 731 422 839 332 l 882 585 m 440 626 l 692 694 l 664 589 l 417 535 l 440 626 z "},"ﺖ":{"ha":1057,"x_min":35,"x_max":1053,"o":"m 1053 250 l 993 88 l 964 63 l 829 49 l 858 129 l 860 133 q 560 23 725 67 q 276 -21 394 -21 q 35 43 135 -21 q 51 167 35 106 q 100 282 68 229 q 196 399 135 340 q 321 497 257 458 l 346 379 q 154 244 244 326 q 319 211 219 211 q 615 251 431 211 q 939 344 800 290 l 968 326 l 949 264 l 1044 274 l 1053 250 m 526 597 l 778 665 l 750 560 l 503 506 l 526 597 z "},"ﺘ":{"ha":400,"x_min":-7,"x_max":417,"o":"m 400 200 l 340 38 l 311 13 l 158 -3 l 175 54 q -7 -21 128 -7 l 74 190 q 229 231 171 200 l 260 332 l 304 328 l 279 213 l 392 224 l 400 200 m 165 546 l 417 614 l 389 508 l 142 454 l 165 546 z "},"ﺗ":{"ha":321,"x_min":0,"x_max":347,"o":"m 268 340 q 178 11 249 156 q 0 -21 114 -8 l 81 190 q 193 211 150 199 q 224 342 213 288 l 268 340 m 96 535 l 347 603 l 319 497 l 72 443 l 96 535 z "},"ث":{"ha":1032,"x_min":25,"x_max":990,"o":"m 882 585 q 958 494 925 551 q 990 393 990 436 q 963 260 990 342 q 904 133 936 179 q 779 58 865 94 q 586 1 693 22 q 382 -21 479 -21 q 120 40 215 -21 q 25 207 25 100 q 113 381 58 300 q 260 553 168 463 l 286 433 q 149 314 217 383 q 261 219 185 249 q 469 190 338 190 q 692 210 581 190 q 881 263 804 231 q 731 422 839 332 l 882 585 m 401 510 l 539 688 q 569 689 549 689 q 641 681 604 689 q 707 656 678 672 l 636 550 q 517 575 575 579 l 432 493 l 401 510 z "},"ﺚ":{"ha":1057,"x_min":35,"x_max":1053,"o":"m 1053 250 l 993 88 l 964 63 l 829 49 l 858 129 l 860 133 q 560 23 725 67 q 276 -21 394 -21 q 35 43 135 -21 q 51 167 35 106 q 100 282 68 229 q 196 399 135 340 q 321 497 257 458 l 346 379 q 154 244 244 326 q 319 211 219 211 q 615 251 431 211 q 939 344 800 290 l 968 326 l 949 264 l 1044 274 l 1053 250 m 488 481 l 625 658 q 656 660 635 660 q 727 651 690 660 q 793 626 764 643 l 722 521 q 603 546 661 550 l 518 464 l 488 481 z "},"ﺜ":{"ha":400,"x_min":-7,"x_max":432,"o":"m 400 200 l 340 38 l 311 13 l 158 -3 l 175 54 q -7 -21 128 -7 l 74 190 q 229 231 171 200 l 260 332 l 304 328 l 279 213 l 392 224 l 400 200 m 126 429 l 264 607 q 294 608 274 608 q 366 600 329 608 q 432 575 403 592 l 361 469 q 242 494 300 499 l 157 413 l 126 429 z "},"ﺛ":{"ha":321,"x_min":0,"x_max":363,"o":"m 268 340 q 178 11 249 156 q 0 -21 114 -8 l 81 190 q 193 211 150 199 q 224 342 213 288 l 268 340 m 57 418 l 194 596 q 225 597 204 597 q 297 589 260 597 q 363 564 333 581 l 292 458 q 172 483 231 488 l 88 401 l 57 418 z "},"ج":{"ha":628,"x_min":-76,"x_max":600,"o":"m 42 -167 q 109 -253 42 -212 q 286 -317 176 -293 q 515 -340 396 -340 q 582 -339 561 -340 q 501 -426 557 -385 q 366 -494 444 -468 q 200 -521 288 -521 q 1 -468 78 -521 q -76 -318 -76 -415 q -28 -150 -76 -242 q 106 36 21 -58 q 59 94 78 58 q 40 163 40 131 q 67 259 40 201 q 129 368 93 317 q 190 439 165 419 q 268 474 218 461 q 371 486 318 486 q 495 467 435 486 q 600 415 556 449 l 489 204 q 313 108 421 178 q 123 -39 204 38 q 42 -167 42 -115 m 268 300 q 160 283 210 300 q 208 231 178 254 q 276 193 239 207 q 396 276 331 233 q 268 300 340 300 m 313 -196 q 238 -101 274 -162 l 339 -33 q 363 -74 344 -43 q 404 -135 381 -104 l 313 -196 z "},"ﺞ":{"ha":667,"x_min":-6,"x_max":667,"o":"m 113 -251 q 181 -351 113 -308 q 359 -415 250 -393 q 586 -437 468 -437 q 653 -436 632 -437 q 572 -524 628 -482 q 437 -592 515 -565 q 271 -618 358 -618 q 72 -565 149 -618 q -6 -414 -6 -512 q 87 -178 -6 -312 q 321 64 179 -43 q 131 89 214 86 q 265 401 188 275 q 446 461 342 436 q 658 497 550 486 l 667 474 l 607 311 l 578 286 q 322 250 474 276 q 449 232 386 244 q 551 206 513 219 l 486 40 q 325 -48 414 10 q 174 -163 236 -106 q 113 -251 113 -221 m 382 -314 q 307 -219 343 -281 l 408 -151 q 432 -192 414 -161 q 474 -253 450 -222 l 382 -314 z "},"ﺠ":{"ha":596,"x_min":0,"x_max":596,"o":"m 596 676 l 536 514 l 507 489 q 246 453 374 475 q 375 434 310 447 q 481 407 440 421 q 453 244 481 339 q 394 104 426 150 q 242 28 346 64 q 0 -21 139 -7 l 81 190 q 248 213 183 200 q 375 244 313 226 q 224 275 319 261 q 60 292 129 289 q 194 604 117 478 q 588 700 346 675 l 596 676 m 201 -251 q 126 -157 163 -218 l 228 -89 q 251 -129 233 -99 q 293 -190 269 -160 l 201 -251 z "},"ﺟ":{"ha":707,"x_min":0,"x_max":672,"o":"m 672 514 q 536 35 647 283 l 178 -3 q 147 -211 161 -85 l 106 -210 l 113 -147 q 128 -7 117 -89 l 0 -21 l 81 190 l 176 201 q 336 454 235 367 q 561 542 438 542 q 628 534 599 542 q 672 514 657 526 m 453 331 q 329 299 383 331 q 242 208 275 267 l 504 238 q 518 322 511 269 q 453 331 489 331 m 335 -253 q 260 -158 296 -219 l 361 -90 q 385 -131 367 -100 q 426 -192 403 -161 l 335 -253 z "},"ح":{"ha":628,"x_min":-76,"x_max":600,"o":"m 42 -167 q 109 -253 42 -212 q 286 -317 176 -293 q 515 -340 396 -340 q 582 -339 561 -340 q 501 -426 557 -385 q 366 -494 444 -468 q 200 -521 288 -521 q 1 -468 78 -521 q -76 -318 -76 -415 q -28 -150 -76 -242 q 106 36 21 -58 q 59 94 78 58 q 40 163 40 131 q 67 259 40 201 q 129 368 93 317 q 190 439 165 419 q 268 474 218 461 q 371 486 318 486 q 495 467 435 486 q 600 415 556 449 l 489 204 q 313 108 421 178 q 123 -39 204 38 q 42 -167 42 -115 m 268 300 q 160 283 210 300 q 208 231 178 254 q 276 193 239 207 q 396 276 331 233 q 268 300 340 300 z "},"ﺢ":{"ha":667,"x_min":-6,"x_max":667,"o":"m 113 -251 q 181 -351 113 -308 q 359 -415 250 -393 q 586 -437 468 -437 q 653 -436 632 -437 q 572 -524 628 -482 q 437 -592 515 -565 q 271 -618 358 -618 q 72 -565 149 -618 q -6 -414 -6 -512 q 87 -178 -6 -312 q 321 64 179 -43 q 131 89 214 86 q 265 401 188 275 q 446 461 342 436 q 658 497 550 486 l 667 474 l 607 311 l 578 286 q 322 250 474 276 q 449 232 386 244 q 551 206 513 219 l 486 40 q 325 -48 414 10 q 174 -163 236 -106 q 113 -251 113 -221 z "},"ﺤ":{"ha":596,"x_min":0,"x_max":596,"o":"m 596 676 l 536 514 l 507 489 q 246 453 374 475 q 375 434 310 447 q 481 407 440 421 q 453 244 481 339 q 394 104 426 150 q 242 28 346 64 q 0 -21 139 -7 l 81 190 q 248 213 183 200 q 375 244 313 226 q 224 275 319 261 q 60 292 129 289 q 194 604 117 478 q 588 700 346 675 l 596 676 z "},"ﺣ":{"ha":707,"x_min":0,"x_max":672,"o":"m 672 514 q 536 35 647 283 l 178 -3 q 147 -211 161 -85 l 106 -210 l 113 -147 q 128 -7 117 -89 l 0 -21 l 81 190 l 176 201 q 336 454 235 367 q 561 542 438 542 q 628 534 599 542 q 672 514 657 526 m 453 331 q 329 299 383 331 q 242 208 275 267 l 504 238 q 518 322 511 269 q 453 331 489 331 z "},"خ":{"ha":628,"x_min":-76,"x_max":600,"o":"m 42 -167 q 109 -253 42 -212 q 286 -317 176 -293 q 515 -340 396 -340 q 582 -339 561 -340 q 501 -426 557 -385 q 366 -494 444 -468 q 200 -521 288 -521 q 1 -468 78 -521 q -76 -318 -76 -415 q -28 -150 -76 -242 q 106 36 21 -58 q 59 94 78 58 q 40 163 40 131 q 67 259 40 201 q 129 368 93 317 q 190 439 165 419 q 268 474 218 461 q 371 486 318 486 q 495 467 435 486 q 600 415 556 449 l 489 204 q 313 108 421 178 q 123 -39 204 38 q 42 -167 42 -115 m 268 300 q 160 283 210 300 q 208 231 178 254 q 276 193 239 207 q 396 276 331 233 q 268 300 340 300 m 371 588 q 296 682 332 621 l 397 750 q 421 710 403 740 q 463 649 439 679 l 371 588 z "},"ﺦ":{"ha":667,"x_min":-6,"x_max":667,"o":"m 113 -251 q 181 -351 113 -308 q 359 -415 250 -393 q 586 -437 468 -437 q 653 -436 632 -437 q 572 -524 628 -482 q 437 -592 515 -565 q 271 -618 358 -618 q 72 -565 149 -618 q -6 -414 -6 -512 q 87 -178 -6 -312 q 321 64 179 -43 q 131 89 214 86 q 265 401 188 275 q 446 461 342 436 q 658 497 550 486 l 667 474 l 607 311 l 578 286 q 322 250 474 276 q 449 232 386 244 q 551 206 513 219 l 486 40 q 325 -48 414 10 q 174 -163 236 -106 q 113 -251 113 -221 m 439 571 q 364 665 400 604 l 465 733 q 489 693 471 724 q 531 632 507 663 l 439 571 z "},"ﺨ":{"ha":596,"x_min":0,"x_max":596,"o":"m 596 676 l 536 514 l 507 489 q 246 453 374 475 q 375 434 310 447 q 481 407 440 421 q 453 244 481 339 q 394 104 426 150 q 242 28 346 64 q 0 -21 139 -7 l 81 190 q 248 213 183 200 q 375 244 313 226 q 224 275 319 261 q 60 292 129 289 q 194 604 117 478 q 588 700 346 675 l 596 676 m 378 782 q 303 876 339 815 l 404 944 q 428 904 410 935 q 469 843 446 874 l 378 782 z "},"ﺧ":{"ha":707,"x_min":0,"x_max":672,"o":"m 672 514 q 536 35 647 283 l 178 -3 q 147 -211 161 -85 l 106 -210 l 113 -147 q 128 -7 117 -89 l 0 -21 l 81 190 l 176 201 q 336 454 235 367 q 561 542 438 542 q 628 534 599 542 q 672 514 657 526 m 453 331 q 329 299 383 331 q 242 208 275 267 l 504 238 q 518 322 511 269 q 453 331 489 331 m 468 629 q 393 724 429 663 l 494 792 q 518 751 500 782 q 560 690 536 721 l 468 629 z "},"د":{"ha":518,"x_min":-15,"x_max":476,"o":"m 394 581 q 476 282 476 417 q 475 243 476 257 q 444 147 475 214 q 368 31 413 79 q -15 -21 189 -17 l 61 192 q 342 200 203 192 q 199 446 296 319 l 394 581 z "},"ﺪ":{"ha":821,"x_min":10,"x_max":821,"o":"m 821 232 l 761 69 l 732 44 l 601 31 l 579 254 q 521 147 556 204 q 463 64 486 89 q 281 -19 388 -19 q 134 12 218 -19 q 10 81 50 43 q 298 177 147 119 q 526 278 449 235 l 681 465 l 707 444 l 726 246 l 813 256 l 821 232 z "},"ذ":{"ha":518,"x_min":-15,"x_max":476,"o":"m 394 581 q 476 282 476 417 q 475 243 476 257 q 444 147 475 214 q 368 31 413 79 q -15 -21 189 -17 l 61 192 q 342 200 203 192 q 199 446 296 319 l 394 581 m 251 610 q 176 704 213 643 l 278 772 q 301 732 283 763 q 343 671 319 701 l 251 610 z "},"ﺬ":{"ha":821,"x_min":10,"x_max":821,"o":"m 821 232 l 761 69 l 732 44 l 601 31 l 579 254 q 521 147 556 204 q 463 64 486 89 q 281 -19 388 -19 q 134 12 218 -19 q 10 81 50 43 q 298 177 147 119 q 526 278 449 235 l 681 465 l 707 444 l 726 246 l 813 256 l 821 232 m 565 531 q 490 625 526 564 l 592 693 q 615 653 597 683 q 657 592 633 622 l 565 531 z "},"ر":{"ha":567,"x_min":-35,"x_max":550,"o":"m 231 -21 q 85 12 169 -21 q -35 79 0 44 q 246 176 94 117 q 478 282 397 236 l 508 363 l 550 357 q 496 178 536 264 q 388 35 456 92 q 231 -21 321 -21 z "},"ﺮ":{"ha":708,"x_min":-26,"x_max":708,"o":"m 708 471 l 649 308 l 619 283 l 546 276 q 431 60 508 147 q 239 -28 353 -28 q 93 5 178 -28 q -26 72 8 38 q 251 166 101 110 q 488 269 400 222 l 558 414 q 600 470 579 456 q 669 490 621 485 l 700 494 l 708 471 z "},"ز":{"ha":567,"x_min":-35,"x_max":593,"o":"m 231 -21 q 85 12 169 -21 q -35 79 0 44 q 246 176 94 117 q 478 282 397 236 l 508 363 l 550 357 q 496 178 536 264 q 388 35 456 92 q 231 -21 321 -21 m 501 461 q 426 556 463 494 l 528 624 q 551 583 533 614 q 593 522 569 553 l 501 461 z "},"ﺰ":{"ha":708,"x_min":-26,"x_max":708,"o":"m 708 471 l 649 308 l 619 283 l 546 276 q 431 60 508 147 q 239 -28 353 -28 q 93 5 178 -28 q -26 72 8 38 q 251 166 101 110 q 488 269 400 222 l 558 414 q 600 470 579 456 q 669 490 621 485 l 700 494 l 708 471 m 550 561 q 475 656 511 594 l 576 724 q 600 683 582 714 q 642 622 618 653 l 550 561 z "},"س":{"ha":1157,"x_min":14,"x_max":1136,"o":"m 1136 582 l 1058 354 l 1018 360 l 1032 429 q 631 372 879 396 q 561 181 613 289 q 493 88 539 135 q 385 10 447 42 q 254 -21 322 -21 q 87 35 154 -21 q 14 181 19 90 q 85 367 39 276 q 201 556 131 457 l 246 449 q 117 299 176 386 q 206 223 157 247 q 328 199 256 199 q 446 223 390 199 q 538 294 501 247 l 414 358 l 494 558 q 1117 610 821 572 l 1136 582 z "},"ﺲ":{"ha":1217,"x_min":14,"x_max":1217,"o":"m 1217 526 l 1157 364 l 1128 339 l 993 325 l 1032 429 q 631 372 876 396 q 561 181 613 289 q 493 88 539 135 q 385 10 447 42 q 254 -21 322 -21 q 87 35 154 -21 q 14 181 19 90 q 85 367 39 276 q 201 556 131 457 l 246 449 q 117 299 176 386 q 206 223 157 247 q 328 199 256 199 q 446 223 390 199 q 538 294 501 247 l 414 358 l 494 558 q 1117 619 822 575 l 1136 592 l 1119 542 l 1208 550 l 1217 526 z "},"ﺴ":{"ha":592,"x_min":0,"x_max":592,"o":"m 81 211 l 583 264 l 592 240 l 532 78 l 503 53 l 0 0 l 81 211 z "},"ﺳ":{"ha":600,"x_min":0,"x_max":579,"o":"m 81 211 q 560 313 318 235 l 579 285 l 501 57 l 461 63 l 475 132 q 247 48 371 83 q 0 0 122 13 l 81 211 z "},"ش":{"ha":1157,"x_min":14,"x_max":1136,"o":"m 1136 582 l 1058 354 l 1018 360 l 1032 429 q 631 372 879 396 q 561 181 613 289 q 493 88 539 135 q 385 10 447 42 q 254 -21 322 -21 q 87 35 154 -21 q 14 181 19 90 q 85 367 39 276 q 201 556 131 457 l 246 449 q 117 299 176 386 q 206 223 157 247 q 328 199 256 199 q 446 223 390 199 q 538 294 501 247 l 414 358 l 494 558 q 1117 610 821 572 l 1136 582 m 650 711 l 788 889 q 818 890 797 890 q 890 882 853 890 q 956 857 926 874 l 885 751 q 765 776 824 781 l 681 694 l 650 711 z "},"ﺶ":{"ha":1217,"x_min":14,"x_max":1217,"o":"m 1217 526 l 1157 364 l 1128 339 l 993 325 l 1032 429 q 631 372 876 396 q 561 181 613 289 q 493 88 539 135 q 385 10 447 42 q 254 -21 322 -21 q 87 35 154 -21 q 14 181 19 90 q 85 367 39 276 q 201 556 131 457 l 246 449 q 117 299 176 386 q 206 223 157 247 q 328 199 256 199 q 446 223 390 199 q 538 294 501 247 l 414 358 l 494 558 q 1117 619 822 575 l 1136 592 l 1119 542 l 1208 550 l 1217 526 m 650 711 l 788 889 q 818 890 797 890 q 890 882 853 890 q 956 857 926 874 l 885 751 q 765 776 824 781 l 681 694 l 650 711 z "},"ﺸ":{"ha":592,"x_min":0,"x_max":592,"o":"m 81 211 l 583 264 l 592 240 l 532 78 l 503 53 l 0 0 l 81 211 m 213 353 l 350 531 q 381 532 360 532 q 452 524 415 532 q 518 499 489 515 l 447 393 q 328 418 386 422 l 243 336 l 213 353 z "},"ﺷ":{"ha":600,"x_min":0,"x_max":579,"o":"m 81 211 q 560 313 318 235 l 579 285 l 501 57 l 461 63 l 475 132 q 247 48 371 83 q 0 0 122 13 l 81 211 m 168 364 l 306 542 q 336 543 315 543 q 408 535 371 543 q 474 510 444 526 l 403 404 q 283 429 342 433 l 199 347 l 168 364 z "},"ص":{"ha":1168,"x_min":14,"x_max":1111,"o":"m 996 779 q 1083 743 1054 779 q 1111 629 1111 707 q 1083 474 1111 558 q 1017 356 1054 390 q 907 298 981 321 q 757 275 833 275 q 699 279 728 275 l 668 172 l 624 179 l 654 286 l 610 299 q 561 181 589 233 q 426 34 511 89 q 251 -21 342 -21 q 87 35 153 -21 q 14 181 21 92 q 83 365 38 275 q 201 556 129 456 l 246 449 q 117 297 175 385 q 209 222 160 246 q 324 199 258 199 q 538 294 461 199 l 456 392 l 533 594 q 714 483 599 506 q 767 626 744 579 q 815 703 789 674 q 895 758 846 738 q 996 779 944 779 m 800 476 q 913 487 856 476 q 1008 514 971 497 q 1046 546 1046 531 q 1025 563 1046 557 q 969 569 1004 569 q 859 553 915 569 q 775 513 803 536 l 763 478 q 800 476 775 476 z "},"ﺺ":{"ha":1188,"x_min":14,"x_max":1188,"o":"m 1188 450 l 1128 288 l 1099 263 q 893 247 947 247 q 743 296 799 247 q 719 294 735 294 q 626 310 679 294 q 575 181 601 229 q 449 39 531 99 q 265 -21 368 -21 q 100 34 169 -21 q 14 181 31 89 q 99 371 50 281 q 215 556 147 461 l 260 449 q 131 299 190 386 q 221 223 172 247 q 338 199 269 199 q 551 294 475 199 l 469 392 l 547 589 q 690 482 617 507 q 717 582 697 532 q 764 668 738 632 q 863 751 803 721 q 981 781 924 781 q 1069 743 1043 781 q 1096 633 1096 706 q 1035 458 1096 531 l 1075 463 l 1179 474 l 1188 450 m 953 567 q 853 552 901 567 q 772 515 804 538 q 733 471 739 493 q 776 468 761 468 q 884 481 826 468 q 983 513 942 494 q 1024 543 1024 531 q 1006 560 1024 553 q 953 567 989 567 z "},"ﺼ":{"ha":836,"x_min":0,"x_max":828,"o":"m 828 217 l 768 54 l 739 29 q 533 14 588 14 q 403 47 456 14 q 149 -15 286 1 l 125 -18 l 138 21 q 0 -21 81 -11 l 81 190 q 201 226 151 199 l 222 293 l 265 289 l 244 197 l 268 200 l 326 207 q 350 327 328 264 q 404 435 372 390 q 503 517 443 488 q 621 547 564 547 q 710 510 683 547 q 736 400 736 472 q 675 225 736 304 l 715 229 l 819 240 l 828 217 m 372 231 q 379 214 372 221 q 537 246 472 228 q 633 281 601 264 q 664 310 664 299 q 647 326 664 319 q 593 333 629 333 q 488 317 539 333 q 404 277 436 301 q 372 231 372 253 z "},"ﺻ":{"ha":804,"x_min":0,"x_max":753,"o":"m 638 543 q 724 507 696 543 q 753 393 753 471 q 724 238 753 322 q 658 119 696 154 q 332 10 585 50 l 310 -64 l 265 -57 l 282 3 q 158 -12 214 -7 l 118 -17 l 132 21 q 0 -21 82 -11 l 81 190 q 208 225 157 199 l 233 292 l 278 285 l 254 200 l 264 201 q 344 211 315 207 q 405 381 381 328 q 457 467 429 433 q 537 522 488 501 q 638 543 586 543 m 396 218 q 608 263 528 238 q 688 310 688 289 q 667 327 688 321 q 611 333 646 333 q 501 317 557 333 q 417 276 444 300 l 396 218 z "},"ض":{"ha":1168,"x_min":14,"x_max":1111,"o":"m 996 779 q 1083 743 1054 779 q 1111 629 1111 707 q 1083 474 1111 558 q 1017 356 1054 390 q 907 298 981 321 q 757 275 833 275 q 699 279 728 275 l 668 172 l 624 179 l 654 286 l 610 299 q 561 181 589 233 q 426 34 511 89 q 251 -21 342 -21 q 87 35 153 -21 q 14 181 21 92 q 83 365 38 275 q 201 556 129 456 l 246 449 q 117 297 175 385 q 209 222 160 246 q 324 199 258 199 q 538 294 461 199 l 456 392 l 533 594 q 714 483 599 506 q 767 626 744 579 q 815 703 789 674 q 895 758 846 738 q 996 779 944 779 m 800 476 q 913 487 856 476 q 1008 514 971 497 q 1046 546 1046 531 q 1025 563 1046 557 q 969 569 1004 569 q 859 553 915 569 q 775 513 803 536 l 763 478 q 800 476 775 476 m 981 868 q 906 963 942 901 l 1007 1031 q 1031 990 1013 1021 q 1072 929 1049 960 l 981 868 z "},"ﺾ":{"ha":1188,"x_min":14,"x_max":1188,"o":"m 1188 450 l 1128 288 l 1099 263 q 893 247 947 247 q 743 296 799 247 q 719 294 735 294 q 626 310 679 294 q 575 181 601 229 q 449 39 531 99 q 265 -21 368 -21 q 100 34 169 -21 q 14 181 31 89 q 99 371 50 281 q 215 556 147 461 l 260 449 q 131 299 190 386 q 221 223 172 247 q 338 199 269 199 q 551 294 475 199 l 469 392 l 547 589 q 690 482 617 507 q 717 582 697 532 q 764 668 738 632 q 863 751 803 721 q 981 781 924 781 q 1069 743 1043 781 q 1096 633 1096 706 q 1035 458 1096 531 l 1075 463 l 1179 474 l 1188 450 m 953 567 q 853 552 901 567 q 772 515 804 538 q 733 471 739 493 q 776 468 761 468 q 884 481 826 468 q 983 513 942 494 q 1024 543 1024 531 q 1006 560 1024 553 q 953 567 989 567 m 921 863 q 846 957 882 896 l 947 1025 q 971 985 953 1015 q 1013 924 989 954 l 921 863 z "},"ﻀ":{"ha":836,"x_min":0,"x_max":828,"o":"m 828 217 l 768 54 l 739 29 q 533 14 588 14 q 403 47 456 14 q 149 -15 286 1 l 125 -18 l 138 21 q 0 -21 81 -11 l 81 190 q 201 226 151 199 l 222 293 l 265 289 l 244 197 l 268 200 l 326 207 q 350 327 328 264 q 404 435 372 390 q 503 517 443 488 q 621 547 564 547 q 710 510 683 547 q 736 400 736 472 q 675 225 736 304 l 715 229 l 819 240 l 828 217 m 372 231 q 379 214 372 221 q 537 246 472 228 q 633 281 601 264 q 664 310 664 299 q 647 326 664 319 q 593 333 629 333 q 488 317 539 333 q 404 277 436 301 q 372 231 372 253 m 564 647 q 489 742 525 681 l 590 810 q 614 769 596 800 q 656 708 632 739 l 564 647 z "},"ﺿ":{"ha":804,"x_min":0,"x_max":753,"o":"m 638 543 q 724 507 696 543 q 753 393 753 471 q 724 238 753 322 q 658 119 696 154 q 332 10 585 50 l 310 -64 l 265 -57 l 282 3 q 158 -12 214 -7 l 118 -17 l 132 21 q 0 -21 82 -11 l 81 190 q 208 225 157 199 l 233 292 l 278 285 l 254 200 l 264 201 q 344 211 315 207 q 405 381 381 328 q 457 467 429 433 q 537 522 488 501 q 638 543 586 543 m 396 218 q 608 263 528 238 q 688 310 688 289 q 667 327 688 321 q 611 333 646 333 q 501 317 557 333 q 417 276 444 300 l 396 218 m 619 636 q 544 731 581 669 l 646 799 q 669 758 651 789 q 711 697 688 728 l 619 636 z "},"ط":{"ha":756,"x_min":0,"x_max":714,"o":"m 263 351 q 257 553 263 469 q 239 726 251 636 q 328 822 281 776 q 415 889 376 868 q 421 828 421 867 q 406 640 421 761 q 383 501 392 518 l 293 297 l 263 307 l 263 351 m 597 517 q 685 483 657 517 q 714 372 714 449 q 692 222 714 300 q 631 96 669 144 q 487 6 581 33 q 282 -22 393 -22 q 243 -19 263 -22 q 114 52 165 11 q 14 153 63 93 q 0 175 1 167 q 308 189 182 181 q 394 411 363 358 q 481 488 425 460 q 597 517 538 517 m 360 193 q 505 215 439 200 q 608 249 571 231 q 646 279 646 267 q 626 296 646 289 q 572 303 607 303 q 467 285 522 303 q 376 240 411 268 l 360 193 z "},"ﻂ":{"ha":794,"x_min":0,"x_max":808,"o":"m 258 354 q 253 556 258 472 q 235 729 247 639 q 324 825 276 779 q 411 892 372 871 q 417 831 417 869 q 401 644 417 765 q 379 504 386 524 l 289 300 l 258 310 l 258 354 m 808 174 l 749 11 l 719 -14 q 514 -29 568 -29 q 393 -1 442 -29 q 254 -21 328 -21 q 124 44 200 -10 q 8 158 47 99 q 0 174 0 171 l 128 174 q 308 181 215 174 q 334 294 313 236 q 385 392 356 351 q 484 474 424 444 q 601 504 544 504 q 690 467 664 504 q 717 357 717 429 q 699 269 717 311 q 646 181 681 226 l 696 186 l 800 197 l 808 174 m 353 186 q 563 224 481 200 q 644 267 644 247 q 627 283 644 276 q 574 290 610 290 q 468 274 519 290 q 385 234 417 258 q 353 188 353 210 l 353 186 z "},"ﻄ":{"ha":674,"x_min":0,"x_max":674,"o":"m 122 378 q 117 579 122 496 q 99 753 111 663 q 188 849 140 803 q 275 915 236 894 q 281 854 281 893 q 266 664 281 785 q 243 528 251 543 l 153 324 l 122 333 l 122 378 m 674 199 l 614 36 l 585 11 q 379 -4 433 -4 q 238 38 290 -4 q 0 -21 115 -8 l 81 190 l 119 194 l 172 200 q 198 316 176 257 q 250 417 219 375 q 349 499 289 469 q 467 529 410 529 q 556 492 529 529 q 582 382 582 454 q 511 206 582 288 l 561 211 l 665 222 l 674 199 m 218 213 q 219 207 218 208 q 442 251 374 228 q 510 292 510 274 q 492 308 510 301 q 439 315 475 315 q 333 299 385 315 q 250 259 282 283 q 218 213 218 235 z "},"ﻃ":{"ha":628,"x_min":0,"x_max":579,"o":"m 133 381 q 128 582 133 499 q 110 756 122 665 q 199 851 151 806 q 286 918 247 897 q 292 857 292 896 q 277 667 292 788 q 254 531 263 546 l 164 326 l 133 336 l 133 381 m 463 532 q 551 498 522 532 q 579 388 579 464 q 555 234 579 314 q 489 111 531 154 q 342 35 446 63 q 39 -17 239 7 l 0 -21 l 81 190 l 107 193 q 172 200 151 199 q 260 426 226 375 q 347 503 290 475 q 463 532 403 532 m 225 207 q 436 250 361 226 q 511 294 511 274 q 492 311 511 304 q 438 318 472 318 q 332 301 388 318 q 242 256 276 283 l 225 207 z "},"ظ":{"ha":756,"x_min":0,"x_max":714,"o":"m 263 351 q 257 553 263 469 q 239 726 251 636 q 328 822 281 776 q 415 889 376 868 q 421 828 421 867 q 406 640 421 761 q 383 501 392 518 l 293 297 l 263 307 l 263 351 m 597 517 q 685 483 657 517 q 714 372 714 449 q 692 222 714 300 q 631 96 669 144 q 487 6 581 33 q 282 -22 393 -22 q 243 -19 263 -22 q 114 52 165 11 q 14 153 63 93 q 0 175 1 167 q 308 189 182 181 q 394 411 363 358 q 481 488 425 460 q 597 517 538 517 m 360 193 q 505 215 439 200 q 608 249 571 231 q 646 279 646 267 q 626 296 646 289 q 572 303 607 303 q 467 285 522 303 q 376 240 411 268 l 360 193 m 596 613 q 521 707 557 646 l 622 775 q 646 735 628 765 q 688 674 664 704 l 596 613 z "},"ﻆ":{"ha":794,"x_min":0,"x_max":808,"o":"m 258 354 q 253 556 258 472 q 235 729 247 639 q 324 825 276 779 q 411 892 372 871 q 417 831 417 869 q 401 644 417 765 q 379 504 386 524 l 289 300 l 258 310 l 258 354 m 808 174 l 749 11 l 719 -14 q 514 -29 568 -29 q 393 -1 442 -29 q 254 -21 328 -21 q 124 44 200 -10 q 8 158 47 99 q 0 174 0 171 l 128 174 q 308 181 215 174 q 334 294 313 236 q 385 392 356 351 q 484 474 424 444 q 601 504 544 504 q 690 467 664 504 q 717 357 717 429 q 699 269 717 311 q 646 181 681 226 l 696 186 l 800 197 l 808 174 m 353 186 q 563 224 481 200 q 644 267 644 247 q 627 283 644 276 q 574 290 610 290 q 468 274 519 290 q 385 234 417 258 q 353 188 353 210 l 353 186 m 589 607 q 514 701 550 640 l 615 769 q 639 729 621 760 q 681 668 657 699 l 589 607 z "},"ﻈ":{"ha":674,"x_min":0,"x_max":674,"o":"m 122 378 q 117 579 122 496 q 99 753 111 663 q 188 849 140 803 q 275 915 236 894 q 281 854 281 893 q 266 664 281 785 q 243 528 251 543 l 153 324 l 122 333 l 122 378 m 674 199 l 614 36 l 585 11 q 379 -4 433 -4 q 238 38 290 -4 q 0 -21 115 -8 l 81 190 l 119 194 l 172 200 q 198 316 176 257 q 250 417 219 375 q 349 499 289 469 q 467 529 410 529 q 556 492 529 529 q 582 382 582 454 q 511 206 582 288 l 561 211 l 665 222 l 674 199 m 218 213 q 219 207 218 208 q 442 251 374 228 q 510 292 510 274 q 492 308 510 301 q 439 315 475 315 q 333 299 385 315 q 250 259 282 283 q 218 213 218 235 m 450 631 q 375 725 411 664 l 476 793 q 500 753 482 783 q 542 692 518 722 l 450 631 z "},"ﻇ":{"ha":628,"x_min":0,"x_max":579,"o":"m 133 381 q 128 582 133 499 q 110 756 122 665 q 199 851 151 806 q 286 918 247 897 q 292 857 292 896 q 277 667 292 788 q 254 531 263 546 l 164 326 l 133 336 l 133 381 m 463 532 q 551 498 522 532 q 579 388 579 464 q 555 234 579 314 q 489 111 531 154 q 342 35 446 63 q 39 -17 239 7 l 0 -21 l 81 190 l 107 193 q 172 200 151 199 q 260 426 226 375 q 347 503 290 475 q 463 532 403 532 m 225 207 q 436 250 361 226 q 511 294 511 274 q 492 311 511 304 q 438 318 472 318 q 332 301 388 318 q 242 256 276 283 l 225 207 m 467 635 q 392 729 428 668 l 493 797 q 517 757 499 788 q 558 696 535 726 l 467 635 z "},"ع":{"ha":533,"x_min":-76,"x_max":582,"o":"m 515 -340 q 582 -339 561 -340 q 501 -426 557 -385 q 366 -494 444 -468 q 200 -521 288 -521 q 1 -468 78 -521 q -76 -317 -76 -415 q -28 -153 -76 -244 q 104 28 21 -61 q 58 85 76 50 q 40 153 40 121 q 65 251 40 193 q 126 363 90 310 q 190 439 163 415 q 304 488 224 464 q 440 515 385 511 l 381 318 q 163 276 260 307 q 213 222 182 246 q 281 183 244 197 q 493 300 385 258 l 442 164 q 283 71 381 135 q 114 -57 186 7 q 42 -154 42 -121 q 110 -253 42 -211 q 288 -318 179 -296 q 515 -340 397 -340 z "},"ﻊ":{"ha":668,"x_min":0,"x_max":668,"o":"m 113 -217 q 183 -308 113 -265 q 366 -377 254 -351 q 592 -403 478 -403 q 658 -401 638 -403 q 575 -490 632 -449 q 441 -558 518 -532 q 278 -583 364 -583 q 78 -531 156 -583 q 0 -383 0 -479 q 74 -168 0 -292 q 265 81 149 -44 q 188 199 188 139 q 210 285 188 233 q 256 360 233 338 q 324 395 279 382 q 417 408 368 408 q 576 374 496 408 q 533 213 565 283 q 596 208 564 208 q 660 211 618 208 l 668 188 l 608 25 l 579 0 q 533 -3 549 -3 q 357 32 449 -3 q 187 -117 261 -43 q 113 -217 113 -192 z "},"ﻌ":{"ha":622,"x_min":0,"x_max":622,"o":"m 622 224 l 563 61 l 533 36 l 519 35 q 485 33 508 33 q 335 60 407 33 q 26 -18 222 3 l 0 -21 l 81 190 l 144 197 l 157 199 q 150 235 150 219 q 173 322 150 269 q 218 396 196 374 q 286 431 242 418 q 379 444 331 444 q 539 410 458 444 q 500 240 528 311 q 614 247 529 239 l 622 224 z "},"ﻋ":{"ha":589,"x_min":0,"x_max":589,"o":"m 589 244 l 511 33 l 0 -21 l 81 190 l 153 199 q 151 215 151 204 q 176 312 151 256 q 238 420 201 368 q 301 494 274 472 q 415 543 335 519 q 551 571 496 567 l 492 374 q 274 332 371 363 q 338 266 297 296 q 421 226 378 236 l 589 244 z "},"غ":{"ha":533,"x_min":-76,"x_max":582,"o":"m 515 -340 q 582 -339 561 -340 q 501 -426 557 -385 q 366 -494 444 -468 q 200 -521 288 -521 q 1 -468 78 -521 q -76 -317 -76 -415 q -28 -153 -76 -244 q 104 28 21 -61 q 58 85 76 50 q 40 153 40 121 q 65 251 40 193 q 126 363 90 310 q 190 439 163 415 q 304 488 224 464 q 440 515 385 511 l 381 318 q 163 276 260 307 q 213 222 182 246 q 281 183 244 197 q 493 300 385 258 l 442 164 q 283 71 381 135 q 114 -57 186 7 q 42 -154 42 -121 q 110 -253 42 -211 q 288 -318 179 -296 q 515 -340 397 -340 m 289 583 q 214 678 250 617 l 315 746 q 339 706 321 736 q 381 644 357 675 l 289 583 z "},"ﻎ":{"ha":668,"x_min":0,"x_max":668,"o":"m 113 -217 q 183 -308 113 -265 q 366 -377 254 -351 q 592 -403 478 -403 q 658 -401 638 -403 q 575 -490 632 -449 q 441 -558 518 -532 q 278 -583 364 -583 q 78 -531 156 -583 q 0 -383 0 -479 q 74 -168 0 -292 q 265 81 149 -44 q 188 199 188 139 q 210 285 188 233 q 256 360 233 338 q 324 395 279 382 q 417 408 368 408 q 576 374 496 408 q 533 213 565 283 q 596 208 564 208 q 660 211 618 208 l 668 188 l 608 25 l 579 0 q 533 -3 549 -3 q 357 32 449 -3 q 187 -117 261 -43 q 113 -217 113 -192 m 372 500 q 297 594 333 533 l 399 663 q 422 622 404 653 q 464 561 440 592 l 372 500 z "},"ﻐ":{"ha":622,"x_min":0,"x_max":622,"o":"m 622 224 l 563 61 l 533 36 l 519 35 q 485 33 508 33 q 335 60 407 33 q 26 -18 222 3 l 0 -21 l 81 190 l 144 197 l 157 199 q 150 235 150 219 q 173 322 150 269 q 218 396 196 374 q 286 431 242 418 q 379 444 331 444 q 539 410 458 444 q 500 240 528 311 q 614 247 529 239 l 622 224 m 363 529 q 288 624 324 563 l 389 692 q 413 651 394 682 q 454 590 431 621 l 363 529 z "},"ﻏ":{"ha":589,"x_min":0,"x_max":589,"o":"m 589 244 l 511 33 l 0 -21 l 81 190 l 153 199 q 151 215 151 204 q 176 312 151 256 q 238 420 201 368 q 301 494 274 472 q 415 543 335 519 q 551 571 496 567 l 492 374 q 274 332 371 363 q 338 266 297 296 q 421 226 378 236 l 589 244 m 386 639 q 311 733 347 672 l 413 801 q 436 761 418 792 q 478 700 454 731 l 386 639 z "},"ف":{"ha":1028,"x_min":25,"x_max":994,"o":"m 908 619 q 970 567 946 619 q 994 432 994 514 q 966 272 994 361 q 904 133 938 182 q 779 58 865 94 q 586 1 693 22 q 382 -21 479 -21 q 120 40 215 -21 q 25 207 25 100 q 113 381 58 300 q 260 553 168 463 l 286 433 q 149 314 217 383 q 261 219 185 249 q 469 190 338 190 q 694 212 582 190 q 885 265 807 233 l 879 317 l 810 317 q 725 333 757 317 q 693 378 693 349 q 731 471 693 413 q 819 574 768 529 q 908 619 871 619 m 861 706 q 786 800 822 739 l 888 868 q 911 828 893 858 q 953 767 929 797 l 861 706 z "},"ﻒ":{"ha":1064,"x_min":-7,"x_max":1064,"o":"m 1064 232 l 1004 69 l 975 44 l 949 42 q 897 39 913 39 q 744 69 810 39 q 350 -21 575 -21 q 88 40 183 -21 q -7 207 -7 100 q 81 381 26 300 q 228 553 136 463 l 254 433 q 117 314 185 383 q 228 220 151 250 q 436 190 304 190 q 618 207 526 190 q 614 240 614 224 q 635 331 614 276 q 684 437 656 386 q 733 507 713 488 q 842 546 772 546 q 944 516 903 546 q 986 433 986 486 q 935 246 986 333 q 1004 250 967 246 l 1056 256 l 1064 232 m 710 342 q 793 265 729 289 q 886 328 843 289 q 782 357 839 357 q 710 342 743 357 m 856 632 q 781 726 817 665 l 882 794 q 906 754 888 785 q 947 693 924 724 l 856 632 z "},"ﻔ":{"ha":596,"x_min":0,"x_max":596,"o":"m 596 219 l 536 57 l 507 32 l 481 29 q 431 26 447 26 q 283 56 350 26 q 63 -14 183 -1 l 0 -21 l 78 190 l 150 197 q 146 232 146 217 q 167 323 146 268 q 216 428 188 378 q 265 499 244 479 q 374 538 304 538 q 476 508 435 538 q 518 425 518 478 q 464 233 518 328 q 536 238 496 233 l 588 243 l 596 219 m 314 349 q 242 333 275 349 q 331 251 261 278 q 419 318 383 281 q 314 349 374 349 m 367 633 q 292 728 328 667 l 393 796 q 417 756 399 786 q 458 694 435 725 l 367 633 z "},"ﻓ":{"ha":475,"x_min":0,"x_max":431,"o":"m 344 576 q 406 524 382 576 q 431 389 431 471 q 403 230 431 321 q 340 90 376 139 q 240 26 313 56 q 54 -15 167 -3 l 0 -21 l 81 190 l 167 199 q 321 226 249 208 l 315 274 l 246 274 q 161 290 193 274 q 129 335 129 306 q 169 426 129 368 q 261 531 210 485 q 344 576 313 576 m 318 665 q 243 760 279 699 l 344 828 q 368 788 350 818 q 410 726 386 757 l 318 665 z "},"ڤ":{"ha":1028,"x_min":25,"x_max":1032,"o":"m 908 619 q 970 567 946 619 q 994 432 994 514 q 966 272 994 361 q 904 133 938 182 q 779 58 865 94 q 586 1 693 22 q 382 -21 479 -21 q 120 40 215 -21 q 25 207 25 100 q 113 381 58 300 q 260 553 168 463 l 286 433 q 149 314 217 383 q 261 219 185 249 q 469 190 338 190 q 694 212 582 190 q 885 265 807 233 l 879 317 l 810 317 q 725 333 757 317 q 693 378 693 349 q 731 471 693 413 q 819 574 768 529 q 908 619 871 619 m 726 667 l 864 844 q 894 846 874 846 q 966 838 929 846 q 1032 813 1003 829 l 961 707 q 842 732 900 736 l 757 650 l 726 667 z "},"ﭫ":{"ha":1064,"x_min":-7,"x_max":1064,"o":"m 1064 232 l 1004 69 l 975 44 l 949 42 q 897 39 913 39 q 744 69 810 39 q 350 -21 575 -21 q 88 40 183 -21 q -7 207 -7 100 q 81 381 26 300 q 228 553 136 463 l 254 433 q 117 314 185 383 q 228 220 151 250 q 436 190 304 190 q 618 207 526 190 q 614 240 614 224 q 635 331 614 276 q 684 437 656 386 q 733 507 713 488 q 842 546 772 546 q 944 516 903 546 q 986 433 986 486 q 935 246 986 333 q 1004 250 967 246 l 1056 256 l 1064 232 m 710 342 q 793 265 729 289 q 886 328 843 289 q 782 357 839 357 q 710 342 743 357 m 688 599 l 825 776 q 856 778 835 778 q 927 769 890 778 q 993 744 964 761 l 922 639 q 803 664 861 668 l 718 582 l 688 599 z "},"ﭭ":{"ha":596,"x_min":0,"x_max":596,"o":"m 596 219 l 536 57 l 507 32 l 481 29 q 431 26 447 26 q 283 56 350 26 q 63 -14 183 -1 l 0 -21 l 78 190 l 150 197 q 146 232 146 217 q 167 323 146 268 q 216 428 188 378 q 265 499 244 479 q 374 538 304 538 q 476 508 435 538 q 518 425 518 478 q 464 233 518 328 q 536 238 496 233 l 588 243 l 596 219 m 314 349 q 242 333 275 349 q 331 251 261 278 q 419 318 383 281 q 314 349 374 349 m 232 594 l 369 772 q 400 774 379 774 q 472 765 435 774 q 538 740 508 757 l 467 635 q 347 660 406 664 l 263 578 l 232 594 z "},"ﭬ":{"ha":475,"x_min":0,"x_max":489,"o":"m 344 576 q 406 524 382 576 q 431 389 431 471 q 403 230 431 321 q 340 90 376 139 q 240 26 313 56 q 54 -15 167 -3 l 0 -21 l 81 190 l 167 199 q 321 226 249 208 l 315 274 l 246 274 q 161 290 193 274 q 129 335 129 306 q 169 426 129 368 q 261 531 210 485 q 344 576 313 576 m 183 626 l 321 804 q 351 806 331 806 q 423 797 386 806 q 489 772 460 789 l 418 667 q 299 692 357 696 l 214 610 l 183 626 z "},"ڡ":{"ha":1028,"x_min":25,"x_max":994,"o":"m 908 619 q 970 567 946 619 q 994 432 994 514 q 966 272 994 361 q 904 133 938 182 q 779 58 865 94 q 586 1 693 22 q 382 -21 479 -21 q 120 40 215 -21 q 25 207 25 100 q 113 381 58 300 q 260 553 168 463 l 286 433 q 149 314 217 383 q 261 219 185 249 q 469 190 338 190 q 694 212 582 190 q 885 265 807 233 l 879 317 l 810 317 q 725 333 757 317 q 693 378 693 349 q 731 471 693 413 q 819 574 768 529 q 908 619 871 619 z "},"ٯ":{"ha":743,"x_min":21,"x_max":708,"o":"m 619 633 q 683 578 657 633 q 708 440 708 522 q 690 300 708 374 q 644 172 672 226 q 492 34 596 89 q 282 -21 389 -21 q 100 35 172 -21 q 21 181 28 92 q 97 360 47 276 q 231 542 146 444 l 265 425 q 191 356 229 394 q 128 285 153 317 q 354 190 203 190 q 485 210 421 190 q 597 263 550 229 l 589 331 l 524 331 q 438 347 469 331 q 407 392 407 363 q 445 488 407 429 q 535 590 483 546 q 619 633 586 633 z "},"ق":{"ha":849,"x_min":8,"x_max":815,"o":"m 726 633 q 790 578 764 633 q 815 440 815 522 q 797 300 815 374 q 751 172 779 226 q 599 34 703 89 q 389 -21 496 -21 q 207 35 279 -21 q 128 181 135 92 q 222 386 156 282 q 172 392 196 392 q 90 376 122 392 q 38 329 58 361 l 8 340 q 246 576 88 576 q 314 567 275 576 q 382 543 353 557 l 318 365 q 229 292 260 328 q 461 190 306 190 q 592 210 528 190 q 704 263 657 229 l 696 331 l 631 331 q 545 347 576 331 q 514 392 514 363 q 552 488 514 429 q 642 590 590 546 q 726 633 693 633 z "},"ﻖ":{"ha":932,"x_min":8,"x_max":932,"o":"m 932 526 l 872 364 l 843 339 l 806 335 q 751 172 789 242 q 599 34 703 89 q 389 -21 496 -21 q 207 35 279 -21 q 128 181 135 92 q 222 386 156 282 q 172 392 196 392 q 90 376 122 392 q 38 329 58 361 l 8 340 q 246 576 88 576 q 314 567 275 576 q 382 543 353 557 l 318 365 q 229 292 260 328 q 461 190 306 190 q 592 210 528 190 q 704 263 657 229 l 696 331 l 631 331 q 545 347 576 331 q 514 392 514 363 q 552 488 514 429 q 642 590 590 546 q 726 633 693 633 q 772 608 751 633 q 804 538 793 582 l 924 550 l 932 526 z "},"ﻘ":{"ha":596,"x_min":0,"x_max":596,"o":"m 596 219 l 536 57 l 507 32 l 481 29 q 431 26 447 26 q 283 56 350 26 q 63 -14 183 -1 l 0 -21 l 78 190 l 150 197 q 146 232 146 217 q 167 323 146 268 q 216 428 188 378 q 265 499 244 479 q 374 538 304 538 q 476 508 435 538 q 518 425 518 478 q 464 233 518 328 q 536 238 496 233 l 588 243 l 596 219 m 314 349 q 242 333 275 349 q 331 251 261 278 q 419 318 383 281 q 314 349 374 349 m 271 711 l 522 779 l 494 674 l 247 619 l 271 711 z "},"ﻗ":{"ha":475,"x_min":0,"x_max":474,"o":"m 344 576 q 406 524 382 576 q 431 389 431 471 q 403 230 431 321 q 340 90 376 139 q 240 26 313 56 q 54 -15 167 -3 l 0 -21 l 81 190 l 167 199 q 321 226 249 208 l 315 274 l 246 274 q 161 290 193 274 q 129 335 129 306 q 169 426 129 368 q 261 531 210 485 q 344 576 313 576 m 222 743 l 474 811 l 446 706 l 199 651 l 222 743 z "},"ك":{"ha":844,"x_min":21,"x_max":803,"o":"m 763 860 q 790 672 778 818 q 803 392 803 525 q 793 308 803 364 q 765 197 783 251 q 722 111 746 142 q 555 18 663 57 q 339 -21 447 -21 q 199 -3 268 -21 q 82 46 131 15 q 21 111 33 76 q 79 285 21 174 q 231 505 138 397 q 425 667 324 613 l 531 443 q 426 306 492 368 q 394 304 415 304 q 260 324 329 304 l 346 414 l 418 401 l 368 493 q 252 391 313 454 q 147 268 192 328 q 234 212 165 233 q 403 190 303 190 q 567 208 490 190 q 696 251 644 225 q 659 456 688 335 q 601 663 631 576 q 679 775 635 721 q 763 860 724 829 z "},"ﻚ":{"ha":915,"x_min":21,"x_max":915,"o":"m 915 396 l 856 233 l 826 208 l 767 201 q 722 111 746 139 q 555 18 663 57 q 339 -21 447 -21 q 199 -3 268 -21 q 82 46 131 15 q 21 111 33 76 q 79 285 21 174 q 231 505 138 397 q 425 667 324 613 l 531 443 q 426 306 492 368 q 394 304 415 304 q 260 324 329 304 l 346 414 l 418 401 l 368 493 q 252 391 313 454 q 147 268 192 328 q 234 212 165 233 q 403 190 303 190 q 567 208 490 190 q 696 251 644 225 q 659 456 688 335 q 601 663 631 576 q 679 775 635 721 q 763 860 724 829 q 789 681 776 819 q 803 408 801 542 l 907 419 l 915 396 z "},"ﻜ":{"ha":844,"x_min":0,"x_max":844,"o":"m 408 939 q 844 1194 590 1071 q 751 1006 818 1094 q 335 797 521 907 l 318 815 q 408 939 367 892 m 439 221 l 447 197 l 388 35 l 358 10 l 224 -4 q 228 174 228 83 q 225 233 228 194 q 169 78 200 140 q 0 43 94 53 l 81 254 q 221 279 156 261 q 140 581 203 428 q 218 693 174 639 q 301 778 263 747 q 328 634 315 744 q 342 438 342 524 q 338 306 342 368 q 328 210 333 243 l 439 221 z "},"ﻛ":{"ha":594,"x_min":0,"x_max":817,"o":"m 381 950 q 817 1206 563 1082 q 724 1017 790 1106 q 307 808 493 918 l 290 826 q 381 950 339 903 m 278 789 q 296 669 289 754 q 308 381 308 528 q 301 228 308 256 q 206 31 257 93 q 0 -21 133 -8 l 81 190 q 186 204 118 193 q 117 619 167 389 q 196 718 151 671 q 278 789 240 765 z "},"ل":{"ha":719,"x_min":22,"x_max":678,"o":"m 638 863 q 665 674 653 821 q 678 394 678 528 q 668 310 678 367 q 640 199 658 254 q 597 114 621 144 q 458 19 546 58 q 279 -21 369 -21 q 112 24 186 -21 q 22 133 38 68 q 103 323 35 208 q 249 506 171 438 l 269 386 q 193 321 232 358 q 132 254 154 283 q 206 208 154 225 q 329 190 257 190 q 466 208 404 190 q 571 253 528 225 q 534 458 563 336 q 476 665 506 581 q 554 778 510 724 q 638 863 599 832 z "},"ﻞ":{"ha":719,"x_min":22,"x_max":785,"o":"m 785 396 l 725 233 l 696 208 l 640 203 q 597 114 622 146 q 458 19 546 58 q 279 -21 369 -21 q 112 24 186 -21 q 22 133 38 68 q 103 323 35 208 q 249 506 171 438 l 269 386 q 193 321 232 358 q 132 254 154 283 q 206 208 154 225 q 329 190 257 190 q 466 208 404 190 q 571 253 528 225 q 534 458 563 336 q 476 665 506 581 q 554 778 510 724 q 638 863 599 832 q 664 683 651 822 q 678 408 676 543 l 776 419 l 785 396 z "},"ﻠ":{"ha":447,"x_min":0,"x_max":447,"o":"m 447 197 l 388 35 l 358 10 l 225 -4 q 228 174 228 54 q 226 224 228 207 q 169 64 203 136 q 0 29 94 39 l 81 240 q 224 267 160 247 q 192 457 215 363 q 140 621 169 551 q 218 733 174 679 q 301 818 263 788 q 328 674 315 785 q 342 478 342 564 q 338 322 342 396 q 328 210 333 247 l 439 221 l 447 197 z "},"ﻟ":{"ha":456,"x_min":0,"x_max":400,"o":"m 360 842 q 388 653 375 800 q 400 374 400 507 q 390 288 400 344 q 362 176 381 232 q 317 93 343 121 q 186 20 268 50 q 0 -21 104 -10 l 81 190 q 191 209 133 196 q 292 239 249 222 q 256 439 283 321 q 199 644 228 557 q 276 757 232 703 q 360 842 321 811 z "},"م":{"ha":617,"x_min":-7,"x_max":575,"o":"m 454 472 q 539 453 503 472 q 575 408 575 435 q 550 274 575 342 q 488 157 525 207 q 413 90 450 107 q 156 40 313 61 l 171 -229 q 56 -444 147 -389 l -7 26 q 46 117 3 67 q 143 205 89 167 q 238 247 197 243 l 271 251 q 267 274 267 263 q 290 363 267 304 q 336 439 314 422 q 390 463 358 454 q 454 472 421 472 z "},"ﻢ":{"ha":664,"x_min":-7,"x_max":664,"o":"m 664 494 l 604 332 l 575 307 l 535 303 l 522 301 q 535 267 535 283 q 497 150 535 214 q 408 47 458 86 q 156 4 335 24 l 171 -265 q 56 -481 147 -425 l -7 -10 q 49 83 4 31 q 150 174 94 135 q 244 217 206 213 q 272 218 253 218 l 272 221 q 308 343 272 260 q 374 453 344 426 q 603 513 410 492 l 656 518 l 664 494 z "},"ﻤ":{"ha":515,"x_min":0,"x_max":515,"o":"m 515 471 l 456 308 l 426 283 l 386 279 l 374 278 q 386 243 386 260 q 348 126 386 190 q 260 24 310 63 q 158 0 213 10 q 0 -21 104 -10 l 81 190 l 121 194 l 124 194 l 124 197 q 141 266 124 217 q 182 363 158 315 q 225 429 206 411 q 454 489 261 468 l 507 494 l 515 471 z "},"ﻣ":{"ha":503,"x_min":0,"x_max":461,"o":"m 340 429 q 425 410 389 429 q 461 365 461 392 q 439 231 461 297 q 380 116 417 165 q 303 44 343 67 q 0 -21 186 -1 l 81 190 l 119 194 q 161 200 147 197 q 153 231 153 217 q 176 320 153 261 q 222 396 199 379 q 274 420 243 411 q 340 429 306 429 z "},"ن":{"ha":721,"x_min":-7,"x_max":679,"o":"m 593 607 q 653 517 626 574 q 679 421 679 460 q 659 303 679 382 q 610 174 639 225 q 461 35 563 90 q 256 -21 360 -21 q 73 35 147 -21 q -7 181 -1 90 q 74 380 17 274 q 211 583 132 486 q 356 549 279 574 l 294 375 q 200 406 254 392 q 100 283 154 357 q 194 215 136 239 q 321 190 251 190 q 463 214 396 190 q 576 279 529 238 q 446 449 542 371 l 593 607 z "},"ﻦ":{"ha":914,"x_min":49,"x_max":914,"o":"m 914 400 l 854 238 l 825 213 l 700 199 l 667 135 q 588 16 625 53 q 500 -21 550 -21 q 414 16 446 -21 q 343 125 382 53 q 288 216 313 186 q 226 246 263 246 l 222 246 q 88 26 144 142 l 49 44 q 174 271 107 164 q 304 442 242 378 q 365 424 340 442 q 406 383 390 407 q 446 315 422 358 q 505 222 476 254 q 583 190 533 190 q 650 223 621 190 q 715 344 679 256 l 740 406 l 906 424 l 914 400 z "},"ﻨ":{"ha":400,"x_min":-7,"x_max":400,"o":"m 400 200 l 340 38 l 311 13 l 158 -3 l 175 54 q -7 -21 128 -7 l 74 190 q 229 231 171 200 l 260 332 l 304 328 l 279 213 l 392 224 l 400 200 m 261 468 q 186 563 222 501 l 288 631 q 311 590 293 621 q 353 529 329 560 l 261 468 z "},"ﻧ":{"ha":321,"x_min":0,"x_max":283,"o":"m 268 340 q 178 11 249 156 q 0 -21 114 -8 l 81 190 q 193 211 150 199 q 224 342 213 288 l 268 340 m 192 457 q 117 551 153 490 l 218 619 q 242 579 224 610 q 283 518 260 549 l 192 457 z "},"ه":{"ha":596,"x_min":43,"x_max":547,"o":"m 481 490 q 528 409 508 463 q 547 308 547 356 q 508 152 547 229 q 404 27 469 75 q 265 -21 339 -21 q 169 10 211 -21 q 113 88 126 40 q 149 254 118 156 q 50 204 94 231 q 43 310 43 257 q 56 432 43 386 q 203 497 108 468 q 368 525 297 525 q 481 490 446 525 m 275 190 q 408 229 346 190 q 486 318 471 268 q 433 324 464 324 q 210 278 343 324 q 197 214 201 246 q 275 190 225 190 z "},"ﻪ":{"ha":674,"x_min":42,"x_max":674,"o":"m 674 208 l 614 46 l 585 21 l 411 1 l 414 38 q 432 321 431 263 q 329 201 374 229 q 270 177 304 186 q 204 168 236 168 q 86 214 131 168 q 42 319 42 260 q 94 484 42 394 q 221 636 146 574 q 358 699 296 699 q 530 617 469 699 q 590 386 590 535 q 586 308 589 357 q 581 224 583 260 l 665 232 l 674 208 m 319 361 q 424 390 379 361 q 360 465 407 443 q 233 488 313 488 q 154 475 189 488 q 213 393 164 425 q 319 361 261 361 z "},"ﻬ":{"ha":796,"x_min":0,"x_max":796,"o":"m 796 100 l 736 -62 l 707 -87 l 667 -92 q 631 3 656 -24 q 571 31 607 31 q 419 -48 501 31 q 274 -247 338 -126 q 190 -486 210 -368 l 158 -486 l 96 -33 l 0 -43 l 81 168 l 233 185 l 261 -172 q 351 20 289 -74 q 490 174 414 114 q 633 233 567 233 q 701 207 675 233 q 736 118 726 181 l 788 124 l 796 100 z "},"ﻫ":{"ha":822,"x_min":0,"x_max":781,"o":"m 517 851 q 661 794 601 851 q 751 649 721 736 q 781 475 781 563 q 756 300 781 374 q 697 167 732 226 q 606 103 667 136 q 478 49 546 71 q 363 28 411 28 q 281 42 322 28 q 0 -21 172 -3 l 81 190 l 158 199 q 156 225 156 215 q 243 456 175 351 q 403 597 311 560 q 483 521 449 581 q 517 392 517 461 q 479 246 517 321 q 658 286 592 263 q 614 483 656 389 q 507 636 572 578 q 372 694 442 694 q 293 673 335 694 q 193 597 251 651 l 169 615 q 276 739 214 685 q 401 822 338 793 q 517 851 465 851 m 326 435 l 338 439 l 326 435 m 293 415 q 244 356 253 382 q 283 285 249 318 q 367 242 318 251 q 375 293 375 269 q 351 372 375 338 q 293 415 326 407 z "},"ة":{"ha":596,"x_min":43,"x_max":547,"o":"m 481 490 q 528 409 508 463 q 547 308 547 356 q 508 152 547 229 q 404 27 469 75 q 265 -21 339 -21 q 169 10 211 -21 q 113 88 126 40 q 149 254 118 156 q 50 204 94 231 q 43 310 43 257 q 56 432 43 386 q 203 497 108 468 q 368 525 297 525 q 481 490 446 525 m 275 190 q 408 229 346 190 q 486 318 471 268 q 433 324 464 324 q 210 278 343 324 q 197 214 201 246 q 275 190 225 190 m 213 688 l 464 756 l 436 650 l 189 596 l 213 688 z "},"ﺔ":{"ha":674,"x_min":42,"x_max":674,"o":"m 674 208 l 614 46 l 585 21 l 411 1 l 414 38 q 432 321 431 263 q 329 201 374 229 q 270 177 304 186 q 204 168 236 168 q 86 214 131 168 q 42 319 42 260 q 94 484 42 394 q 221 636 146 574 q 358 699 296 699 q 530 617 469 699 q 590 386 590 535 q 586 308 589 357 q 581 224 583 260 l 665 232 l 674 208 m 319 361 q 424 390 379 361 q 360 465 407 443 q 233 488 313 488 q 154 475 189 488 q 213 393 164 425 q 319 361 261 361 m 232 851 l 483 919 l 456 814 l 208 760 l 232 851 z "},"و":{"ha":586,"x_min":-35,"x_max":544,"o":"m 544 407 q 505 201 544 300 q 393 41 465 103 q 231 -21 321 -21 q 86 10 168 -21 q -35 79 4 42 q 210 160 75 111 q 433 250 346 210 l 425 299 l 360 299 q 275 315 307 299 q 243 360 243 331 q 281 453 243 394 q 369 556 318 511 q 458 601 421 601 q 520 547 496 601 q 544 407 544 493 z "},"ﻮ":{"ha":688,"x_min":-35,"x_max":688,"o":"m 688 497 l 628 335 l 599 310 l 535 303 q 476 141 518 215 q 370 23 433 67 q 231 -21 307 -21 q 86 10 168 -21 q -35 79 4 42 q 210 160 75 111 q 433 250 346 210 l 425 299 l 360 299 q 275 315 307 299 q 243 360 243 331 q 281 453 243 394 q 369 556 318 511 q 458 601 421 601 q 503 576 483 601 q 533 507 522 551 l 679 521 l 688 497 z "},"ؤ":{"ha":586,"x_min":-35,"x_max":544,"o":"m 544 407 q 505 201 544 300 q 393 41 465 103 q 231 -21 321 -21 q 86 10 168 -21 q -35 79 4 42 q 210 160 75 111 q 433 250 346 210 l 425 299 l 360 299 q 275 315 307 299 q 243 360 243 331 q 281 453 243 394 q 369 556 318 511 q 458 601 421 601 q 520 547 496 601 q 544 407 544 493 m 543 786 l 467 703 l 269 650 l 253 665 l 332 731 q 288 813 288 765 q 327 899 288 863 q 428 936 367 936 q 476 931 450 936 q 519 917 503 925 l 467 817 q 425 832 451 825 q 375 839 399 839 q 342 833 354 839 q 329 817 329 826 q 359 791 329 803 q 425 779 389 779 q 526 800 485 779 l 543 786 z "},"ﺆ":{"ha":688,"x_min":-35,"x_max":688,"o":"m 688 497 l 628 335 l 599 310 l 535 303 q 476 141 518 215 q 370 23 433 67 q 231 -21 307 -21 q 86 10 168 -21 q -35 79 4 42 q 210 160 75 111 q 433 250 346 210 l 425 299 l 360 299 q 275 315 307 299 q 243 360 243 331 q 281 453 243 394 q 369 556 318 511 q 458 601 421 601 q 503 576 483 601 q 533 507 522 551 l 679 521 l 688 497 m 543 786 l 467 703 l 269 650 l 253 665 l 332 731 q 288 813 288 765 q 327 899 288 863 q 428 936 367 936 q 476 931 450 936 q 519 917 503 925 l 467 817 q 425 832 451 825 q 375 839 399 839 q 342 833 354 839 q 329 817 329 826 q 359 791 329 803 q 425 779 389 779 q 526 800 485 779 l 543 786 z "},"ى":{"ha":936,"x_min":35,"x_max":911,"o":"m 821 658 q 675 617 747 649 q 558 543 603 585 q 704 527 622 542 q 839 493 786 513 q 794 270 818 349 q 732 149 769 192 q 549 28 668 76 q 306 -21 431 -21 q 121 38 199 -21 q 35 201 43 97 q 153 444 82 332 q 335 658 224 556 l 364 528 q 242 419 289 469 q 157 311 194 369 q 249 227 193 256 q 392 199 306 199 q 593 234 500 199 q 747 326 686 269 q 599 354 692 342 q 439 368 507 367 q 521 585 467 481 q 694 761 594 692 q 911 861 793 831 l 821 658 z "},"ﻰ":{"ha":982,"x_min":35,"x_max":954,"o":"m 954 763 l 894 600 l 865 575 q 608 539 761 565 q 734 520 671 533 q 839 493 797 507 q 794 270 818 349 q 732 149 769 192 q 550 28 669 76 q 306 -21 431 -21 q 121 38 199 -21 q 35 201 43 97 q 153 444 82 332 q 335 658 224 556 l 364 528 q 242 419 289 469 q 157 311 194 369 q 249 227 193 256 q 392 199 306 199 q 594 234 500 199 q 747 326 688 269 q 592 360 690 344 q 418 378 493 375 q 553 690 475 564 q 731 749 628 725 q 946 786 833 774 l 954 763 z "},"ي":{"ha":936,"x_min":35,"x_max":911,"o":"m 821 658 q 675 617 747 649 q 558 543 603 585 q 704 527 622 542 q 839 493 786 513 q 794 270 818 349 q 732 149 769 192 q 549 28 668 76 q 306 -21 431 -21 q 121 38 199 -21 q 35 201 43 97 q 153 444 82 332 q 335 658 224 556 l 364 528 q 242 419 289 469 q 157 311 194 369 q 249 227 193 256 q 392 199 306 199 q 593 234 500 199 q 747 326 686 269 q 599 354 692 342 q 439 368 507 367 q 521 585 467 481 q 694 761 594 692 q 911 861 793 831 l 821 658 m 221 -158 l 472 -90 l 444 -196 l 197 -250 l 221 -158 z "},"ﻲ":{"ha":982,"x_min":35,"x_max":954,"o":"m 954 763 l 894 600 l 865 575 q 608 539 761 565 q 734 520 671 533 q 839 493 797 507 q 794 270 818 349 q 732 149 769 192 q 550 28 669 76 q 306 -21 431 -21 q 121 38 199 -21 q 35 201 43 97 q 153 444 82 332 q 335 658 224 556 l 364 528 q 242 419 289 469 q 157 311 194 369 q 249 227 193 256 q 392 199 306 199 q 594 234 500 199 q 747 326 688 269 q 592 360 690 344 q 418 378 493 375 q 553 690 475 564 q 731 749 628 725 q 946 786 833 774 l 954 763 m 265 -158 l 517 -90 l 489 -196 l 242 -250 l 265 -158 z "},"ﻴ":{"ha":400,"x_min":-7,"x_max":400,"o":"m 400 200 l 340 38 l 311 13 l 158 -3 l 175 54 q -7 -21 128 -7 l 74 190 q 229 231 171 200 l 260 332 l 304 328 l 279 213 l 392 224 l 400 200 m 40 -156 l 292 -87 l 264 -193 l 17 -247 l 40 -156 z "},"ﻳ":{"ha":321,"x_min":-26,"x_max":268,"o":"m 268 340 q 178 11 249 156 q 0 -21 114 -8 l 81 190 q 193 211 150 199 q 224 342 213 288 l 268 340 m -3 -158 l 249 -90 l 221 -196 l -26 -250 l -3 -158 z "},"ئ":{"ha":936,"x_min":35,"x_max":911,"o":"m 821 658 q 675 617 747 649 q 558 543 603 585 q 704 527 622 542 q 839 493 786 513 q 794 270 818 349 q 732 149 769 192 q 549 28 668 76 q 306 -21 431 -21 q 121 38 199 -21 q 35 201 43 97 q 153 444 82 332 q 335 658 224 556 l 364 528 q 242 419 289 469 q 157 311 194 369 q 249 227 193 256 q 392 199 306 199 q 593 234 500 199 q 747 326 686 269 q 599 354 692 342 q 439 368 507 367 q 521 585 467 481 q 694 761 594 692 q 911 861 793 831 l 821 658 m 413 838 l 336 754 l 139 701 l 122 717 l 201 782 q 157 864 157 817 q 197 951 157 914 q 297 988 236 988 q 346 982 319 988 q 389 968 372 976 l 336 868 q 294 883 321 876 q 244 890 268 890 q 211 884 224 890 q 199 868 199 878 q 228 842 199 854 q 294 831 258 831 q 396 851 354 831 l 413 838 z "},"ﺊ":{"ha":982,"x_min":35,"x_max":954,"o":"m 954 763 l 894 600 l 865 575 q 608 539 761 565 q 734 520 671 533 q 839 493 797 507 q 794 270 818 349 q 732 149 769 192 q 550 28 669 76 q 306 -21 431 -21 q 121 38 199 -21 q 35 201 43 97 q 153 444 82 332 q 335 658 224 556 l 364 528 q 242 419 289 469 q 157 311 194 369 q 249 227 193 256 q 392 199 306 199 q 594 234 500 199 q 747 326 688 269 q 592 360 690 344 q 418 378 493 375 q 553 690 475 564 q 731 749 628 725 q 946 786 833 774 l 954 763 m 413 838 l 336 754 l 139 701 l 122 717 l 201 782 q 157 864 157 817 q 197 951 157 914 q 297 988 236 988 q 346 982 319 988 q 389 968 372 976 l 336 868 q 294 883 321 876 q 244 890 268 890 q 211 884 224 890 q 199 868 199 878 q 228 842 199 854 q 294 831 258 831 q 396 851 354 831 l 413 838 z "},"ﺌ":{"ha":400,"x_min":-7,"x_max":436,"o":"m 400 200 l 340 38 l 311 13 l 158 -3 l 175 54 q -7 -21 128 -7 l 74 190 q 229 231 171 200 l 260 332 l 304 328 l 279 213 l 392 224 l 400 200 m 436 583 l 360 500 l 163 447 l 146 463 l 225 528 q 181 610 181 563 q 220 697 181 660 q 321 733 260 733 q 369 728 343 733 q 413 714 396 722 l 360 614 q 318 629 344 622 q 268 636 292 636 q 235 630 247 636 q 222 614 222 624 q 252 588 222 600 q 318 576 282 576 q 419 597 378 576 l 436 583 z "},"ﺋ":{"ha":321,"x_min":0,"x_max":367,"o":"m 268 340 q 178 11 249 156 q 0 -21 114 -8 l 81 190 q 193 211 150 199 q 224 342 213 288 l 268 340 m 367 572 l 290 489 l 93 436 l 76 451 l 156 517 q 111 599 111 551 q 151 685 111 649 q 251 722 190 722 q 300 717 274 722 q 343 703 326 711 l 290 603 q 249 618 275 611 q 199 625 222 625 q 165 619 178 625 q 153 603 153 613 q 183 577 153 589 q 249 565 213 565 q 350 586 308 565 l 367 572 z "},"ـ":{"ha":468,"x_min":0,"x_max":468,"o":"m 81 229 l 460 269 l 468 246 l 408 83 l 379 58 l 0 18 l 81 229 z "},"ﻻ":{"ha":911,"x_min":0,"x_max":856,"o":"m 813 853 q 841 699 826 813 q 856 475 856 585 q 853 386 856 415 q 804 241 849 338 q 721 104 760 144 q 560 -3 667 47 q 378 -53 454 -53 q 245 -22 321 -53 q 101 56 169 10 q 0 146 33 103 q 181 159 71 146 q 410 194 290 172 q 363 391 396 278 q 297 579 329 504 q 367 697 326 639 q 444 786 408 754 q 488 599 465 739 q 508 338 510 458 l 451 203 q 746 278 649 243 q 709 464 738 357 q 651 656 681 571 q 729 768 685 714 q 813 853 774 822 z "},"ﻼ":{"ha":935,"x_min":0,"x_max":935,"o":"m 935 189 l 875 26 l 846 1 l 767 -7 l 740 -7 q 746 168 746 69 l 746 193 q 576 18 678 89 q 378 -53 475 -53 q 245 -22 321 -53 q 101 56 169 10 q 0 146 33 103 q 181 159 71 146 q 410 194 292 172 q 363 391 396 278 q 297 579 329 504 q 367 697 326 639 q 444 786 408 754 q 488 599 465 739 q 508 338 510 458 l 451 201 q 740 269 656 242 q 703 480 729 369 q 650 657 676 590 q 730 767 682 713 q 819 854 778 821 q 847 710 833 821 q 860 514 860 600 q 846 204 860 336 l 926 213 l 935 189 z "},"ﻷ":{"ha":911,"x_min":0,"x_max":856,"o":"m 813 853 q 841 699 826 813 q 856 475 856 585 q 853 386 856 415 q 804 241 849 338 q 721 104 760 144 q 560 -3 667 47 q 378 -53 454 -53 q 245 -22 321 -53 q 101 56 169 10 q 0 146 33 103 q 181 159 71 146 q 410 194 290 172 q 363 391 396 278 q 297 579 329 504 q 367 697 326 639 q 444 786 408 754 q 488 599 465 739 q 508 338 510 458 l 451 203 q 746 278 649 243 q 709 464 738 357 q 651 656 681 571 q 729 768 685 714 q 813 853 774 822 m 499 892 l 422 808 l 225 756 l 208 771 l 288 836 q 243 918 243 871 q 283 1005 243 968 q 383 1042 322 1042 q 432 1036 406 1042 q 475 1022 458 1031 l 422 922 q 381 938 407 931 q 331 944 354 944 q 297 938 310 944 q 285 922 285 932 q 315 897 285 908 q 381 885 344 885 q 482 906 440 885 l 499 892 z "},"ﻸ":{"ha":935,"x_min":0,"x_max":935,"o":"m 935 189 l 875 26 l 846 1 l 767 -7 l 740 -7 q 746 168 746 69 l 746 193 q 576 18 678 89 q 378 -53 475 -53 q 245 -22 321 -53 q 101 56 169 10 q 0 146 33 103 q 181 159 71 146 q 410 194 292 172 q 363 391 396 278 q 297 579 329 504 q 367 697 326 639 q 444 786 408 754 q 488 599 465 739 q 508 338 510 458 l 451 201 q 740 269 656 242 q 703 480 729 369 q 650 657 676 590 q 730 767 682 713 q 819 854 778 821 q 847 710 833 821 q 860 514 860 600 q 846 204 860 336 l 926 213 l 935 189 m 499 892 l 422 808 l 225 756 l 208 771 l 288 836 q 243 918 243 871 q 283 1005 243 968 q 383 1042 322 1042 q 432 1036 406 1042 q 475 1022 458 1031 l 422 922 q 381 938 407 931 q 331 944 354 944 q 297 938 310 944 q 285 922 285 932 q 315 897 285 908 q 381 885 344 885 q 482 906 440 885 l 499 892 z "},"ﻹ":{"ha":911,"x_min":0,"x_max":856,"o":"m 813 853 q 841 699 826 813 q 856 475 856 585 q 853 386 856 415 q 804 241 849 338 q 721 104 760 144 q 560 -3 667 47 q 378 -53 454 -53 q 245 -22 321 -53 q 101 56 169 10 q 0 146 33 103 q 181 159 71 146 q 410 194 290 172 q 363 391 396 278 q 297 579 329 504 q 367 697 326 639 q 444 786 408 754 q 488 599 465 739 q 508 338 510 458 l 451 203 q 746 278 649 243 q 709 464 738 357 q 651 656 681 571 q 729 768 685 714 q 813 853 774 822 m 694 -232 l 618 -315 l 421 -368 l 404 -353 l 483 -287 q 439 -206 439 -253 q 478 -119 439 -156 q 579 -82 518 -82 q 628 -87 601 -82 q 671 -101 654 -93 l 618 -201 q 576 -186 603 -193 q 526 -179 550 -179 q 493 -185 506 -179 q 481 -201 481 -192 q 510 -227 481 -215 q 576 -239 540 -239 q 678 -218 636 -239 l 694 -232 z "},"ﻺ":{"ha":935,"x_min":0,"x_max":935,"o":"m 935 189 l 875 26 l 846 1 l 767 -7 l 740 -7 q 746 168 746 69 l 746 193 q 576 18 678 89 q 378 -53 475 -53 q 245 -22 321 -53 q 101 56 169 10 q 0 146 33 103 q 181 159 71 146 q 410 194 292 172 q 363 391 396 278 q 297 579 329 504 q 367 697 326 639 q 444 786 408 754 q 488 599 465 739 q 508 338 510 458 l 451 201 q 740 269 656 242 q 703 480 729 369 q 650 657 676 590 q 730 767 682 713 q 819 854 778 821 q 847 710 833 821 q 860 514 860 600 q 846 204 860 336 l 926 213 l 935 189 m 694 -232 l 618 -315 l 421 -368 l 404 -353 l 483 -287 q 439 -206 439 -253 q 478 -119 439 -156 q 579 -82 518 -82 q 628 -87 601 -82 q 671 -101 654 -93 l 618 -201 q 576 -186 603 -193 q 526 -179 550 -179 q 493 -185 506 -179 q 481 -201 481 -192 q 510 -227 481 -215 q 576 -239 540 -239 q 678 -218 636 -239 l 694 -232 z "},"ﻵ":{"ha":911,"x_min":0,"x_max":856,"o":"m 813 853 q 841 699 826 813 q 856 475 856 585 q 853 386 856 415 q 804 241 849 338 q 721 104 760 144 q 560 -3 667 47 q 378 -53 454 -53 q 245 -22 321 -53 q 101 56 169 10 q 0 146 33 103 q 181 159 71 146 q 410 194 290 172 q 363 391 396 278 q 297 579 329 504 q 367 697 326 639 q 444 786 408 754 q 488 599 465 739 q 508 338 510 458 l 451 203 q 746 278 649 243 q 709 464 738 357 q 651 656 681 571 q 729 768 685 714 q 813 853 774 822 m 183 765 q 224 889 204 846 q 254 908 236 901 q 290 914 272 914 q 339 908 300 914 q 414 901 399 901 q 444 906 432 901 l 464 958 l 485 954 q 453 838 472 889 q 424 814 442 822 q 388 806 407 806 q 339 811 375 806 q 271 818 286 818 q 226 813 249 818 l 206 760 l 183 765 z "},"ﻶ":{"ha":935,"x_min":0,"x_max":935,"o":"m 935 189 l 875 26 l 846 1 l 767 -7 l 740 -7 q 746 168 746 69 l 746 193 q 576 18 678 89 q 378 -53 475 -53 q 245 -22 321 -53 q 101 56 169 10 q 0 146 33 103 q 181 159 71 146 q 410 194 292 172 q 363 391 396 278 q 297 579 329 504 q 367 697 326 639 q 444 786 408 754 q 488 599 465 739 q 508 338 510 458 l 451 201 q 740 269 656 242 q 703 480 729 369 q 650 657 676 590 q 730 767 682 713 q 819 854 778 821 q 847 710 833 821 q 860 514 860 600 q 846 204 860 336 l 926 213 l 935 189 m 183 765 q 224 889 204 846 q 254 908 236 901 q 290 914 272 914 q 339 908 300 914 q 414 901 399 901 q 444 906 432 901 l 464 958 l 485 954 q 453 838 472 889 q 424 814 442 822 q 388 806 407 806 q 339 811 375 806 q 271 818 286 818 q 226 813 249 818 l 206 760 l 183 765 z "},"ﳢ":{"ha":882,"x_min":0,"x_max":882,"o":"m 882 -4 l 822 -167 l 793 -190 l 622 -208 l 631 -12 q 558 -7 601 -7 q 451 -28 494 -7 q 373 -98 408 -50 q 300 -233 338 -146 l 189 -490 l 158 -486 l 96 -33 l 0 -43 l 81 168 l 233 185 l 263 -212 l 281 -165 q 385 45 333 -32 q 496 156 436 122 q 636 190 556 190 q 772 163 717 190 l 764 8 l 874 19 l 882 -4 m 731 -308 q 754 -349 736 -318 q 796 -410 772 -379 l 704 -471 q 629 -376 665 -437 l 731 -308 z "},"ﲠ":{"ha":776,"x_min":0,"x_max":821,"o":"m 628 -97 l 642 -31 q 598 -17 629 -22 q 540 -11 567 -11 q 409 -61 465 -11 q 300 -233 353 -111 l 189 -490 l 158 -486 l 96 -33 l 0 -43 l 81 168 l 233 185 l 263 -212 l 281 -165 q 438 113 358 32 q 622 194 518 194 q 707 184 664 194 q 776 158 750 174 l 671 -103 l 628 -97 m 756 -132 q 779 -172 761 -142 q 821 -233 797 -203 l 729 -294 q 654 -200 690 -261 l 756 -132 z "},"ﰉ":{"ha":860,"x_min":35,"x_max":835,"o":"m 708 -117 q 633 -22 669 -83 l 735 46 q 758 6 740 36 q 800 -56 776 -25 l 708 -117 m 693 485 q 835 471 756 476 q 792 260 815 331 q 731 149 768 190 q 551 28 668 78 q 319 -21 433 -21 q 122 36 199 -21 q 35 201 46 93 q 157 450 82 332 q 335 658 232 568 l 364 528 q 157 311 233 429 q 249 226 193 253 q 396 199 306 199 q 565 224 483 199 q 708 296 647 250 q 406 335 593 301 l 490 517 l 656 535 q 493 708 594 624 l 644 871 q 720 780 688 838 q 753 679 753 722 q 736 589 753 643 q 693 485 719 535 z "},"ﰊ":{"ha":860,"x_min":35,"x_max":835,"o":"m 693 485 q 835 471 756 476 q 792 260 815 331 q 731 149 768 190 q 551 28 668 78 q 319 -21 433 -21 q 122 36 199 -21 q 35 201 46 93 q 157 450 82 332 q 335 658 232 568 l 364 528 q 157 311 233 429 q 249 226 193 253 q 396 199 306 199 q 565 224 483 199 q 708 296 647 250 q 406 335 593 301 l 490 517 l 656 535 q 493 708 594 624 l 644 871 q 720 780 688 838 q 753 679 753 722 q 736 589 753 643 q 693 485 719 535 m 288 -151 l 539 -83 l 511 -189 l 264 -243 l 288 -151 m 708 -117 q 633 -22 669 -83 l 735 46 q 758 6 740 36 q 800 -56 776 -25 l 708 -117 z "},"ﳤ":{"ha":882,"x_min":0,"x_max":882,"o":"m 804 357 l 557 303 l 581 394 l 832 463 l 804 357 m 882 -4 l 822 -167 l 793 -190 l 622 -208 l 631 -12 q 558 -7 601 -7 q 451 -28 494 -7 q 373 -98 408 -50 q 300 -233 338 -146 l 189 -490 l 158 -486 l 96 -33 l 0 -43 l 81 168 l 233 185 l 263 -212 l 281 -165 q 385 45 333 -32 q 496 156 436 122 q 636 190 556 190 q 772 163 717 190 l 764 8 l 874 19 l 882 -4 z "},"ﲥ":{"ha":776,"x_min":0,"x_max":781,"o":"m 753 360 l 506 306 l 529 397 l 781 465 l 753 360 m 281 -165 q 438 113 358 32 q 622 194 518 194 q 707 184 664 194 q 776 158 750 174 l 671 -103 l 628 -97 l 642 -31 q 598 -17 629 -22 q 540 -11 567 -11 q 409 -61 465 -11 q 300 -233 353 -111 l 189 -490 l 158 -486 l 96 -33 l 0 -43 l 81 168 l 233 185 l 263 -212 l 281 -165 z "},"ﰏ":{"ha":860,"x_min":35,"x_max":835,"o":"m 544 1018 l 796 1086 l 768 981 l 521 926 l 544 1018 m 693 485 q 835 471 756 476 q 792 260 815 331 q 731 149 768 190 q 551 28 668 78 q 319 -21 433 -21 q 122 36 199 -21 q 35 201 46 93 q 157 450 82 332 q 335 658 232 568 l 364 528 q 157 311 233 429 q 249 226 193 253 q 396 199 306 199 q 565 224 483 199 q 708 296 647 250 q 406 335 593 301 l 490 517 l 656 535 q 493 708 594 624 l 644 871 q 720 780 688 838 q 753 679 753 722 q 736 589 753 643 q 693 485 719 535 z "},"ﰐ":{"ha":860,"x_min":35,"x_max":835,"o":"m 693 485 q 835 471 756 476 q 792 260 815 331 q 731 149 768 190 q 551 28 668 78 q 319 -21 433 -21 q 122 36 199 -21 q 35 201 46 93 q 157 450 82 332 q 335 658 232 568 l 364 528 q 157 311 233 429 q 249 226 193 253 q 396 199 306 199 q 565 224 483 199 q 708 296 647 250 q 406 335 593 301 l 490 517 l 656 535 q 493 708 594 624 l 644 871 q 720 780 688 838 q 753 679 753 722 q 736 589 753 643 q 693 485 719 535 m 288 -151 l 539 -83 l 511 -189 l 264 -243 l 288 -151 m 544 1018 l 796 1086 l 768 981 l 521 926 l 544 1018 z "},"ﳦ":{"ha":882,"x_min":0,"x_max":882,"o":"m 572 261 l 542 278 l 679 456 q 710 457 689 457 q 781 449 744 457 q 847 424 818 440 l 776 318 q 657 343 715 347 l 572 261 m 882 -4 l 822 -167 l 793 -190 l 622 -208 l 631 -12 q 558 -7 601 -7 q 451 -28 494 -7 q 373 -98 408 -50 q 300 -233 338 -146 l 189 -490 l 158 -486 l 96 -33 l 0 -43 l 81 168 l 233 185 l 263 -212 l 281 -165 q 385 45 333 -32 q 496 156 436 122 q 636 190 556 190 q 772 163 717 190 l 764 8 l 874 19 l 882 -4 z "},"ﰓ":{"ha":860,"x_min":35,"x_max":835,"o":"m 693 485 q 835 471 756 476 q 792 260 815 331 q 731 149 768 190 q 551 28 668 78 q 319 -21 433 -21 q 122 36 199 -21 q 35 201 46 93 q 157 450 82 332 q 335 658 232 568 l 364 528 q 157 311 233 429 q 249 226 193 253 q 396 199 306 199 q 565 224 483 199 q 708 296 647 250 q 406 335 593 301 l 490 517 l 656 535 q 493 708 594 624 l 644 871 q 720 780 688 838 q 753 679 753 722 q 736 589 753 643 q 693 485 719 535 m 497 901 l 635 1079 q 665 1081 644 1081 q 737 1072 700 1081 q 803 1047 774 1064 l 732 942 q 613 967 671 971 l 528 885 l 497 901 z "},"ﰔ":{"ha":860,"x_min":35,"x_max":835,"o":"m 693 485 q 835 471 756 476 q 792 260 815 331 q 731 149 768 190 q 551 28 668 78 q 319 -21 433 -21 q 122 36 199 -21 q 35 201 46 93 q 157 450 82 332 q 335 658 232 568 l 364 528 q 157 311 233 429 q 249 226 193 253 q 396 199 306 199 q 565 224 483 199 q 708 296 647 250 q 406 335 593 301 l 490 517 l 656 535 q 493 708 594 624 l 644 871 q 720 780 688 838 q 753 679 753 722 q 736 589 753 643 q 693 485 719 535 m 288 -151 l 539 -83 l 511 -189 l 264 -243 l 288 -151 m 497 901 l 635 1079 q 665 1081 644 1081 q 737 1072 700 1081 q 803 1047 774 1064 l 732 942 q 613 967 671 971 l 528 885 l 497 901 z "},"ﰱ":{"ha":942,"x_min":35,"x_max":931,"o":"m 818 1206 q 743 1300 779 1239 l 844 1368 q 868 1328 850 1358 q 910 1267 886 1297 l 818 1206 m 840 631 q 779 585 821 607 q 676 547 738 563 q 836 483 779 514 q 792 267 817 343 q 732 149 768 190 q 549 28 668 76 q 306 -21 431 -21 q 121 38 199 -21 q 35 201 43 97 q 153 444 82 332 q 335 658 224 556 l 364 528 q 242 419 289 469 q 157 311 194 369 q 249 227 193 256 q 392 199 306 199 q 590 233 497 199 q 744 324 683 267 q 606 378 692 351 q 447 415 519 406 l 567 729 l 667 739 q 821 767 749 749 l 815 814 l 746 814 q 661 830 693 814 q 629 875 629 846 q 669 967 629 908 q 761 1071 710 1025 q 844 1117 813 1117 q 906 1064 882 1117 q 931 929 931 1011 q 903 770 931 861 q 840 631 876 679 z "},"ﰲ":{"ha":942,"x_min":35,"x_max":931,"o":"m 818 1206 q 743 1300 779 1239 l 844 1368 q 868 1328 850 1358 q 910 1267 886 1297 l 818 1206 m 840 631 q 779 585 821 607 q 676 547 738 563 q 836 483 779 514 q 792 267 817 343 q 732 149 768 190 q 549 28 668 76 q 306 -21 431 -21 q 121 38 199 -21 q 35 201 43 97 q 153 444 82 332 q 335 658 224 556 l 364 528 q 242 419 289 469 q 157 311 194 369 q 249 227 193 256 q 392 199 306 199 q 590 233 497 199 q 744 324 683 267 q 606 378 692 351 q 447 415 519 406 l 567 729 l 667 739 q 821 767 749 749 l 815 814 l 746 814 q 661 830 693 814 q 629 875 629 846 q 669 967 629 908 q 761 1071 710 1025 q 844 1117 813 1117 q 906 1064 882 1117 q 931 929 931 1011 q 903 770 931 861 q 840 631 876 679 m 265 -158 l 517 -90 l 489 -196 l 242 -250 l 265 -158 z "},"ﰵ":{"ha":943,"x_min":35,"x_max":999,"o":"m 999 1361 l 971 1256 l 724 1201 l 747 1293 l 999 1361 m 844 1117 q 906 1064 882 1117 q 931 929 931 1011 q 903 770 931 861 q 840 631 876 679 q 779 585 821 607 q 676 547 738 563 q 836 483 779 514 q 792 267 817 343 q 732 149 768 190 q 549 28 668 76 q 306 -21 431 -21 q 121 38 199 -21 q 35 201 43 97 q 153 444 82 332 q 335 658 224 556 l 364 528 q 242 419 289 469 q 157 311 194 369 q 249 227 193 256 q 392 199 306 199 q 590 233 497 199 q 744 324 683 267 q 606 378 692 351 q 447 415 519 406 l 567 729 l 667 739 q 821 767 749 749 l 815 814 l 746 814 q 661 830 693 814 q 629 875 629 846 q 669 967 629 908 q 761 1071 710 1025 q 844 1117 813 1117 z "},"ﰶ":{"ha":943,"x_min":35,"x_max":999,"o":"m 999 1361 l 971 1256 l 724 1201 l 747 1293 l 999 1361 m 844 1117 q 906 1064 882 1117 q 931 929 931 1011 q 903 770 931 861 q 840 631 876 679 q 779 585 821 607 q 676 547 738 563 q 836 483 779 514 q 792 267 817 343 q 732 149 768 190 q 549 28 668 76 q 306 -21 431 -21 q 121 38 199 -21 q 35 201 43 97 q 153 444 82 332 q 335 658 224 556 l 364 528 q 242 419 289 469 q 157 311 194 369 q 249 227 193 256 q 392 199 306 199 q 590 233 497 199 q 744 324 683 267 q 606 378 692 351 q 447 415 519 406 l 567 729 l 667 739 q 821 767 749 749 l 815 814 l 746 814 q 661 830 693 814 q 629 875 629 846 q 669 967 629 908 q 761 1071 710 1025 q 844 1117 813 1117 m 265 -158 l 517 -90 l 489 -196 l 242 -250 l 265 -158 z "},"ﳄ":{"ha":667,"x_min":0,"x_max":875,"o":"m 439 1124 q 875 1379 621 1256 q 782 1190 849 1279 q 365 982 551 1092 l 349 1000 q 439 1124 397 1076 m 236 436 q 494 407 390 414 q 467 244 494 339 q 408 104 440 150 q 253 30 360 65 q 0 -21 147 -6 l 81 190 q 347 233 250 208 q 51 271 225 242 l 136 453 q 193 443 182 444 q 182 626 190 543 q 156 810 174 708 q 244 901 196 858 q 333 964 292 944 q 339 843 339 922 q 329 697 339 788 q 314 582 319 606 l 236 436 m 140 -232 q 65 -137 101 -199 l 167 -69 q 190 -110 172 -79 q 232 -171 208 -140 l 140 -232 z "},"ﳅ":{"ha":697,"x_min":0,"x_max":875,"o":"m 439 1124 q 875 1379 621 1256 q 782 1190 849 1279 q 365 982 551 1092 l 349 1000 q 439 1124 397 1076 m 236 436 q 494 407 390 414 q 467 244 494 339 q 408 104 440 150 q 253 30 360 65 q 0 -21 147 -6 l 81 190 q 347 233 250 208 q 51 271 225 242 l 136 453 q 193 443 182 444 q 182 626 190 543 q 156 810 174 708 q 244 901 196 858 q 333 964 292 944 q 339 843 339 922 q 329 697 339 788 q 314 582 319 606 l 236 436 z "},"ﳆ":{"ha":697,"x_min":0,"x_max":875,"o":"m 439 1124 q 875 1379 621 1256 q 782 1190 849 1279 q 365 982 551 1092 l 349 1000 q 439 1124 397 1076 m 236 436 q 494 407 390 414 q 467 244 494 339 q 408 104 440 150 q 253 30 360 65 q 0 -21 147 -6 l 81 190 q 347 233 250 208 q 51 271 225 242 l 136 453 q 193 443 182 444 q 182 626 190 543 q 156 810 174 708 q 244 901 196 858 q 333 964 292 944 q 339 843 339 922 q 329 697 339 788 q 314 582 319 606 l 236 436 m 464 503 q 389 597 425 536 l 490 665 q 514 625 496 656 q 556 564 532 594 l 464 503 z "},"ﰼ":{"ha":682,"x_min":-7,"x_max":1036,"o":"m 600 1178 q 1036 1433 782 1310 q 943 1244 1010 1333 q 526 1036 713 1146 l 510 1054 q 600 1178 558 1131 m 483 369 q 541 324 519 350 q 563 281 563 299 q 524 156 563 225 q 436 47 486 88 q 156 3 367 26 l 171 -265 q 56 -481 147 -425 l -7 -10 q 49 83 4 31 q 150 174 94 135 q 244 217 206 213 q 272 218 253 218 l 272 225 q 293 306 272 246 q 325 383 314 365 q 361 408 340 407 l 363 403 l 365 403 l 368 408 l 414 414 q 377 616 406 497 q 319 821 349 735 q 397 933 353 879 q 481 1018 442 988 q 508 830 496 976 q 521 550 521 683 q 510 469 521 522 q 483 369 500 415 z "},"ﳈ":{"ha":639,"x_min":0,"x_max":861,"o":"m 425 1160 q 861 1415 607 1292 q 768 1226 835 1315 q 351 1018 538 1128 l 335 1036 q 425 1160 383 1113 m 317 354 q 387 306 360 335 q 414 257 414 278 q 376 133 414 201 q 288 28 338 65 q 182 1 243 11 q 0 -21 121 -10 l 81 190 l 121 194 l 124 194 l 124 201 q 144 282 124 222 q 176 360 165 342 q 197 381 188 375 l 199 385 l 244 390 q 208 592 236 474 q 150 797 179 711 q 228 910 183 856 q 311 994 272 964 q 339 806 326 953 q 351 526 351 660 q 342 449 351 499 q 317 354 332 400 z "},"ﰽ":{"ha":1201,"x_min":35,"x_max":1271,"o":"m 835 1197 q 1271 1453 1017 1329 q 1178 1264 1244 1353 q 761 1056 947 1165 l 744 1074 q 835 1197 793 1150 m 618 500 q 876 471 772 478 q 834 262 857 331 q 772 149 811 193 q 585 28 708 76 q 333 -21 463 -21 q 129 38 215 -21 q 35 201 43 97 q 182 478 92 347 q 396 708 272 608 l 425 578 q 161 315 257 458 q 419 199 240 199 q 601 225 515 199 q 750 296 688 251 q 597 310 688 299 q 433 335 507 322 l 518 517 q 575 507 564 508 q 564 690 572 607 q 538 874 556 772 q 626 965 578 922 q 715 1028 674 1008 q 721 907 721 986 q 711 760 721 851 q 696 646 701 669 l 618 500 z "},"ﰾ":{"ha":1201,"x_min":35,"x_max":1271,"o":"m 835 1197 q 1271 1453 1017 1329 q 1178 1264 1244 1353 q 761 1056 947 1165 l 744 1074 q 835 1197 793 1150 m 618 500 q 876 471 772 478 q 834 262 857 331 q 772 149 811 193 q 585 28 708 76 q 333 -21 463 -21 q 129 38 215 -21 q 35 201 43 97 q 182 478 92 347 q 396 708 272 608 l 425 578 q 161 315 257 458 q 419 199 240 199 q 601 225 515 199 q 750 296 688 251 q 597 310 688 299 q 433 335 507 322 l 518 517 q 575 507 564 508 q 564 690 572 607 q 538 874 556 772 q 626 965 578 922 q 715 1028 674 1008 q 721 907 721 986 q 711 760 721 851 q 696 646 701 669 l 618 500 m 357 -149 l 608 -81 l 581 -186 l 333 -240 l 357 -149 z "},"ﱂ":{"ha":594,"x_min":-7,"x_max":563,"o":"m 483 369 q 541 324 519 350 q 563 281 563 299 q 524 156 563 225 q 436 47 486 88 q 156 3 367 26 l 171 -265 q 56 -481 147 -425 l -7 -10 q 49 83 4 31 q 150 174 94 135 q 244 217 206 213 q 272 218 253 218 l 272 225 q 293 306 272 246 q 325 383 314 365 q 361 408 340 407 l 363 403 l 365 403 l 368 408 l 414 414 q 377 616 406 497 q 319 821 349 735 q 397 933 353 879 q 481 1018 442 988 q 508 830 496 976 q 521 550 521 683 q 510 469 521 522 q 483 369 500 415 z "},"ﳌ":{"ha":439,"x_min":0,"x_max":414,"o":"m 329 349 q 391 303 368 329 q 414 257 414 276 q 376 133 414 201 q 288 28 338 65 q 182 1 243 11 q 0 -21 121 -10 l 81 190 l 121 194 l 124 194 l 124 201 q 144 282 124 222 q 176 360 165 342 q 213 385 192 382 l 258 390 q 222 592 250 474 q 164 797 193 711 q 242 910 197 856 q 325 994 286 964 q 353 806 340 953 q 365 526 365 660 q 355 446 365 497 q 329 349 344 394 z "},"ﳯ":{"ha":882,"x_min":0,"x_max":882,"o":"m 676 317 q 601 411 638 350 l 703 479 q 726 439 708 469 q 768 378 744 408 l 676 317 m 882 -4 l 822 -167 l 793 -190 l 622 -208 l 631 -12 q 558 -7 601 -7 q 451 -28 494 -7 q 373 -98 408 -50 q 300 -233 338 -146 l 189 -490 l 158 -486 l 96 -33 l 0 -43 l 81 168 l 233 185 l 263 -212 l 281 -165 q 385 45 333 -32 q 496 156 436 122 q 636 190 556 190 q 772 163 717 190 l 764 8 l 874 19 l 882 -4 z "},"ﳖ":{"ha":776,"x_min":0,"x_max":776,"o":"m 625 319 q 550 414 586 353 l 651 482 q 675 442 657 472 q 717 381 693 411 l 625 319 m 622 194 q 707 184 664 194 q 776 158 750 174 l 671 -103 l 628 -97 l 642 -31 q 598 -17 629 -22 q 540 -11 567 -11 q 409 -61 465 -11 q 300 -233 353 -111 l 189 -490 l 158 -486 l 96 -33 l 0 -43 l 81 168 l 233 185 l 263 -212 l 281 -165 q 438 113 358 32 q 622 194 518 194 z "},"ﱏ":{"ha":860,"x_min":35,"x_max":835,"o":"m 693 485 q 835 471 756 476 q 792 260 815 331 q 731 149 768 190 q 551 28 668 78 q 319 -21 433 -21 q 122 36 199 -21 q 35 201 46 93 q 157 450 82 332 q 335 658 232 568 l 364 528 q 157 311 233 429 q 249 226 193 253 q 396 199 306 199 q 565 224 483 199 q 708 296 647 250 q 406 335 593 301 l 490 517 l 656 535 q 493 708 594 624 l 644 871 q 720 780 688 838 q 753 679 753 722 q 736 589 753 643 q 693 485 719 535 m 619 929 q 544 1024 581 963 l 646 1092 q 669 1051 651 1082 q 711 990 688 1021 l 619 929 z "},"ﱐ":{"ha":860,"x_min":35,"x_max":835,"o":"m 693 485 q 835 471 756 476 q 792 260 815 331 q 731 149 768 190 q 551 28 668 78 q 319 -21 433 -21 q 122 36 199 -21 q 35 201 46 93 q 157 450 82 332 q 335 658 232 568 l 364 528 q 157 311 233 429 q 249 226 193 253 q 396 199 306 199 q 565 224 483 199 q 708 296 647 250 q 406 335 593 301 l 490 517 l 656 535 q 493 708 594 624 l 644 871 q 720 780 688 838 q 753 679 753 722 q 736 589 753 643 q 693 485 719 535 m 288 -151 l 539 -83 l 511 -189 l 264 -243 l 288 -151 m 619 929 q 544 1024 581 963 l 646 1092 q 669 1051 651 1082 q 711 990 688 1021 l 619 929 z "},"ﳱ":{"ha":882,"x_min":0,"x_max":882,"o":"m 631 -12 q 558 -7 601 -7 q 451 -28 494 -7 q 373 -98 408 -50 q 300 -233 338 -146 l 189 -490 l 158 -486 l 96 -33 l 0 -43 l 81 168 l 233 185 l 263 -212 l 281 -165 q 385 45 333 -32 q 496 156 436 122 q 636 190 556 190 q 772 163 717 190 l 764 8 l 874 19 l 882 -4 l 822 -167 l 793 -190 l 622 -208 l 631 -12 m 603 -376 l 854 -308 l 826 -414 l 579 -468 l 603 -376 z "},"ﳞ":{"ha":776,"x_min":0,"x_max":879,"o":"m 642 -31 q 598 -17 629 -22 q 540 -11 567 -11 q 409 -61 465 -11 q 300 -233 353 -111 l 189 -490 l 158 -486 l 96 -33 l 0 -43 l 81 168 l 233 185 l 263 -212 l 281 -165 q 438 113 358 32 q 622 194 518 194 q 707 184 664 194 q 776 158 750 174 l 671 -103 l 628 -97 l 642 -31 m 879 -132 l 851 -237 l 604 -292 l 628 -200 l 879 -132 z "},"ﳠ":{"ha":882,"x_min":0,"x_max":882,"o":"m 106 292 l 185 357 q 140 439 140 392 q 180 526 140 489 q 281 563 219 563 q 329 557 303 563 q 372 543 356 551 l 319 443 q 278 458 304 451 q 228 465 251 465 q 194 459 207 465 q 182 443 182 453 q 212 417 182 429 q 278 406 242 406 q 379 426 338 406 l 396 413 l 319 329 l 122 276 l 106 292 m 882 -4 l 822 -167 l 793 -190 l 622 -208 l 631 -12 q 558 -7 601 -7 q 451 -28 494 -7 q 373 -98 408 -50 q 300 -233 338 -146 l 189 -490 l 158 -486 l 96 -33 l 0 -43 l 81 168 l 233 185 l 263 -212 l 281 -165 q 385 45 333 -32 q 496 156 436 122 q 636 190 556 190 q 772 163 717 190 l 764 8 l 874 19 l 882 -4 z "},"ﲛ":{"ha":776,"x_min":0,"x_max":800,"o":"m 510 314 l 589 379 q 544 461 544 414 q 584 548 544 511 q 685 585 624 585 q 733 579 707 585 q 776 565 760 574 l 724 465 q 682 481 708 474 q 632 488 656 488 q 599 481 611 488 q 586 465 586 475 q 616 440 586 451 q 682 428 646 428 q 783 449 742 428 l 800 435 l 724 351 l 526 299 l 510 314 m 281 -165 q 438 113 358 32 q 622 194 518 194 q 707 184 664 194 q 776 158 750 174 l 671 -103 l 628 -97 l 642 -31 q 598 -17 629 -22 q 540 -11 567 -11 q 409 -61 465 -11 q 300 -233 353 -111 l 189 -490 l 158 -486 l 96 -33 l 0 -43 l 81 168 l 233 185 l 263 -212 l 281 -165 z "},"ﰃ":{"ha":860,"x_min":35,"x_max":835,"o":"m 693 485 q 835 471 756 476 q 792 260 815 331 q 731 149 768 190 q 551 28 668 78 q 319 -21 433 -21 q 122 36 199 -21 q 35 201 46 93 q 157 450 82 332 q 335 658 232 568 l 364 528 q 157 311 233 429 q 249 226 193 253 q 396 199 306 199 q 565 224 483 199 q 708 296 647 250 q 406 335 593 301 l 490 517 l 656 535 q 493 708 594 624 l 644 871 q 720 780 688 838 q 753 679 753 722 q 736 589 753 643 q 693 485 719 535 m 804 1040 l 728 957 l 531 904 l 514 919 l 593 985 q 549 1067 549 1019 q 588 1153 549 1117 q 689 1190 628 1190 q 738 1185 711 1190 q 781 1171 764 1179 l 728 1071 q 686 1086 713 1079 q 636 1093 660 1093 q 603 1087 615 1093 q 590 1071 590 1081 q 620 1045 590 1057 q 686 1033 650 1033 q 788 1054 746 1033 l 804 1040 z "},"ﰄ":{"ha":860,"x_min":35,"x_max":835,"o":"m 693 485 q 835 471 756 476 q 792 260 815 331 q 731 149 768 190 q 551 28 668 78 q 319 -21 433 -21 q 122 36 199 -21 q 35 201 46 93 q 157 450 82 332 q 335 658 232 568 l 364 528 q 157 311 233 429 q 249 226 193 253 q 396 199 306 199 q 565 224 483 199 q 708 296 647 250 q 406 335 593 301 l 490 517 l 656 535 q 493 708 594 624 l 644 871 q 720 780 688 838 q 753 679 753 722 q 736 589 753 643 q 693 485 719 535 m 426 807 l 350 724 l 153 671 l 136 686 l 215 751 q 171 833 171 786 q 210 920 171 883 q 311 957 250 957 q 360 951 333 957 q 403 938 386 946 l 350 838 q 308 853 335 846 q 258 860 282 860 q 225 853 238 860 q 213 838 213 847 q 242 812 213 824 q 308 800 272 800 q 410 821 368 800 l 426 807 m 288 -151 l 539 -83 l 511 -189 l 264 -243 l 288 -151 z "},"ﷲ":{"ha":1440,"x_min":53,"x_max":1374,"o":"m 663 956 q 645 1044 657 1000 q 618 1121 633 1089 q 681 1213 643 1175 q 693 1141 688 1193 q 697 1033 699 1089 l 676 956 l 663 956 m 628 714 q 591 734 606 714 q 576 788 576 754 q 613 890 576 835 l 626 883 q 622 854 622 869 q 631 821 622 833 q 653 808 639 808 q 706 899 690 808 l 722 899 q 768 842 724 842 q 793 849 781 842 q 811 867 806 857 q 757 925 797 896 l 796 986 q 832 933 819 963 q 844 869 844 903 q 819 783 844 819 q 756 747 793 747 q 700 785 717 747 q 670 733 689 753 q 628 714 651 714 m 1349 839 q 1368 699 1363 781 q 1374 503 1374 617 q 1365 217 1374 375 l 1275 7 l 1244 18 q 1231 347 1246 163 q 1188 669 1215 532 q 1267 768 1222 721 q 1349 839 1311 815 m 921 592 q 998 703 953 649 q 1082 789 1043 758 q 1109 605 1096 747 q 1122 386 1122 463 q 1097 208 1122 292 q 1042 86 1071 125 q 942 16 1000 44 q 842 -12 883 -12 q 771 24 799 -12 q 718 157 743 61 l 714 175 q 686 85 701 121 q 594 -2 663 40 q 456 -57 525 -44 l 425 -62 l 424 104 q 414 207 421 165 q 311 94 364 133 q 256 70 288 79 q 196 61 225 61 q 92 103 132 61 q 53 215 53 146 q 99 374 53 292 q 216 513 146 457 q 353 568 286 568 q 453 526 410 568 q 522 411 497 485 q 547 243 547 338 q 544 163 547 215 q 696 243 635 190 l 629 500 q 706 615 664 561 q 783 697 747 668 q 806 550 799 615 q 828 294 813 485 q 849 206 833 232 q 897 181 864 181 q 958 194 924 181 q 1014 226 992 207 q 978 396 1004 294 q 921 592 953 497 m 304 249 q 399 269 354 249 q 340 351 379 326 q 238 376 301 376 q 164 364 194 376 q 210 279 172 310 q 304 249 249 249 z "},"⁄":{"ha":833,"x_min":43,"x_max":819,"o":"m 43 -14 l 771 992 l 819 967 l 92 -42 l 43 -14 z "},"½":{"ha":851,"x_min":15,"x_max":843,"o":"m 810 969 l 124 -39 l 78 -17 l 764 989 l 810 969 m 38 563 l 103 565 l 93 831 l 26 813 l 15 846 l 225 931 l 244 897 l 238 565 l 303 563 l 303 528 l 38 528 l 38 563 m 793 165 l 826 165 l 826 1 l 517 1 l 522 117 q 634 151 585 129 q 711 198 683 174 q 739 243 739 222 q 722 275 739 264 q 675 286 704 286 q 615 279 646 286 q 564 260 585 272 l 564 228 l 532 225 l 515 381 q 599 410 544 397 q 700 424 654 424 q 803 396 764 424 q 843 317 843 368 q 776 194 843 253 q 618 108 708 135 l 790 133 l 793 165 z "},"¼":{"ha":856,"x_min":15,"x_max":851,"o":"m 38 563 l 103 565 l 93 831 l 26 813 l 15 846 l 225 931 l 244 897 l 238 565 l 303 563 l 303 528 l 38 528 l 38 563 m 57 -14 l 785 992 l 833 967 l 106 -42 l 57 -14 m 797 99 l 796 36 l 836 35 l 836 0 l 624 0 l 624 35 l 664 36 l 663 99 l 468 99 l 468 149 l 654 415 l 822 415 l 561 158 l 663 158 l 661 229 l 800 264 l 799 158 l 851 158 l 851 99 l 797 99 z "},"¾":{"ha":978,"x_min":31,"x_max":950,"o":"m 913 967 l 185 -42 l 136 -14 l 864 992 l 913 967 m 65 632 q 222 563 143 581 q 229 601 229 579 q 192 674 229 650 q 72 694 154 697 l 72 719 l 213 842 l 76 819 l 75 788 l 42 788 l 42 942 l 329 942 l 329 864 l 181 764 q 228 769 201 769 q 322 740 285 769 q 358 664 358 710 q 334 593 358 626 q 264 539 310 560 q 160 518 218 518 q 31 549 88 518 l 65 632 m 896 99 l 894 36 l 935 35 l 935 0 l 708 0 l 708 35 l 749 36 l 747 99 l 553 99 l 553 121 l 753 415 l 907 415 l 632 144 l 747 144 l 746 229 l 890 275 l 899 264 l 896 144 l 950 144 l 950 99 l 896 99 z "},"¹":{"ha":315,"x_min":15,"x_max":303,"o":"m 38 563 l 103 565 l 93 831 l 26 813 l 15 846 l 225 931 l 244 897 l 238 565 l 303 563 l 303 528 l 38 528 l 38 563 z "},"²":{"ha":372,"x_min":21,"x_max":349,"o":"m 299 693 l 332 693 l 332 529 l 22 529 l 28 644 q 140 679 90 657 q 217 726 189 701 q 244 771 244 750 q 227 803 244 792 q 181 814 210 814 q 121 807 151 814 q 69 788 90 800 l 69 756 l 38 753 l 21 908 q 105 938 50 925 q 206 951 160 951 q 309 924 269 951 q 349 844 349 896 q 281 722 349 781 q 124 636 214 663 l 296 661 l 299 693 z "},"³":{"ha":378,"x_min":24,"x_max":351,"o":"m 221 769 q 315 740 278 769 q 351 664 351 710 q 327 593 351 626 q 257 539 303 560 q 153 518 211 518 q 24 549 81 518 l 58 632 q 215 563 136 581 q 222 601 222 579 q 185 674 222 650 q 65 694 147 697 l 65 719 l 206 842 l 69 819 l 68 788 l 35 788 l 35 942 l 322 942 l 322 864 l 174 764 q 221 769 194 769 z "},"⁴":{"ha":390,"x_min":3,"x_max":386,"o":"m 332 629 l 331 567 l 371 565 l 371 531 l 158 531 l 158 565 l 199 567 l 197 629 l 3 629 l 3 679 l 189 946 l 357 946 l 96 689 l 197 689 l 196 760 l 335 794 l 333 689 l 386 689 l 386 629 l 332 629 z "},"٫":{"ha":240,"x_min":31,"x_max":207,"o":"m 106 -69 q 107 -51 107 -62 q 31 60 106 13 l 122 147 q 181 86 156 125 q 207 4 206 47 q 203 -32 207 -14 l 79 -168 l 57 -140 l 106 -69 z "},"٬":{"ha":240,"x_min":39,"x_max":199,"o":"m 107 -64 q 108 -49 108 -58 q 39 53 107 10 l 122 132 q 176 77 153 113 q 199 3 199 42 q 196 -31 199 -19 l 83 -154 l 63 -129 l 107 -64 z "},"٠":{"ha":303,"x_min":21,"x_max":282,"o":"m 139 221 q 78 284 106 249 q 21 369 51 319 l 179 475 q 191 456 186 464 q 200 440 196 447 q 282 318 243 369 l 139 221 z "},"١":{"ha":282,"x_min":28,"x_max":254,"o":"m 174 13 q 132 275 175 121 q 28 526 89 429 q 68 683 38 590 q 122 817 99 776 q 217 581 179 725 q 254 326 254 436 q 249 217 254 269 l 204 7 l 174 13 z "},"٢":{"ha":528,"x_min":28,"x_max":506,"o":"m 506 808 q 485 651 500 719 q 451 550 471 583 q 408 508 435 522 q 353 493 382 493 q 283 512 321 493 q 211 561 246 531 q 254 299 254 396 q 249 217 254 256 l 204 7 l 174 13 q 132 275 175 121 q 28 526 89 429 q 68 683 38 590 q 122 817 99 776 q 244 725 178 761 q 360 689 310 689 q 426 717 399 689 q 474 815 453 746 l 506 808 z "},"٣":{"ha":583,"x_min":28,"x_max":561,"o":"m 561 808 q 518 574 551 643 q 458 536 500 536 q 408 555 433 536 q 364 608 382 574 q 347 564 357 581 q 281 522 321 522 q 211 561 254 522 q 254 299 254 393 q 249 217 254 256 l 204 7 l 174 13 q 132 275 175 121 q 28 526 89 429 q 68 683 38 590 q 122 817 99 776 q 203 748 154 776 q 285 719 251 719 q 330 747 313 719 q 349 815 347 775 l 381 808 q 417 740 390 764 q 464 715 444 715 q 504 737 492 715 q 529 815 517 758 l 561 808 z "},"٤":{"ha":500,"x_min":39,"x_max":489,"o":"m 489 149 q 397 42 469 85 q 229 0 324 0 q 90 46 142 0 q 39 168 39 92 q 73 268 39 217 q 171 364 107 319 q 88 443 125 389 q 50 542 50 497 q 66 629 50 576 q 106 727 82 682 q 147 788 129 772 q 208 817 167 804 q 297 829 250 829 q 432 811 372 829 l 382 619 q 299 640 346 632 q 215 647 253 647 q 136 638 171 647 q 229 532 164 581 q 356 472 294 483 l 356 433 q 216 342 271 390 q 161 260 161 293 q 207 195 161 221 q 317 158 253 169 q 436 147 382 146 l 489 149 z "},"٥":{"ha":569,"x_min":33,"x_max":535,"o":"m 265 89 q 138 128 190 89 q 59 229 85 168 q 33 356 33 290 q 67 526 33 435 q 161 681 101 618 q 294 743 221 743 q 417 703 363 743 q 503 593 472 663 q 535 440 535 524 q 504 276 535 357 q 413 142 474 194 q 265 89 351 89 m 296 285 q 411 303 361 285 q 461 346 461 322 q 434 424 461 375 q 361 512 407 474 q 261 550 315 550 q 142 508 186 550 q 99 396 99 467 q 124 342 99 367 q 194 301 149 317 q 296 285 239 285 z "},"٦":{"ha":549,"x_min":11,"x_max":521,"o":"m 431 800 q 456 542 429 693 q 521 290 482 390 q 481 133 511 226 q 426 0 450 40 q 372 230 393 93 q 350 474 350 367 q 357 632 350 579 l 357 633 q 199 551 293 551 q 113 568 154 551 q 11 628 71 585 l 92 822 q 256 756 176 756 q 335 767 301 756 q 400 806 369 778 l 431 800 z "},"٧":{"ha":604,"x_min":19,"x_max":581,"o":"m 581 619 q 453 355 514 513 q 350 7 393 197 l 332 10 l 306 13 q 254 208 301 100 q 140 406 207 317 q 19 526 74 494 q 60 683 29 590 q 114 817 90 776 q 253 538 183 713 q 339 249 324 364 q 542 821 424 625 l 581 619 z "},"٨":{"ha":604,"x_min":19,"x_max":581,"o":"m 581 274 q 540 117 571 210 q 486 -17 510 24 q 347 262 417 88 q 261 551 276 436 q 58 -21 176 175 l 19 181 q 147 445 86 288 q 250 793 207 603 l 268 790 l 294 788 q 346 592 299 700 q 460 394 393 483 q 581 274 526 306 z "},"٩":{"ha":536,"x_min":22,"x_max":513,"o":"m 422 788 q 447 535 421 681 q 513 290 474 389 q 472 133 503 226 q 418 0 442 40 q 363 230 385 93 q 342 474 342 367 q 343 547 342 524 q 164 364 276 364 q 106 383 138 364 q 51 445 75 401 q 25 556 28 489 q 54 666 22 600 q 144 781 86 732 q 274 829 201 829 q 358 817 317 829 q 422 788 400 806 m 206 560 q 275 575 242 560 q 335 619 308 590 q 278 663 310 647 q 218 679 247 679 q 151 667 181 679 q 106 633 122 656 q 138 580 107 600 q 206 560 168 560 z "},"*":{"ha":286,"x_min":3,"x_max":267,"o":"m 257 846 l 182 850 l 242 761 l 189 743 l 156 810 l 108 714 l 67 750 l 107 813 l 3 806 l 13 858 l 86 856 l 26 944 l 79 961 l 113 894 l 161 990 l 201 954 l 161 893 l 267 899 l 257 846 z "},"\\":{"ha":544,"x_min":-33,"x_max":513,"o":"m -33 976 l 38 986 l 513 -103 l 453 -110 l -33 976 z "},"·":{"ha":311,"x_min":49,"x_max":251,"o":"m 49 431 l 251 476 l 251 279 l 49 249 l 49 431 z "},"•":{"ha":396,"x_min":35,"x_max":350,"o":"m 185 208 q 76 248 118 208 q 35 364 35 288 q 47 424 35 392 q 82 478 60 456 q 199 524 131 524 q 308 484 267 524 q 350 368 350 444 q 338 308 350 340 q 303 254 325 276 q 185 208 254 208 z "},":":{"ha":307,"x_min":49,"x_max":251,"o":"m 49 167 l 251 213 l 251 15 l 49 -15 l 49 167 m 49 569 l 251 615 l 251 418 l 49 388 l 49 569 z "},",":{"ha":272,"x_min":49,"x_max":217,"o":"m 50 168 l 217 206 l 217 89 l 99 -156 l 49 -162 l 50 168 z "},"…":{"ha":939,"x_min":49,"x_max":876,"o":"m 361 167 l 564 213 l 564 15 l 361 -15 l 361 167 m 674 167 l 876 213 l 876 15 l 674 -15 l 674 167 m 49 167 l 251 213 l 251 15 l 49 -15 l 49 167 z "},"!":{"ha":349,"x_min":53,"x_max":297,"o":"m 53 871 l 297 947 l 249 358 l 92 328 l 53 871 m 74 167 l 276 213 l 276 15 l 74 -15 l 74 167 z "},"¡":{"ha":342,"x_min":44,"x_max":289,"o":"m 268 397 l 65 351 l 65 549 l 268 579 l 268 397 m 289 -307 l 44 -383 l 93 206 l 250 236 l 289 -307 z "},"#":{"ha":825,"x_min":36,"x_max":811,"o":"m 649 561 l 607 415 l 769 417 l 742 242 l 557 242 l 479 -26 l 414 -17 l 492 242 l 213 242 l 132 -26 l 75 -19 l 150 242 l 36 242 l 57 410 l 199 411 l 243 561 l 78 561 l 99 729 l 292 731 l 365 986 l 432 978 l 358 732 l 639 735 l 714 986 l 769 979 l 699 735 l 811 736 l 783 561 l 649 561 m 586 561 l 307 561 l 263 411 l 543 414 l 586 561 z "},".":{"ha":307,"x_min":49,"x_max":251,"o":"m 49 167 l 251 213 l 251 15 l 49 -15 l 49 167 z "},"?":{"ha":579,"x_min":43,"x_max":533,"o":"m 207 286 q 150 338 176 300 q 124 408 124 375 q 151 471 124 440 q 231 546 178 501 q 306 617 281 588 q 332 674 332 646 q 292 760 332 728 q 144 803 251 792 l 104 807 l 79 761 l 43 779 l 128 978 q 211 985 167 985 q 439 935 353 985 q 531 786 525 885 q 499 699 533 736 q 397 615 465 663 q 321 556 346 581 q 296 504 296 532 q 308 452 296 481 q 335 413 321 424 l 376 433 l 396 396 l 207 286 m 160 167 l 363 213 l 363 15 l 160 -15 l 160 167 z "},"¿":{"ha":538,"x_min":47,"x_max":538,"o":"m 421 418 l 218 372 l 218 569 l 421 600 l 421 418 m 374 299 q 431 247 404 285 q 457 176 457 210 q 430 114 457 144 q 350 39 403 83 q 274 -32 300 -3 q 249 -89 249 -61 q 289 -175 249 -143 q 436 -218 329 -207 l 476 -222 l 501 -176 l 538 -194 l 453 -393 q 369 -400 414 -400 q 142 -350 228 -400 q 50 -201 56 -300 q 81 -115 47 -151 q 183 -31 115 -78 q 260 28 235 4 q 285 81 285 53 q 272 133 285 104 q 246 172 260 161 l 204 151 l 185 189 l 374 299 z "},"\"":{"ha":258,"x_min":14,"x_max":251,"o":"m 14 964 l 106 972 l 94 689 l 14 685 l 14 964 m 160 964 l 251 972 l 240 689 l 160 685 l 160 964 z "},"'":{"ha":139,"x_min":19,"x_max":111,"o":"m 19 964 l 111 972 l 100 689 l 19 685 l 19 964 z "},";":{"ha":307,"x_min":49,"x_max":251,"o":"m 49 569 l 251 615 l 251 418 l 49 388 l 49 569 m 50 168 l 217 206 l 217 89 l 99 -156 l 49 -162 l 50 168 z "},"/":{"ha":543,"x_min":32,"x_max":578,"o":"m 32 -103 l 507 986 l 578 976 l 92 -110 l 32 -103 z "},"_":{"ha":581,"x_min":14,"x_max":567,"o":"m 21 -8 l 567 3 l 553 -61 l 14 -61 l 21 -8 z "},"{":{"ha":401,"x_min":38,"x_max":379,"o":"m 203 -117 q 331 -36 271 -92 l 379 -126 q 232 -174 321 -176 q 141 -144 186 -172 q 67 -67 96 -115 q 38 40 38 -18 q 47 105 38 75 q 72 178 56 135 q 96 242 88 215 q 104 296 104 268 q 88 374 104 340 q 46 418 71 407 l 46 443 q 88 488 71 454 q 104 567 104 522 q 96 621 104 594 q 72 685 88 647 q 47 758 56 728 q 38 822 38 788 q 67 929 38 881 q 141 1006 96 978 q 232 1036 186 1035 q 379 988 318 1039 l 331 897 q 203 979 269 956 q 200 946 200 957 q 210 848 200 890 q 239 750 219 806 q 250 716 242 743 q 263 666 258 689 q 267 622 267 643 q 220 508 267 564 q 110 431 174 453 q 221 353 175 408 q 267 240 267 299 q 261 189 267 214 q 249 142 256 164 q 239 113 242 119 q 210 15 219 57 q 200 -83 200 -28 q 203 -117 200 -94 z "},"}":{"ha":401,"x_min":22,"x_max":364,"o":"m 356 418 q 314 374 331 407 q 297 296 297 340 q 306 242 297 268 q 329 178 314 215 q 355 105 346 135 q 364 40 364 75 q 335 -67 364 -18 q 260 -144 306 -115 q 169 -174 215 -172 q 22 -126 81 -176 l 71 -36 q 199 -117 131 -92 q 201 -83 201 -94 q 192 15 201 -28 q 163 113 182 57 q 151 147 160 119 q 139 197 143 174 q 135 240 135 219 q 181 353 135 299 q 292 431 226 408 q 181 508 228 453 q 135 622 135 564 q 140 674 135 649 q 153 721 146 699 q 163 750 160 743 q 192 848 182 806 q 201 946 201 890 q 199 979 201 957 q 71 897 132 956 l 22 988 q 169 1036 83 1039 q 260 1006 215 1035 q 335 929 306 978 q 364 822 364 881 q 355 758 364 788 q 329 685 346 728 q 306 621 314 647 q 297 567 297 594 q 314 488 297 522 q 356 443 331 454 l 356 418 z "},"[":{"ha":415,"x_min":35,"x_max":388,"o":"m 222 -107 l 388 -86 l 374 -171 l 35 -126 l 35 990 l 374 1035 l 388 950 l 222 971 l 222 -107 z "},"]":{"ha":415,"x_min":28,"x_max":381,"o":"m 381 990 l 381 -126 l 42 -171 l 28 -86 l 193 -107 l 193 971 l 28 950 l 42 1035 l 381 990 z "},"(":{"ha":388,"x_min":15,"x_max":389,"o":"m 349 1044 q 225 769 268 913 q 182 483 182 626 q 389 -104 182 176 l 215 -167 q 65 119 114 -28 q 15 413 15 265 q 58 650 15 526 q 169 883 100 774 q 318 1064 238 992 l 349 1044 z "},")":{"ha":388,"x_min":-14,"x_max":360,"o":"m 26 -147 q 150 128 107 -15 q 193 414 193 271 q -14 1001 193 721 l 160 1064 q 310 778 261 925 q 360 485 360 632 q 317 247 360 371 q 206 15 275 124 q 57 -167 138 -94 l 26 -147 z "},"—":{"ha":1076,"x_min":35,"x_max":1032,"o":"m 42 408 l 1032 419 l 1018 356 l 35 356 l 42 408 z "},"–":{"ha":799,"x_min":35,"x_max":754,"o":"m 42 408 l 754 419 l 740 356 l 35 356 l 42 408 z "},"-":{"ha":521,"x_min":35,"x_max":476,"o":"m 42 388 l 476 399 l 463 335 l 35 335 l 42 388 z "},"­":{"ha":519,"x_min":35,"x_max":476,"o":"m 42 388 l 476 399 l 463 335 l 35 335 l 42 388 z "},"«":{"ha":539,"x_min":3,"x_max":478,"o":"m 75 315 l 283 90 l 214 65 l 3 315 l 214 565 l 283 540 l 75 315 m 269 315 l 478 90 l 408 65 l 197 315 l 408 565 l 478 540 l 269 315 z "},"»":{"ha":538,"x_min":61,"x_max":536,"o":"m 342 315 l 131 65 l 61 90 l 269 315 l 61 540 l 131 565 l 342 315 m 536 315 l 325 65 l 256 90 l 464 315 l 256 540 l 325 565 l 536 315 z "},"‹":{"ha":343,"x_min":1,"x_max":282,"o":"m 74 315 l 282 90 l 213 65 l 1 315 l 213 565 l 282 540 l 74 315 z "},"›":{"ha":343,"x_min":47,"x_max":328,"o":"m 328 315 l 117 65 l 47 90 l 256 315 l 47 540 l 117 565 l 328 315 z "},"„":{"ha":258,"x_min":14,"x_max":251,"o":"m 14 131 l 106 139 l 94 -144 l 14 -149 l 14 131 m 160 131 l 251 139 l 240 -144 l 160 -149 l 160 131 z "},"“":{"ha":396,"x_min":4,"x_max":386,"o":"m 4 764 l 142 972 l 213 939 l 89 690 l 4 764 m 178 764 l 315 972 l 386 939 l 263 690 l 178 764 z "},"”":{"ha":396,"x_min":10,"x_max":392,"o":"m 218 899 l 81 690 l 10 724 l 133 972 l 218 899 m 392 899 l 254 690 l 183 724 l 307 972 l 392 899 z "},"‘":{"ha":221,"x_min":10,"x_max":218,"o":"m 10 764 l 147 972 l 218 939 l 94 690 l 10 764 z "},"’":{"ha":221,"x_min":3,"x_max":211,"o":"m 211 899 l 74 690 l 3 724 l 126 972 l 211 899 z "},"‚":{"ha":139,"x_min":19,"x_max":111,"o":"m 19 131 l 111 139 l 100 -144 l 19 -149 l 19 131 z "},"،":{"ha":217,"x_min":49,"x_max":169,"o":"m 168 -101 l 49 -128 l 49 -44 l 133 132 l 169 136 l 168 -101 z "},"؛":{"ha":311,"x_min":104,"x_max":236,"o":"m 235 129 l 126 104 l 126 181 l 204 340 l 236 346 l 235 129 m 236 -133 l 104 -164 l 104 -35 l 236 -15 l 236 -133 z "},"؟":{"ha":622,"x_min":100,"x_max":524,"o":"m 217 343 l 233 375 l 269 357 q 293 392 282 367 q 304 438 304 417 q 282 483 304 461 q 217 535 260 504 q 131 604 161 572 q 100 676 100 636 q 176 811 100 767 q 378 856 253 856 q 450 849 415 856 l 524 676 l 492 661 l 471 700 l 436 697 q 308 660 343 688 q 272 585 272 632 q 294 536 272 561 q 361 474 317 511 q 431 408 407 435 q 454 354 454 381 q 431 292 454 325 q 381 247 408 260 l 217 343 m 246 13 l 246 183 l 422 143 l 422 -15 l 246 13 z "},"٭":{"ha":456,"x_min":21,"x_max":435,"o":"m 121 176 l 183 274 l 21 264 l 36 347 l 151 342 l 57 482 l 140 508 l 192 404 l 269 554 l 332 497 l 268 403 l 435 410 l 419 328 l 300 335 l 396 194 l 313 165 l 260 269 l 186 119 l 121 176 m 281 340 q 247 369 263 354 q 222 393 232 385 l 169 333 q 233 286 204 300 l 281 340 z "},"﴾":{"ha":358,"x_min":-21,"x_max":400,"o":"m 226 -228 q 54 244 81 7 q -2 306 17 271 q -21 390 -21 340 q 3 477 -21 440 q 79 553 26 514 q 190 801 117 681 q 351 1008 264 921 l 382 989 q 224 544 250 765 q 296 414 296 489 q 231 263 296 322 q 400 -165 268 46 l 226 -228 m 135 269 q 264 406 213 319 q 142 519 222 472 q 7 392 60 472 q 135 269 56 318 m 124 472 q 221 400 167 451 l 140 308 q 106 342 131 318 q 51 389 81 367 l 124 472 z "},"﴿":{"ha":358,"x_min":-21,"x_max":400,"o":"m 325 564 q 381 503 363 538 q 400 418 400 468 q 376 331 400 368 q 300 256 353 294 q 189 8 263 128 q 28 -200 115 -112 l -3 -181 q 156 264 129 43 q 83 394 83 319 q 149 546 83 486 q -21 974 111 763 l 153 1036 q 325 564 299 801 m 238 289 q 372 417 319 336 q 244 539 324 490 q 115 403 167 489 q 238 289 157 336 m 239 500 q 274 466 249 490 q 328 419 299 442 l 256 336 q 158 408 213 357 l 239 500 z "},"¢":{"ha":603,"x_min":31,"x_max":600,"o":"m 408 139 q 576 201 494 139 l 599 176 q 490 48 554 99 q 351 -17 426 -3 l 351 -183 l 293 -183 l 293 -21 q 101 67 172 -17 q 31 290 31 151 q 65 458 31 375 q 154 597 100 542 q 294 642 222 631 l 294 822 l 353 822 l 353 646 q 498 601 435 646 q 600 472 561 557 l 440 379 q 381 506 418 442 q 315 593 343 569 q 253 492 279 558 q 228 357 228 426 q 275 194 228 250 q 408 139 322 139 z "},"¤":{"ha":651,"x_min":29,"x_max":622,"o":"m 590 426 q 524 231 590 315 l 622 101 l 571 65 l 482 186 q 299 118 403 118 q 153 164 214 118 l 81 65 l 29 101 l 110 207 q 64 358 64 268 q 131 556 64 469 l 29 688 l 81 724 l 172 599 q 356 667 251 667 q 497 624 438 667 l 571 724 l 622 688 l 542 582 q 590 426 590 519 m 213 485 q 436 239 213 254 q 442 300 442 265 q 218 546 442 531 q 213 485 213 519 z "},"$":{"ha":675,"x_min":11,"x_max":668,"o":"m 271 660 q 296 585 271 618 q 357 526 321 551 q 456 467 393 501 q 567 398 525 428 q 638 326 608 368 q 667 228 667 283 q 632 114 667 168 q 531 24 597 60 q 378 -19 465 -12 l 378 -185 l 319 -185 l 319 -21 q 11 174 103 -11 l 164 264 q 299 36 218 163 l 301 36 q 400 72 360 36 q 440 156 440 108 q 401 236 440 201 q 279 319 363 271 q 165 393 208 361 q 90 472 121 425 q 60 579 60 518 q 132 736 60 669 q 319 817 204 803 l 319 976 l 378 976 l 378 821 q 550 782 481 821 q 668 672 619 743 l 526 574 q 442 692 504 604 q 383 772 396 757 q 301 738 331 768 q 271 660 271 707 z "},"€":{"ha":881,"x_min":7,"x_max":878,"o":"m 878 169 q 709 29 807 79 q 504 -21 611 -21 q 270 65 365 -21 q 151 294 175 150 l 7 296 l 7 346 l 146 346 q 144 381 144 357 q 147 433 144 397 l 7 435 l 7 485 l 154 485 q 200 630 168 564 q 279 739 232 696 q 549 821 415 821 q 724 780 643 821 q 856 672 804 739 l 708 563 q 531 771 629 669 q 428 664 468 742 q 379 485 388 586 l 651 485 l 651 426 l 378 431 q 385 346 378 390 l 651 346 l 651 288 l 399 290 q 485 163 426 208 q 631 118 544 118 q 743 139 689 118 q 840 199 797 160 l 878 169 z "},"ƒ":{"ha":479,"x_min":-144,"x_max":572,"o":"m 268 901 q 267 871 267 892 q 285 736 267 808 q 329 611 303 664 l 457 611 l 457 553 l 346 554 l 297 186 q 206 -78 272 11 q 26 -168 140 -168 q -69 -147 -24 -168 q -144 -89 -114 -126 l -81 -10 q 33 -117 -31 -79 q 93 290 65 61 l 124 556 l 15 557 l 15 611 l 119 611 q 110 717 110 664 q 126 844 110 782 q 176 910 140 881 q 257 958 213 940 q 339 975 301 975 q 462 956 400 975 q 572 907 524 938 l 457 742 q 369 827 424 781 q 268 901 314 874 z "},"₺":{"ha":782,"x_min":7,"x_max":771,"o":"m 771 344 q 697 153 754 236 q 544 25 639 71 q 325 -21 449 -21 q 156 21 242 -21 l 156 336 l 17 296 l 7 349 l 156 394 l 156 475 l 17 435 l 7 488 l 156 533 l 156 757 l 88 758 l 88 807 l 454 807 l 454 758 l 386 757 l 386 604 l 547 654 l 556 593 l 386 543 l 386 465 l 547 515 l 556 454 l 386 404 l 386 44 q 532 177 472 85 q 606 389 592 269 l 771 344 z "},"₽":{"ha":853,"x_min":7,"x_max":838,"o":"m 838 575 q 720 374 838 449 q 378 294 603 300 l 378 219 l 624 219 l 624 161 l 378 164 l 378 50 l 529 49 l 529 0 l 79 0 l 79 49 l 147 50 l 147 168 l 7 169 l 7 219 l 147 219 l 147 294 l 11 297 l 11 347 l 147 347 l 147 756 l 79 757 l 79 806 l 347 803 l 549 813 q 706 781 640 813 q 804 694 771 749 q 838 575 838 640 m 590 535 q 563 647 590 596 q 488 727 536 697 q 378 757 439 757 l 378 349 q 534 404 478 356 q 590 535 590 453 z "},"£":{"ha":719,"x_min":7,"x_max":697,"o":"m 697 249 l 697 0 l 7 0 l 7 49 l 75 50 q 157 279 157 129 q 147 372 157 326 l 25 374 l 25 424 l 135 424 q 122 464 132 432 q 106 526 111 496 q 100 588 100 557 q 182 785 100 719 q 272 811 222 801 q 368 821 322 821 q 533 785 457 821 q 668 685 610 749 l 529 549 q 438 660 483 613 q 325 761 393 707 q 319 701 319 735 q 327 631 319 667 q 351 542 335 596 q 381 424 376 447 l 614 424 l 614 365 l 389 368 q 392 313 392 332 q 362 163 392 224 q 271 58 332 103 q 640 178 456 108 l 643 247 l 697 249 z "},"¥":{"ha":861,"x_min":10,"x_max":851,"o":"m 851 806 l 851 757 l 783 756 l 556 374 l 754 374 l 754 315 l 550 318 l 550 235 l 754 235 l 754 176 l 550 179 l 550 50 l 618 49 l 618 0 l 251 0 l 251 49 l 319 50 l 319 182 l 110 185 l 110 235 l 319 235 l 319 321 l 110 324 l 110 374 l 301 374 l 78 756 l 10 757 l 10 806 l 425 806 l 425 757 l 357 756 l 513 408 l 611 756 l 540 757 l 540 806 l 851 806 z "}}}
